<svg xmlns="http://www.w3.org/2000/svg" xmlns:xlink="http://www.w3.org/1999/xlink" contentStyleType="text/css" data-diagram-type="DESCRIPTION" height="381px" preserveAspectRatio="none" style="width:1496px;height:381px;background:#FFFFFF;" version="1.1" viewBox="0 0 1496 381" width="1496px" zoomAndPan="magnify"><title>Marketing Agency</title><defs/><g><g class="title" data-source-line="2"><text fill="#000000" font-family="sans-serif" font-size="14" font-weight="bold" lengthAdjust="spacing" textLength="128.1695" x="677.1561" y="24.9659">Marketing Agency</text></g><!--entity AM--><g class="entity" data-entity="AM" data-source-line="4" data-uid="ent0002" id="entity_AM"><ellipse cx="476.7629" cy="54.0679" fill="#F1F1F1" rx="8" ry="8" style="stroke:#181818;stroke-width:0.5;"/><path d="M476.7629,62.0679 L476.7629,89.0679 M463.7629,70.0679 L489.7629,70.0679 M476.7629,89.0679 L463.7629,104.0679 M476.7629,89.0679 L489.7629,104.0679" fill="none" style="stroke:#181818;stroke-width:0.5;"/><text fill="#000000" font-family="sans-serif" font-size="14" lengthAdjust="spacing" textLength="53.2138" x="447.09" y="120.5339">Account</text><text fill="#000000" font-family="sans-serif" font-size="14" lengthAdjust="spacing" textLength="59.3458" x="447.09" y="139.6018">Manager</text></g><!--entity MM--><g class="entity" data-entity="MM" data-source-line="5" data-uid="ent0003" id="entity_MM"><ellipse cx="627.7669" cy="54.0679" fill="#F1F1F1" rx="8" ry="8" style="stroke:#181818;stroke-width:0.5;"/><path d="M627.7669,62.0679 L627.7669,89.0679 M614.7669,70.0679 L640.7669,70.0679 M627.7669,89.0679 L614.7669,104.0679 M627.7669,89.0679 L640.7669,104.0679" fill="none" style="stroke:#181818;stroke-width:0.5;"/><text fill="#000000" font-family="sans-serif" font-size="14" lengthAdjust="spacing" textLength="67.6337" x="593.95" y="120.5339">Marketing</text><text fill="#000000" font-family="sans-serif" font-size="14" lengthAdjust="spacing" textLength="59.3458" x="593.95" y="139.6018">Manager</text></g><!--entity Designer--><g class="entity" data-entity="Designer" data-source-line="6" data-uid="ent0004" id="entity_Designer"><ellipse cx="790.7669" cy="63.5979" fill="#F1F1F1" rx="8" ry="8" style="stroke:#181818;stroke-width:0.5;"/><path d="M790.7669,71.5979 L790.7669,98.5979 M777.7669,79.5979 L803.7669,79.5979 M790.7669,98.5979 L777.7669,113.5979 M790.7669,98.5979 L803.7669,113.5979" fill="none" style="stroke:#181818;stroke-width:0.5;"/><text fill="#000000" font-family="sans-serif" font-size="14" lengthAdjust="spacing" textLength="59.3738" x="761.08" y="130.0639">Designer</text></g><!--entity Copywriter--><g class="entity" data-entity="Copywriter" data-source-line="7" data-uid="ent0005" id="entity_Copywriter"><ellipse cx="914.7689" cy="63.5979" fill="#F1F1F1" rx="8" ry="8" style="stroke:#181818;stroke-width:0.5;"/><path d="M914.7689,71.5979 L914.7689,98.5979 M901.7689,79.5979 L927.7689,79.5979 M914.7689,98.5979 L901.7689,113.5979 M914.7689,98.5979 L927.7689,113.5979" fill="none" style="stroke:#181818;stroke-width:0.5;"/><text fill="#000000" font-family="sans-serif" font-size="14" lengthAdjust="spacing" textLength="72.1977" x="878.67" y="130.0639">Copywriter</text></g><!--entity UC_CAMPAIGN--><g class="entity" data-entity="UC_CAMPAIGN" data-source-line="10" data-uid="ent0006" id="entity_UC_CAMPAIGN"><ellipse cx="867.7697" cy="221.181" fill="#F1F1F1" rx="55.2097" ry="16.4831" style="stroke:#181818;stroke-width:0.5;"/><text fill="#000000" font-family="sans-serif" font-size="14" lengthAdjust="spacing" textLength="73.8357" x="830.8519" y="227.2149">Campaigns</text></g><!--entity UC_CALENDAR--><g class="entity" data-entity="UC_CALENDAR" data-source-line="11" data-uid="ent0007" id="entity_UC_CALENDAR"><ellipse cx="1037.7655" cy="221.181" fill="#F1F1F1" rx="44.7955" ry="16.4831" style="stroke:#181818;stroke-width:0.5;"/><text fill="#000000" font-family="sans-serif" font-size="14" lengthAdjust="spacing" textLength="59.1078" x="1008.2116" y="227.2149">Calendar</text></g><!--entity UC_MULTI--><g class="entity" data-entity="UC_MULTI" data-source-line="12" data-uid="ent0008" id="entity_UC_MULTI"><ellipse cx="234.7694" cy="221.181" fill="#F1F1F1" rx="61.1494" ry="16.4831" style="stroke:#181818;stroke-width:0.5;"/><text fill="#000000" font-family="sans-serif" font-size="14" lengthAdjust="spacing" textLength="82.2357" x="193.6516" y="227.2149">Many clients</text></g><!--entity UC_WORKLOAD--><g class="entity" data-entity="UC_WORKLOAD" data-source-line="13" data-uid="ent0009" id="entity_UC_WORKLOAD"><ellipse cx="465.7658" cy="221.181" fill="#F1F1F1" rx="51.6558" ry="16.4831" style="stroke:#181818;stroke-width:0.5;"/><text fill="#000000" font-family="sans-serif" font-size="14" lengthAdjust="spacing" textLength="68.8097" x="431.361" y="227.2149">Team load</text></g><!--entity UC_HANDOFF--><g class="entity" data-entity="UC_HANDOFF" data-source-line="14" data-uid="ent0010" id="entity_UC_HANDOFF"><ellipse cx="648.7708" cy="221.181" fill="#F1F1F1" rx="68.8908" ry="16.4831" style="stroke:#181818;stroke-width:0.5;"/><text fill="#000000" font-family="sans-serif" font-size="14" lengthAdjust="spacing" textLength="93.1836" x="602.179" y="227.2149">Client handoff</text></g><!--entity UC_PROJ--><g class="entity" data-entity="UC_PROJ" data-source-line="18" data-uid="ent0011" id="entity_UC_PROJ"><ellipse cx="867.7663" cy="346.241" fill="#F1F1F1" rx="68.3463" ry="16.4831" style="stroke:#181818;stroke-width:0.5;"/><text fill="#000000" font-family="sans-serif" font-size="14" lengthAdjust="spacing" textLength="92.4137" x="821.5595" y="352.2749">Make projects</text></g><!--entity UC_TASKS--><g class="entity" data-entity="UC_TASKS" data-source-line="19" data-uid="ent0012" id="entity_UC_TASKS"><ellipse cx="1025.7732" cy="346.241" fill="#F1F1F1" rx="54.8732" ry="16.4831" style="stroke:#181818;stroke-width:0.5;"/><text fill="#000000" font-family="sans-serif" font-size="14" lengthAdjust="spacing" textLength="73.3597" x="989.0933" y="352.2749">Make tasks</text></g><!--entity UC_GROUP--><g class="entity" data-entity="UC_GROUP" data-source-line="20" data-uid="ent0013" id="entity_UC_GROUP"><ellipse cx="1163.7684" cy="346.234" fill="#F1F1F1" rx="48.2984" ry="29.5761" style="stroke:#181818;stroke-width:0.5;"/><text fill="#000000" font-family="sans-serif" font-size="14" lengthAdjust="spacing" textLength="61.0958" x="1133.2205" y="342.1783">Group by</text><text fill="#000000" font-family="sans-serif" font-size="14" lengthAdjust="spacing" textLength="65.0018" x="1131.2675" y="361.2462">campaign</text></g><!--entity UC_SEE_DATES--><g class="entity" data-entity="UC_SEE_DATES" data-source-line="23" data-uid="ent0014" id="entity_UC_SEE_DATES"><ellipse cx="1442.7659" cy="346.241" fill="#F1F1F1" rx="47.7159" ry="16.4831" style="stroke:#181818;stroke-width:0.5;"/><text fill="#000000" font-family="sans-serif" font-size="14" lengthAdjust="spacing" textLength="63.2378" x="1411.147" y="352.2749">See dates</text></g><!--entity UC_MOVE_DATES--><g class="entity" data-entity="UC_MOVE_DATES" data-source-line="24" data-uid="ent0015" id="entity_UC_MOVE_DATES"><ellipse cx="1303.7747" cy="346.241" fill="#F1F1F1" rx="56.6947" ry="16.4831" style="stroke:#181818;stroke-width:0.5;"/><text fill="#000000" font-family="sans-serif" font-size="14" lengthAdjust="spacing" textLength="75.9357" x="1265.8068" y="352.2749">Move dates</text></g><!--entity UC_FILT_CLIENT--><g class="entity" data-entity="UC_FILT_CLIENT" data-source-line="27" data-uid="ent0016" id="entity_UC_FILT_CLIENT"><ellipse cx="43.7666" cy="346.2386" fill="#F1F1F1" rx="37.7666" ry="28.2007" style="stroke:#181818;stroke-width:0.5;"/><text fill="#000000" font-family="sans-serif" font-size="14" lengthAdjust="spacing" textLength="52.6118" x="17.4607" y="345.3296">Filter by</text><text fill="#000000" font-family="sans-serif" font-size="14" lengthAdjust="spacing" textLength="35.5459" x="25.9937" y="364.3975">client</text></g><!--entity UC_FILT_PRI--><g class="entity" data-entity="UC_FILT_PRI" data-source-line="28" data-uid="ent0017" id="entity_UC_FILT_PRI"><ellipse cx="155.7707" cy="346.2421" fill="#F1F1F1" rx="39.4407" ry="29.4142" style="stroke:#181818;stroke-width:0.5;"/><text fill="#000000" font-family="sans-serif" font-size="14" lengthAdjust="spacing" textLength="52.6118" x="129.4648" y="343.531">Filter by</text><text fill="#000000" font-family="sans-serif" font-size="14" lengthAdjust="spacing" textLength="48.0618" x="131.7398" y="362.5989">priority</text></g><!--entity UC_WHO_WHAT--><g class="entity" data-entity="UC_WHO_WHAT" data-source-line="31" data-uid="ent0018" id="entity_UC_WHO_WHAT"><ellipse cx="274.7678" cy="346.2412" fill="#F1F1F1" rx="44.3078" ry="29.5133" style="stroke:#181818;stroke-width:0.5;"/><text fill="#000000" font-family="sans-serif" font-size="14" lengthAdjust="spacing" textLength="55.2438" x="247.1459" y="342.0953">See who</text><text fill="#000000" font-family="sans-serif" font-size="14" lengthAdjust="spacing" textLength="59.4158" x="245.0599" y="361.1632">has what</text></g><!--entity UC_MOVE_TASKS--><g class="entity" data-entity="UC_MOVE_TASKS" data-source-line="32" data-uid="ent0019" id="entity_UC_MOVE_TASKS"><ellipse cx="426.7693" cy="346.2365" fill="#F1F1F1" rx="73.1193" ry="28.2886" style="stroke:#181818;stroke-width:0.5;"/><text fill="#000000" font-family="sans-serif" font-size="14" lengthAdjust="spacing" textLength="73.6117" x="389.9635" y="340.2797">Move tasks</text><text fill="#000000" font-family="sans-serif" font-size="14" lengthAdjust="spacing" textLength="105.7416" x="373.8985" y="359.3477">between people</text></g><!--entity UC_DESC--><g class="entity" data-entity="UC_DESC" data-source-line="35" data-uid="ent0020" id="entity_UC_DESC"><ellipse cx="589.7682" cy="346.2369" fill="#F1F1F1" rx="54.4582" ry="27.399" style="stroke:#181818;stroke-width:0.5;"/><text fill="#000000" font-family="sans-serif" font-size="14" lengthAdjust="spacing" textLength="35.3639" x="572.0863" y="338.8915">Write</text><text fill="#000000" font-family="sans-serif" font-size="14" lengthAdjust="spacing" textLength="80.4297" x="549.5534" y="357.9594">descriptions</text></g><!--entity UC_FILES--><g class="entity" data-entity="UC_FILES" data-source-line="36" data-uid="ent0021" id="entity_UC_FILES"><ellipse cx="721.7746" cy="346.241" fill="#F1F1F1" rx="42.9146" ry="16.4831" style="stroke:#181818;stroke-width:0.5;"/><text fill="#000000" font-family="sans-serif" font-size="14" lengthAdjust="spacing" textLength="56.4478" x="693.5507" y="352.2749">Add files</text></g><!--link UC_CAMPAIGN to UC_PROJ--><g class="link" data-entity-1="UC_CAMPAIGN" data-entity-2="UC_PROJ" data-source-line="39" data-uid="lnk22" id="link_UC_CAMPAIGN_UC_PROJ"><path d="M867.77,238.0179 C867.77,261.6479 867.77,299.8779 867.77,323.4679" fill="none" id="UC_CAMPAIGN-to-UC_PROJ" style="stroke:#181818;stroke-width:1;stroke-dasharray:7,7;"/><polygon fill="#181818" points="867.77,329.4679,871.77,320.4679,867.77,324.4679,863.77,320.4679,867.77,329.4679" style="stroke:#181818;stroke-width:1;"/><text fill="#000000" font-family="sans-serif" font-size="13" lengthAdjust="spacing" textLength="57.5771" x="868.77" y="282.5649">&#171;include&#187;</text></g><!--link UC_CAMPAIGN to UC_TASKS--><g class="link" data-entity-1="UC_CAMPAIGN" data-entity-2="UC_TASKS" data-source-line="40" data-uid="lnk23" id="link_UC_CAMPAIGN_UC_TASKS"><path d="M890.22,236.5379 C903.44,245.2079 920.34,256.6779 934.77,267.6679 C961.68,288.1779 986.7442,310.0109 1004.6542,326.0809" fill="none" id="UC_CAMPAIGN-to-UC_TASKS" style="stroke:#181818;stroke-width:1;stroke-dasharray:7,7;"/><polygon fill="#181818" points="1009.12,330.0879,1005.0926,321.1001,1005.3985,326.7487,999.7499,327.0546,1009.12,330.0879" style="stroke:#181818;stroke-width:1;"/><text fill="#000000" font-family="sans-serif" font-size="13" lengthAdjust="spacing" textLength="57.5771" x="958.9" y="282.5649">&#171;include&#187;</text></g><!--link UC_CAMPAIGN to UC_GROUP--><g class="link" data-entity-1="UC_CAMPAIGN" data-entity-2="UC_GROUP" data-source-line="41" data-uid="lnk24" id="link_UC_CAMPAIGN_UC_GROUP"><path d="M910.98,231.8879 C943.03,239.7579 987.45,252.0879 1024.77,267.6679 C1062.64,283.4779 1098.2367,303.8925 1125.7467,320.9025" fill="none" id="UC_CAMPAIGN-to-UC_GROUP" style="stroke:#181818;stroke-width:1;stroke-dasharray:7,7;"/><polygon fill="#181818" points="1130.85,324.0579,1125.2988,315.9226,1126.5973,321.4284,1121.0915,322.7269,1130.85,324.0579" style="stroke:#181818;stroke-width:1;"/><text fill="#000000" font-family="sans-serif" font-size="13" lengthAdjust="spacing" textLength="57.5771" x="1065.29" y="282.5649">&#171;include&#187;</text></g><!--link UC_CALENDAR to UC_SEE_DATES--><g class="link" data-entity-1="UC_CALENDAR" data-entity-2="UC_SEE_DATES" data-source-line="43" data-uid="lnk25" id="link_UC_CALENDAR_UC_SEE_DATES"><path d="M1082.34,223.7879 C1139.34,227.0779 1240.28,237.1079 1320.77,267.6679 C1361.13,282.9879 1397.6174,309.0243 1420.3074,326.9043" fill="none" id="UC_CALENDAR-to-UC_SEE_DATES" style="stroke:#181818;stroke-width:1;stroke-dasharray:7,7;"/><polygon fill="#181818" points="1425.02,330.6179,1420.4268,321.9057,1421.0928,327.5232,1415.4753,328.1892,1425.02,330.6179" style="stroke:#181818;stroke-width:1;"/><text fill="#000000" font-family="sans-serif" font-size="13" lengthAdjust="spacing" textLength="57.5771" x="1361" y="282.5649">&#171;include&#187;</text></g><!--link UC_CALENDAR to UC_MOVE_DATES--><g class="link" data-entity-1="UC_CALENDAR" data-entity-2="UC_MOVE_DATES" data-source-line="44" data-uid="lnk26" id="link_UC_CALENDAR_UC_MOVE_DATES"><path d="M1081.43,225.2479 C1122.37,229.7279 1184.11,240.7279 1230.77,267.6679 C1257.67,283.1979 1277.2212,306.8694 1289.8812,324.6594" fill="none" id="UC_CALENDAR-to-UC_MOVE_DATES" style="stroke:#181818;stroke-width:1;stroke-dasharray:7,7;"/><polygon fill="#181818" points="1293.36,329.5479,1291.4007,319.8959,1290.461,325.4741,1284.8827,324.5344,1293.36,329.5479" style="stroke:#181818;stroke-width:1;"/><text fill="#000000" font-family="sans-serif" font-size="13" lengthAdjust="spacing" textLength="57.5771" x="1255.1" y="282.5649">&#171;include&#187;</text></g><!--link UC_MULTI to UC_FILT_CLIENT--><g class="link" data-entity-1="UC_MULTI" data-entity-2="UC_FILT_CLIENT" data-source-line="46" data-uid="lnk27" id="link_UC_MULTI_UC_FILT_CLIENT"><path d="M184.23,230.8379 C156.65,237.4579 123.06,248.7679 97.77,267.6679 C79.76,281.1179 68.459,297.1348 59.149,314.0048" fill="none" id="UC_MULTI-to-UC_FILT_CLIENT" style="stroke:#181818;stroke-width:1;stroke-dasharray:7,7;"/><polygon fill="#181818" points="56.25,319.2579,64.1007,313.3109,58.6659,314.8803,57.0965,309.4455,56.25,319.2579" style="stroke:#181818;stroke-width:1;"/><text fill="#000000" font-family="sans-serif" font-size="13" lengthAdjust="spacing" textLength="57.5771" x="98.77" y="282.5649">&#171;include&#187;</text></g><!--link UC_MULTI to UC_FILT_PRI--><g class="link" data-entity-1="UC_MULTI" data-entity-2="UC_FILT_PRI" data-source-line="47" data-uid="lnk28" id="link_UC_MULTI_UC_FILT_PRI"><path d="M207.31,236.2679 C194.97,243.9479 181.28,254.5779 172.77,267.6679 C163.37,282.1079 159.8243,294.993 157.9143,310.483" fill="none" id="UC_MULTI-to-UC_FILT_PRI" style="stroke:#181818;stroke-width:1;stroke-dasharray:7,7;"/><polygon fill="#181818" points="157.18,316.4379,162.2513,307.9951,157.7919,311.4755,154.3115,307.0161,157.18,316.4379" style="stroke:#181818;stroke-width:1;"/><text fill="#000000" font-family="sans-serif" font-size="13" lengthAdjust="spacing" textLength="57.5771" x="173.77" y="282.5649">&#171;include&#187;</text></g><!--link UC_WORKLOAD to UC_WHO_WHAT--><g class="link" data-entity-1="UC_WORKLOAD" data-entity-2="UC_WHO_WHAT" data-source-line="49" data-uid="lnk29" id="link_UC_WORKLOAD_UC_WHO_WHAT"><path d="M438.07,235.5079 C420.91,244.0779 398.64,255.7979 379.77,267.6679 C352.52,284.7979 327.9279,303.1037 307.2079,319.2937" fill="none" id="UC_WORKLOAD-to-UC_WHO_WHAT" style="stroke:#181818;stroke-width:1;stroke-dasharray:7,7;"/><polygon fill="#181818" points="302.48,322.9879,312.0346,320.5985,306.4199,319.9094,307.109,314.2947,302.48,322.9879" style="stroke:#181818;stroke-width:1;"/><text fill="#000000" font-family="sans-serif" font-size="13" lengthAdjust="spacing" textLength="57.5771" x="380.77" y="282.5649">&#171;include&#187;</text></g><!--link UC_WORKLOAD to UC_MOVE_TASKS--><g class="link" data-entity-1="UC_WORKLOAD" data-entity-2="UC_MOVE_TASKS" data-source-line="50" data-uid="lnk30" id="link_UC_WORKLOAD_UC_MOVE_TASKS"><path d="M460.75,238.0179 C454.37,258.1379 445.0739,287.4887 437.2939,312.0187" fill="none" id="UC_WORKLOAD-to-UC_MOVE_TASKS" style="stroke:#181818;stroke-width:1;stroke-dasharray:7,7;"/><polygon fill="#181818" points="435.48,317.7379,442.0137,310.3683,436.9916,312.9719,434.3881,307.9498,435.48,317.7379" style="stroke:#181818;stroke-width:1;"/><text fill="#000000" font-family="sans-serif" font-size="13" lengthAdjust="spacing" textLength="57.5771" x="451.91" y="282.5649">&#171;include&#187;</text></g><!--link UC_HANDOFF to UC_DESC--><g class="link" data-entity-1="UC_HANDOFF" data-entity-2="UC_DESC" data-source-line="52" data-uid="lnk31" id="link_UC_HANDOFF_UC_DESC"><path d="M637.77,237.7279 C631.98,246.3079 625.01,257.3079 619.77,267.6679 C611.42,284.1579 605.9237,297.9024 600.5137,313.1724" fill="none" id="UC_HANDOFF-to-UC_DESC" style="stroke:#181818;stroke-width:1;stroke-dasharray:7,7;"/><polygon fill="#181818" points="598.51,318.8279,605.2859,311.6804,600.1797,314.115,597.7452,309.0088,598.51,318.8279" style="stroke:#181818;stroke-width:1;"/><text fill="#000000" font-family="sans-serif" font-size="13" lengthAdjust="spacing" textLength="57.5771" x="620.77" y="282.5649">&#171;include&#187;</text></g><!--link UC_HANDOFF to UC_FILES--><g class="link" data-entity-1="UC_HANDOFF" data-entity-2="UC_FILES" data-source-line="53" data-uid="lnk32" id="link_UC_HANDOFF_UC_FILES"><path d="M661.43,237.6979 C668.16,246.2679 676.34,257.2679 682.77,267.6679 C695.53,288.3079 705.1939,308.2027 712.4339,324.1827" fill="none" id="UC_HANDOFF-to-UC_FILES" style="stroke:#181818;stroke-width:1;stroke-dasharray:7,7;"/><polygon fill="#181818" points="714.91,329.6479,714.8393,319.7993,712.8466,325.0936,707.5523,323.1008,714.91,329.6479" style="stroke:#181818;stroke-width:1;"/><text fill="#000000" font-family="sans-serif" font-size="13" lengthAdjust="spacing" textLength="57.5771" x="694.47" y="282.5649">&#171;include&#187;</text></g><!--link AM to UC_CAMPAIGN--><g class="link" data-entity-1="AM" data-entity-2="UC_CAMPAIGN" data-source-line="56" data-uid="lnk33" id="link_AM_UC_CAMPAIGN"><path d="M506.75,111.9079 C526.28,122.0379 552.54,134.7879 576.77,143.6979 C661.7,174.9479 759.0798,197.6865 816.9598,209.9265" fill="none" id="AM-to-UC_CAMPAIGN" style="stroke:#181818;stroke-width:1;"/><polygon fill="#181818" points="822.83,211.1679,814.8523,205.3924,817.9382,210.1334,813.1971,213.2193,822.83,211.1679" style="stroke:#181818;stroke-width:1;"/></g><!--link AM to UC_MULTI--><g class="link" data-entity-1="AM" data-entity-2="UC_MULTI" data-source-line="57" data-uid="lnk34" id="link_AM_UC_MULTI"><path d="M446.61,111.1579 C399.22,135.5479 313.3649,179.7323 267.6449,203.2623" fill="none" id="AM-to-UC_MULTI" style="stroke:#181818;stroke-width:1;"/><polygon fill="#181818" points="262.31,206.0079,272.1428,205.4461,266.7558,203.7199,268.482,198.3328,262.31,206.0079" style="stroke:#181818;stroke-width:1;"/></g><!--link AM to UC_WORKLOAD--><g class="link" data-entity-1="AM" data-entity-2="UC_WORKLOAD" data-source-line="58" data-uid="lnk35" id="link_AM_UC_WORKLOAD"><path d="M472.48,144.1479 C470.59,165.5879 469.0183,183.3512 467.6783,198.5112" fill="none" id="AM-to-UC_WORKLOAD" style="stroke:#181818;stroke-width:1;"/><polygon fill="#181818" points="467.15,204.4879,471.9269,195.8751,467.5902,199.5073,463.958,195.1707,467.15,204.4879" style="stroke:#181818;stroke-width:1;"/></g><!--link AM to UC_HANDOFF--><g class="link" data-entity-1="AM" data-entity-2="UC_HANDOFF" data-source-line="59" data-uid="lnk36" id="link_AM_UC_HANDOFF"><path d="M506.73,117.3279 C541.38,142.4179 592.66,179.5593 622.95,201.4893" fill="none" id="AM-to-UC_HANDOFF" style="stroke:#181818;stroke-width:1;"/><polygon fill="#181818" points="627.81,205.0079,622.8658,196.49,623.76,202.0757,618.1743,202.97,627.81,205.0079" style="stroke:#181818;stroke-width:1;"/></g><!--link MM to UC_CAMPAIGN--><g class="link" data-entity-1="MM" data-entity-2="UC_CAMPAIGN" data-source-line="61" data-uid="lnk37" id="link_MM_UC_CAMPAIGN"><path d="M661.9,113.3479 C710.17,138.3979 792.0447,180.8837 835.8347,203.6137" fill="none" id="MM-to-UC_CAMPAIGN" style="stroke:#181818;stroke-width:1;"/><polygon fill="#181818" points="841.16,206.3779,835.0148,198.6814,836.7222,204.0744,831.3292,205.7818,841.16,206.3779" style="stroke:#181818;stroke-width:1;"/></g><!--link MM to UC_CALENDAR--><g class="link" data-entity-1="MM" data-entity-2="UC_CALENDAR" data-source-line="62" data-uid="lnk38" id="link_MM_UC_CALENDAR"><path d="M662.06,111.3079 C684.91,121.3879 715.76,134.3079 743.77,143.6979 C834.02,173.9779 937.3009,198.2854 993.8309,210.7554" fill="none" id="MM-to-UC_CALENDAR" style="stroke:#181818;stroke-width:1;"/><polygon fill="#181818" points="999.69,212.0479,991.7629,206.2031,994.8074,210.9709,990.0396,214.0153,999.69,212.0479" style="stroke:#181818;stroke-width:1;"/></g><!--link MM to UC_MULTI--><g class="link" data-entity-1="MM" data-entity-2="UC_MULTI" data-source-line="63" data-uid="lnk39" id="link_MM_UC_MULTI"><path d="M593.73,113.1879 C573.72,123.0479 547.72,135.0679 523.77,143.6979 C440.51,173.6979 345.8212,196.3749 287.9412,209.0449" fill="none" id="MM-to-UC_MULTI" style="stroke:#181818;stroke-width:1;"/><polygon fill="#181818" points="282.08,210.3279,291.7272,212.3109,286.9643,209.2587,290.0165,204.4959,282.08,210.3279" style="stroke:#181818;stroke-width:1;"/></g><!--link MM to UC_WORKLOAD--><g class="link" data-entity-1="MM" data-entity-2="UC_WORKLOAD" data-source-line="64" data-uid="lnk40" id="link_MM_UC_WORKLOAD"><path d="M593.81,121.7379 C560.78,147.1379 516.5371,181.1514 489.7371,201.7514" fill="none" id="MM-to-UC_WORKLOAD" style="stroke:#181818;stroke-width:1;"/><polygon fill="#181818" points="484.98,205.4079,494.5533,203.0945,488.9442,202.3608,489.6779,196.7517,484.98,205.4079" style="stroke:#181818;stroke-width:1;"/></g><!--link MM to UC_HANDOFF--><g class="link" data-entity-1="MM" data-entity-2="UC_HANDOFF" data-source-line="65" data-uid="lnk41" id="link_MM_UC_HANDOFF"><path d="M635.95,144.1479 C639.56,165.5879 642.561,183.4117 645.121,198.5717" fill="none" id="MM-to-UC_HANDOFF" style="stroke:#181818;stroke-width:1;"/><polygon fill="#181818" points="646.12,204.4879,648.5656,194.9475,645.2875,199.5577,640.6773,196.2796,646.12,204.4879" style="stroke:#181818;stroke-width:1;"/></g><!--link Designer to UC_CAMPAIGN--><g class="link" data-entity-1="Designer" data-entity-2="UC_CAMPAIGN" data-source-line="67" data-uid="lnk42" id="link_Designer_UC_CAMPAIGN"><path d="M814.71,134.3579 C829.36,158.0679 844.1634,182.0154 854.9834,199.5054" fill="none" id="Designer-to-UC_CAMPAIGN" style="stroke:#181818;stroke-width:1;"/><polygon fill="#181818" points="858.14,204.6079,856.8068,194.8497,855.5095,200.3558,850.0034,199.0585,858.14,204.6079" style="stroke:#181818;stroke-width:1;"/></g><!--link Designer to UC_CALENDAR--><g class="link" data-entity-1="Designer" data-entity-2="UC_CALENDAR" data-source-line="68" data-uid="lnk43" id="link_Designer_UC_CALENDAR"><path d="M820.89,118.3879 C832.93,126.9279 847.15,136.3379 860.77,143.6979 C891.62,160.3879 901.53,159.8779 933.77,173.6979 C959.94,184.9279 984.1055,195.7502 1005.0355,205.2402" fill="none" id="Designer-to-UC_CALENDAR" style="stroke:#181818;stroke-width:1;"/><polygon fill="#181818" points="1010.5,207.7179,1003.955,200.3583,1005.9462,205.6532,1000.6514,207.6444,1010.5,207.7179" style="stroke:#181818;stroke-width:1;"/></g><!--link Designer to UC_WORKLOAD--><g class="link" data-entity-1="Designer" data-entity-2="UC_WORKLOAD" data-source-line="69" data-uid="lnk44" id="link_Designer_UC_WORKLOAD"><path d="M761.02,108.9779 C738.57,118.9179 706.92,132.6179 678.77,143.6979 C616.43,168.2379 548.3272,192.0764 505.9872,206.5564" fill="none" id="Designer-to-UC_WORKLOAD" style="stroke:#181818;stroke-width:1;"/><polygon fill="#181818" points="500.31,208.4979,510.1201,209.3704,505.041,206.88,507.5314,201.8008,500.31,208.4979" style="stroke:#181818;stroke-width:1;"/></g><!--link Designer to UC_HANDOFF--><g class="link" data-entity-1="Designer" data-entity-2="UC_HANDOFF" data-source-line="70" data-uid="lnk45" id="link_Designer_UC_HANDOFF"><path d="M760.65,122.0479 C732,147.1779 694.3705,180.1812 670.8305,200.8312" fill="none" id="Designer-to-UC_HANDOFF" style="stroke:#181818;stroke-width:1;"/><polygon fill="#181818" points="666.32,204.7879,675.7235,201.8598,670.0787,201.4906,670.4479,195.8459,666.32,204.7879" style="stroke:#181818;stroke-width:1;"/></g><!--link Copywriter to UC_CAMPAIGN--><g class="link" data-entity-1="Copywriter" data-entity-2="UC_CAMPAIGN" data-source-line="72" data-uid="lnk46" id="link_Copywriter_UC_CAMPAIGN"><path d="M910.78,134.3979 C908.55,147.5479 905.1,162.0879 899.77,174.6979 C895.18,185.5479 891.3947,191.6682 884.8247,200.0382" fill="none" id="Copywriter-to-UC_CAMPAIGN" style="stroke:#181818;stroke-width:1;"/><polygon fill="#181818" points="881.12,204.7579,889.8235,200.1482,884.2072,200.8249,883.5306,195.2086,881.12,204.7579" style="stroke:#181818;stroke-width:1;"/></g><!--link Copywriter to UC_CALENDAR--><g class="link" data-entity-1="Copywriter" data-entity-2="UC_CALENDAR" data-source-line="73" data-uid="lnk47" id="link_Copywriter_UC_CALENDAR"><path d="M951.34,132.6679 C975.41,157.0479 1001.4138,183.369 1018.9938,201.169" fill="none" id="Copywriter-to-UC_CALENDAR" style="stroke:#181818;stroke-width:1;"/><polygon fill="#181818" points="1023.21,205.4379,1019.7317,196.2237,1019.6965,201.8805,1014.0398,201.8453,1023.21,205.4379" style="stroke:#181818;stroke-width:1;"/></g><!--link Copywriter to UC_WORKLOAD--><g class="link" data-entity-1="Copywriter" data-entity-2="UC_WORKLOAD" data-source-line="74" data-uid="lnk48" id="link_Copywriter_UC_WORKLOAD"><path d="M878.2,122.1579 C865.85,130.0879 851.67,138.1379 837.77,143.6979 C778.61,167.3579 602.7009,197.9066 517.1209,211.9466" fill="none" id="Copywriter-to-UC_WORKLOAD" style="stroke:#181818;stroke-width:1;"/><polygon fill="#181818" points="511.2,212.9179,520.7288,215.4081,516.134,212.1085,519.4337,207.5136,511.2,212.9179" style="stroke:#181818;stroke-width:1;"/></g><!--link Copywriter to UC_HANDOFF--><g class="link" data-entity-1="Copywriter" data-entity-2="UC_HANDOFF" data-source-line="75" data-uid="lnk49" id="link_Copywriter_UC_HANDOFF"><path d="M878.32,120.1979 C865.74,128.1779 851.39,136.7579 837.77,143.6979 C786.99,169.5779 730.9768,191.1296 692.1968,205.0596" fill="none" id="Copywriter-to-UC_HANDOFF" style="stroke:#181818;stroke-width:1;"/><polygon fill="#181818" points="686.55,207.0879,696.3724,207.8099,691.2556,205.3976,693.6679,200.2809,686.55,207.0879" style="stroke:#181818;stroke-width:1;"/></g><!--SRC=[XPLTZjem4CVVSuhHlcpxm1wWMY5P9B3fOe8WMrwGa3Snu1BiA0b5NA07w15xaZfER2Tnf3uWPC_F__5yU5AnAgE0IN6X5UCdG2VAauVdaQGI1JoX914tNkqv9foSQF44f0I4jTcSwmFO03ujsOctstgXZJEHF-u5grgpNNhUCqmc4tajnk5MKaX8ISjwovEhUY4FasjEf5ofpdxC3ZE4roXShBf8HdbA2aiiWvMFDfQGbtv0aZ7AAwE3FvPnQ96OaYjaWgJQleisxyi8-Hq_IW3EXAVYUDJS6rhvqNokOmbvajrIca9AAyAo4hwKx9fdzAiAwnbCFDtRNIZaXVX94tkzzIRwFa0gKbwCFKRRzwq55eMuvV3vsFEaTQ31nIRwM7lASvCcUsXBAQIaeaPq6mG77yL1HnYBNmC8Hpyq9LMxgRMdvYoJzMtkespwy3nSneVPCWnMyIYT5qp8tdZq-FKch5sP4lKZk9_5dfybVZyJusVt5iaVYWU1g1Jk-IUjxfHooAcGfUa5rkIrJbUlsbPdLxVkdgUqJ0gMLqpOrlI3xSo2A4tXo3ARE1bBaxEwJrZJ9r3GZ2WHrH-T_eQNbwbk1FW6hw_jYUbqZ5BN_Z-ccc60UPqdepdJ26EIVTIsmuYkUcIQxDJUbNL9MVKHHVqiDQeBxIeEILlU4Tds5MkshgIhE81KFOTQJNLHFVbA-Flx3rpTuOQm_9lsXfdTQkQINPivPBVCoC6kK7Uh7ODue8rTRUngwodkU70DhP-XmQWF3SQ7_HGuNiPChH_NP3ov9kth7m00]--></g></svg>