<svg xmlns="http://www.w3.org/2000/svg" xmlns:xlink="http://www.w3.org/1999/xlink" contentStyleType="text/css" data-diagram-type="DESCRIPTION" height="383px" preserveAspectRatio="none" style="width:1465px;height:383px;background:#FFFFFF;" version="1.1" viewBox="0 0 1465 383" width="1465px" zoomAndPan="magnify"><title>Startup Product Launch</title><defs/><g><g class="title" data-source-line="2"><text fill="#000000" font-family="sans-serif" font-size="14" font-weight="bold" lengthAdjust="spacing" textLength="166.3194" x="642.7778" y="24.9659">Startup Product Launch</text></g><!--entity Founder--><g class="entity" data-entity="Founder" data-source-line="4" data-uid="ent0002" id="entity_Founder"><ellipse cx="580.8739" cy="63.6079" fill="#F1F1F1" rx="8" ry="8" style="stroke:#181818;stroke-width:0.5;"/><path d="M580.8739,71.6079 L580.8739,98.6079 M567.8739,79.6079 L593.8739,79.6079 M580.8739,98.6079 L567.8739,113.6079 M580.8739,98.6079 L593.8739,113.6079" fill="none" style="stroke:#181818;stroke-width:0.5;"/><text fill="#000000" font-family="sans-serif" font-size="14" lengthAdjust="spacing" textLength="55.3278" x="553.21" y="130.0739">Founder</text></g><!--entity PM--><g class="entity" data-entity="PM" data-source-line="5" data-uid="ent0003" id="entity_PM"><ellipse cx="672.8729" cy="54.0679" fill="#F1F1F1" rx="8" ry="8" style="stroke:#181818;stroke-width:0.5;"/><path d="M672.8729,62.0679 L672.8729,89.0679 M659.8729,70.0679 L685.8729,70.0679 M672.8729,89.0679 L659.8729,104.0679 M672.8729,89.0679 L685.8729,104.0679" fill="none" style="stroke:#181818;stroke-width:0.5;"/><text fill="#000000" font-family="sans-serif" font-size="14" lengthAdjust="spacing" textLength="51.7578" x="643.2" y="120.5339">Product</text><text fill="#000000" font-family="sans-serif" font-size="14" lengthAdjust="spacing" textLength="59.3458" x="643.2" y="139.6018">Manager</text></g><!--entity Dev--><g class="entity" data-entity="Dev" data-source-line="6" data-uid="ent0004" id="entity_Dev"><ellipse cx="455.8769" cy="63.6079" fill="#F1F1F1" rx="8" ry="8" style="stroke:#181818;stroke-width:0.5;"/><path d="M455.8769,71.6079 L455.8769,98.6079 M442.8769,79.6079 L468.8769,79.6079 M455.8769,98.6079 L442.8769,113.6079 M455.8769,98.6079 L468.8769,113.6079" fill="none" style="stroke:#181818;stroke-width:0.5;"/><text fill="#000000" font-family="sans-serif" font-size="14" lengthAdjust="spacing" textLength="67.4937" x="422.13" y="130.0739">Developer</text></g><!--entity Designer--><g class="entity" data-entity="Designer" data-source-line="7" data-uid="ent0005" id="entity_Designer"><ellipse cx="766.8769" cy="63.6079" fill="#F1F1F1" rx="8" ry="8" style="stroke:#181818;stroke-width:0.5;"/><path d="M766.8769,71.6079 L766.8769,98.6079 M753.8769,79.6079 L779.8769,79.6079 M766.8769,98.6079 L753.8769,113.6079 M766.8769,98.6079 L779.8769,113.6079" fill="none" style="stroke:#181818;stroke-width:0.5;"/><text fill="#000000" font-family="sans-serif" font-size="14" lengthAdjust="spacing" textLength="59.3738" x="737.19" y="130.0739">Designer</text></g><!--entity Marketing--><g class="entity" data-entity="Marketing" data-source-line="8" data-uid="ent0006" id="entity_Marketing"><ellipse cx="1075.8769" cy="63.6079" fill="#F1F1F1" rx="8" ry="8" style="stroke:#181818;stroke-width:0.5;"/><path d="M1075.8769,71.6079 L1075.8769,98.6079 M1062.8769,79.6079 L1088.8769,79.6079 M1075.8769,98.6079 L1062.8769,113.6079 M1075.8769,98.6079 L1088.8769,113.6079" fill="none" style="stroke:#181818;stroke-width:0.5;"/><text fill="#000000" font-family="sans-serif" font-size="14" lengthAdjust="spacing" textLength="67.6337" x="1042.06" y="130.0739">Marketing</text></g><!--entity Stakeholder--><g class="entity" data-entity="Stakeholder" data-source-line="9" data-uid="ent0007" id="entity_Stakeholder"><ellipse cx="1183.8739" cy="63.6079" fill="#F1F1F1" rx="8" ry="8" style="stroke:#181818;stroke-width:0.5;"/><path d="M1183.8739,71.6079 L1183.8739,98.6079 M1170.8739,79.6079 L1196.8739,79.6079 M1183.8739,98.6079 L1170.8739,113.6079 M1183.8739,98.6079 L1196.8739,113.6079" fill="none" style="stroke:#181818;stroke-width:0.5;"/><text fill="#000000" font-family="sans-serif" font-size="14" lengthAdjust="spacing" textLength="78.9877" x="1144.38" y="130.0739">Stakeholder</text></g><!--entity UC_MVP--><g class="entity" data-entity="UC_MVP" data-source-line="12" data-uid="ent0008" id="entity_UC_MVP"><ellipse cx="467.869" cy="222.541" fill="#F1F1F1" rx="65.129" ry="16.4831" style="stroke:#181818;stroke-width:0.5;"/><text fill="#000000" font-family="sans-serif" font-size="14" lengthAdjust="spacing" textLength="87.8637" x="423.9372" y="228.5749">MVP features</text></g><!--entity UC_CROSS--><g class="entity" data-entity="UC_CROSS" data-source-line="13" data-uid="ent0009" id="entity_UC_CROSS"><ellipse cx="668.8702" cy="222.542" fill="#F1F1F1" rx="76.2702" ry="17.654" style="stroke:#181818;stroke-width:0.5;"/><text fill="#000000" font-family="sans-serif" font-size="14" lengthAdjust="spacing" textLength="111.2856" x="613.2275" y="228.5759">Cross-team work</text></g><!--entity UC_LAUNCH--><g class="entity" data-entity="UC_LAUNCH" data-source-line="14" data-uid="ent0010" id="entity_UC_LAUNCH"><ellipse cx="919.8738" cy="222.541" fill="#F1F1F1" rx="52.8438" ry="16.4831" style="stroke:#181818;stroke-width:0.5;"/><text fill="#000000" font-family="sans-serif" font-size="14" lengthAdjust="spacing" textLength="70.4897" x="884.6289" y="228.5749">Launch list</text></g><!--entity UC_PROGRESS--><g class="entity" data-entity="UC_PROGRESS" data-source-line="15" data-uid="ent0011" id="entity_UC_PROGRESS"><ellipse cx="1159.8747" cy="222.541" fill="#F1F1F1" rx="63.5847" ry="16.4831" style="stroke:#181818;stroke-width:0.5;"/><text fill="#000000" font-family="sans-serif" font-size="14" lengthAdjust="spacing" textLength="85.6797" x="1117.0348" y="228.5749">See progress</text></g><!--entity UC_POSTBUGS--><g class="entity" data-entity="UC_POSTBUGS" data-source-line="16" data-uid="ent0012" id="entity_UC_POSTBUGS"><ellipse cx="290.8705" cy="222.536" fill="#F1F1F1" rx="77.1405" ry="17.8281" style="stroke:#181818;stroke-width:0.5;"/><text fill="#000000" font-family="sans-serif" font-size="14" lengthAdjust="spacing" textLength="113.5676" x="234.0867" y="228.57">Post-launch bugs</text></g><!--entity UC_BACKLOG--><g class="entity" data-entity="UC_BACKLOG" data-source-line="21" data-uid="ent0013" id="entity_UC_BACKLOG"><ellipse cx="304.8677" cy="348.631" fill="#F1F1F1" rx="39.6577" ry="16.4831" style="stroke:#181818;stroke-width:0.5;"/><text fill="#000000" font-family="sans-serif" font-size="14" lengthAdjust="spacing" textLength="51.8418" x="278.9468" y="354.6649">Backlog</text></g><!--entity UC_DONE--><g class="entity" data-entity="UC_DONE" data-source-line="22" data-uid="ent0014" id="entity_UC_DONE"><ellipse cx="417.8705" cy="348.6262" fill="#F1F1F1" rx="38.1605" ry="28.1383" style="stroke:#181818;stroke-width:0.5;"/><text fill="#000000" font-family="sans-serif" font-size="14" lengthAdjust="spacing" textLength="53.3398" x="391.2006" y="347.8128">Move to</text><text fill="#000000" font-family="sans-serif" font-size="14" lengthAdjust="spacing" textLength="35.2379" x="400.2515" y="366.8807">Done</text></g><!--entity UC_TO_DEV--><g class="entity" data-entity="UC_TO_DEV" data-source-line="25" data-uid="ent0015" id="entity_UC_TO_DEV"><ellipse cx="666.8711" cy="348.6272" fill="#F1F1F1" rx="41.4511" ry="27.2793" style="stroke:#181818;stroke-width:0.5;"/><text fill="#000000" font-family="sans-serif" font-size="14" lengthAdjust="spacing" textLength="60.3958" x="636.6733" y="349.1652">Assign to</text><text fill="#000000" font-family="sans-serif" font-size="14" lengthAdjust="spacing" textLength="23.6179" x="655.0622" y="368.2331">dev</text></g><!--entity UC_TO_DESIGN--><g class="entity" data-entity="UC_TO_DESIGN" data-source-line="26" data-uid="ent0016" id="entity_UC_TO_DESIGN"><ellipse cx="786.8696" cy="348.6281" fill="#F1F1F1" rx="43.2896" ry="28.4402" style="stroke:#181818;stroke-width:0.5;"/><text fill="#000000" font-family="sans-serif" font-size="14" lengthAdjust="spacing" textLength="60.3958" x="756.6717" y="347.3551">Assign to</text><text fill="#000000" font-family="sans-serif" font-size="14" lengthAdjust="spacing" textLength="44.0858" x="764.8267" y="366.423">design</text></g><!--entity UC_TO_MKT--><g class="entity" data-entity="UC_TO_MKT" data-source-line="27" data-uid="ent0017" id="entity_UC_TO_MKT"><ellipse cx="540.8656" cy="348.63" fill="#F1F1F1" rx="49.8456" ry="29.2621" style="stroke:#181818;stroke-width:0.5;"/><text fill="#000000" font-family="sans-serif" font-size="14" lengthAdjust="spacing" textLength="60.3958" x="510.6677" y="344.1206">Assign to</text><text fill="#000000" font-family="sans-serif" font-size="14" lengthAdjust="spacing" textLength="68.0257" x="506.8527" y="363.1885">marketing</text></g><!--entity UC_LAUNCH_TASKS--><g class="entity" data-entity="UC_LAUNCH_TASKS" data-source-line="30" data-uid="ent0018" id="entity_UC_LAUNCH_TASKS"><ellipse cx="921.8669" cy="348.627" fill="#F1F1F1" rx="56.3569" ry="27.3091" style="stroke:#181818;stroke-width:0.5;"/><text fill="#000000" font-family="sans-serif" font-size="14" lengthAdjust="spacing" textLength="83.7057" x="880.014" y="349.1169">Make launch</text><text fill="#000000" font-family="sans-serif" font-size="14" lengthAdjust="spacing" textLength="33.7959" x="904.9689" y="368.1848">tasks</text></g><!--entity UC_LAUNCH_DATES--><g class="entity" data-entity="UC_LAUNCH_DATES" data-source-line="31" data-uid="ent0019" id="entity_UC_LAUNCH_DATES"><ellipse cx="1048.8713" cy="348.6314" fill="#F1F1F1" rx="35.9813" ry="28.4435" style="stroke:#181818;stroke-width:0.5;"/><text fill="#000000" font-family="sans-serif" font-size="14" lengthAdjust="spacing" textLength="49.4338" x="1024.1544" y="347.3534">Set due</text><text fill="#000000" font-family="sans-serif" font-size="14" lengthAdjust="spacing" textLength="36.1199" x="1030.8113" y="366.4213">dates</text></g><!--entity UC_LAUNCH_STATUS--><g class="entity" data-entity="UC_LAUNCH_STATUS" data-source-line="32" data-uid="ent0020" id="entity_UC_LAUNCH_STATUS"><ellipse cx="1153.8733" cy="348.6306" fill="#F1F1F1" rx="34.0533" ry="27.8427" style="stroke:#181818;stroke-width:0.5;"/><text fill="#000000" font-family="sans-serif" font-size="14" lengthAdjust="spacing" textLength="39.5918" x="1134.0774" y="345.0581">Check</text><text fill="#000000" font-family="sans-serif" font-size="14" lengthAdjust="spacing" textLength="40.0259" x="1133.8604" y="364.126">status</text></g><!--entity UC_PROG_BOARD--><g class="entity" data-entity="UC_PROG_BOARD" data-source-line="35" data-uid="ent0021" id="entity_UC_PROG_BOARD"><ellipse cx="1272.8728" cy="348.631" fill="#F1F1F1" rx="49.9828" ry="16.4831" style="stroke:#181818;stroke-width:0.5;"/><text fill="#000000" font-family="sans-serif" font-size="14" lengthAdjust="spacing" textLength="66.4438" x="1239.651" y="354.6649">See board</text></g><!--entity UC_PROG_CHARTS--><g class="entity" data-entity="UC_PROG_CHARTS" data-source-line="36" data-uid="ent0022" id="entity_UC_PROG_CHARTS"><ellipse cx="1408.8725" cy="348.631" fill="#F1F1F1" rx="51.0025" ry="16.4831" style="stroke:#181818;stroke-width:0.5;"/><text fill="#000000" font-family="sans-serif" font-size="14" lengthAdjust="spacing" textLength="67.8857" x="1374.9296" y="354.6649">See charts</text></g><!--entity UC_LOG_BUGS--><g class="entity" data-entity="UC_LOG_BUGS" data-source-line="39" data-uid="ent0023" id="entity_UC_LOG_BUGS"><ellipse cx="51.8746" cy="348.631" fill="#F1F1F1" rx="45.8746" ry="16.4831" style="stroke:#181818;stroke-width:0.5;"/><text fill="#000000" font-family="sans-serif" font-size="14" lengthAdjust="spacing" textLength="60.6338" x="21.5577" y="354.6649">Log bugs</text></g><!--entity UC_URGENT--><g class="entity" data-entity="UC_URGENT" data-source-line="40" data-uid="ent0024" id="entity_UC_URGENT"><ellipse cx="181.8728" cy="348.6317" fill="#F1F1F1" rx="48.7128" ry="28.2938" style="stroke:#181818;stroke-width:0.5;"/><text fill="#000000" font-family="sans-serif" font-size="14" lengthAdjust="spacing" textLength="68.9217" x="147.4119" y="347.5806">Set urgent</text><text fill="#000000" font-family="sans-serif" font-size="14" lengthAdjust="spacing" textLength="48.0618" x="157.8419" y="366.6485">priority</text></g><!--link UC_MVP to UC_BACKLOG--><g class="link" data-entity-1="UC_MVP" data-entity-2="UC_BACKLOG" data-source-line="43" data-uid="lnk25" id="link_UC_MVP_UC_BACKLOG"><path d="M429.21,236.0079 C408.75,243.8079 383.99,255.2679 364.87,270.3679 C342.75,287.8379 327.2127,310.0146 316.8327,327.0446" fill="none" id="UC_MVP-to-UC_BACKLOG" style="stroke:#181818;stroke-width:1;stroke-dasharray:7,7;"/><polygon fill="#181818" points="313.71,332.1679,321.8097,326.5647,316.3123,327.8985,314.9785,322.4011,313.71,332.1679" style="stroke:#181818;stroke-width:1;"/><text fill="#000000" font-family="sans-serif" font-size="13" lengthAdjust="spacing" textLength="57.5771" x="365.87" y="285.2649">&#171;include&#187;</text></g><!--link UC_MVP to UC_DONE--><g class="link" data-entity-1="UC_MVP" data-entity-2="UC_DONE" data-source-line="44" data-uid="lnk26" id="link_UC_MVP_UC_DONE"><path d="M456.75,238.9479 C450.78,247.7979 443.68,259.3179 438.87,270.3679 C431.89,286.4279 428.0458,299.5508 424.5658,314.6708" fill="none" id="UC_MVP-to-UC_DONE" style="stroke:#181818;stroke-width:1;stroke-dasharray:7,7;"/><polygon fill="#181818" points="423.22,320.5179,429.1367,312.6444,424.3415,315.6453,421.3406,310.85,423.22,320.5179" style="stroke:#181818;stroke-width:1;"/><text fill="#000000" font-family="sans-serif" font-size="13" lengthAdjust="spacing" textLength="57.5771" x="439.87" y="285.2649">&#171;include&#187;</text></g><!--link UC_CROSS to UC_TO_DEV--><g class="link" data-entity-1="UC_CROSS" data-entity-2="UC_TO_DEV" data-source-line="46" data-uid="lnk27" id="link_UC_CROSS_UC_TO_DEV"><path d="M668.6,240.5279 C668.27,261.2379 667.796,290.4787 667.406,314.8487" fill="none" id="UC_CROSS-to-UC_TO_DEV" style="stroke:#181818;stroke-width:1;stroke-dasharray:7,7;"/><polygon fill="#181818" points="667.31,320.8479,671.4535,311.9131,667.39,315.8486,663.4545,311.7851,667.31,320.8479" style="stroke:#181818;stroke-width:1;"/><text fill="#000000" font-family="sans-serif" font-size="13" lengthAdjust="spacing" textLength="57.5771" x="669.11" y="285.2649">&#171;include&#187;</text></g><!--link UC_CROSS to UC_TO_DESIGN--><g class="link" data-entity-1="UC_CROSS" data-entity-2="UC_TO_DESIGN" data-source-line="47" data-uid="lnk28" id="link_UC_CROSS_UC_TO_DESIGN"><path d="M695.64,239.3479 C708.37,247.6179 723.3,258.4979 734.87,270.3679 C749.78,285.6379 760.0698,300.5529 769.5098,316.4029" fill="none" id="UC_CROSS-to-UC_TO_DESIGN" style="stroke:#181818;stroke-width:1;stroke-dasharray:7,7;"/><polygon fill="#181818" points="772.58,321.5579,771.4113,311.7786,770.0215,317.2621,764.538,315.8723,772.58,321.5579" style="stroke:#181818;stroke-width:1;"/><text fill="#000000" font-family="sans-serif" font-size="13" lengthAdjust="spacing" textLength="57.5771" x="750.82" y="285.2649">&#171;include&#187;</text></g><!--link UC_CROSS to UC_TO_MKT--><g class="link" data-entity-1="UC_CROSS" data-entity-2="UC_TO_MKT" data-source-line="48" data-uid="lnk29" id="link_UC_CROSS_UC_TO_MKT"><path d="M641.95,239.3479 C628.84,247.7079 613.28,258.6479 600.87,270.3679 C584.82,285.5179 573.0602,300.3062 561.9702,316.0162" fill="none" id="UC_CROSS-to-UC_TO_MKT" style="stroke:#181818;stroke-width:1;stroke-dasharray:7,7;"/><polygon fill="#181818" points="558.51,320.9179,566.9681,315.8722,561.3935,316.8331,560.4325,311.2585,558.51,320.9179" style="stroke:#181818;stroke-width:1;"/><text fill="#000000" font-family="sans-serif" font-size="13" lengthAdjust="spacing" textLength="57.5771" x="601.87" y="285.2649">&#171;include&#187;</text></g><!--link UC_LAUNCH to UC_LAUNCH_TASKS--><g class="link" data-entity-1="UC_LAUNCH" data-entity-2="UC_LAUNCH_TASKS" data-source-line="50" data-uid="lnk30" id="link_UC_LAUNCH_UC_LAUNCH_TASKS"><path d="M920.13,239.5079 C920.46,260.0579 920.9432,290.0687 921.3432,314.8487" fill="none" id="UC_LAUNCH-to-UC_LAUNCH_TASKS" style="stroke:#181818;stroke-width:1;stroke-dasharray:7,7;"/><polygon fill="#181818" points="921.44,320.8479,925.2942,311.7845,921.3593,315.8486,917.2953,311.9136,921.44,320.8479" style="stroke:#181818;stroke-width:1;"/><text fill="#000000" font-family="sans-serif" font-size="13" lengthAdjust="spacing" textLength="57.5771" x="921.93" y="285.2649">&#171;include&#187;</text></g><!--link UC_LAUNCH to UC_LAUNCH_DATES--><g class="link" data-entity-1="UC_LAUNCH" data-entity-2="UC_LAUNCH_DATES" data-source-line="51" data-uid="lnk31" id="link_UC_LAUNCH_UC_LAUNCH_DATES"><path d="M943.83,237.5379 C957.48,246.1179 974.48,257.8179 987.87,270.3679 C1004.84,286.2579 1017.5072,302.1822 1028.9272,318.2022" fill="none" id="UC_LAUNCH-to-UC_LAUNCH_DATES" style="stroke:#181818;stroke-width:1;stroke-dasharray:7,7;"/><polygon fill="#181818" points="1032.41,323.0879,1030.4429,313.4375,1029.5077,319.0165,1023.9287,318.0812,1032.41,323.0879" style="stroke:#181818;stroke-width:1;"/><text fill="#000000" font-family="sans-serif" font-size="13" lengthAdjust="spacing" textLength="57.5771" x="1005.69" y="285.2649">&#171;include&#187;</text></g><!--link UC_LAUNCH to UC_LAUNCH_STATUS--><g class="link" data-entity-1="UC_LAUNCH" data-entity-2="UC_LAUNCH_STATUS" data-source-line="52" data-uid="lnk32" id="link_UC_LAUNCH_UC_LAUNCH_STATUS"><path d="M964.64,231.6879 C996.14,238.7279 1038.47,250.9079 1071.87,270.3679 C1096.55,284.7279 1115.7504,303.3654 1131.1404,320.5754" fill="none" id="UC_LAUNCH-to-UC_LAUNCH_STATUS" style="stroke:#181818;stroke-width:1;stroke-dasharray:7,7;"/><polygon fill="#181818" points="1135.14,325.0479,1132.1224,315.6727,1131.807,321.3208,1126.159,321.0055,1135.14,325.0479" style="stroke:#181818;stroke-width:1;"/><text fill="#000000" font-family="sans-serif" font-size="13" lengthAdjust="spacing" textLength="57.5771" x="1098.02" y="285.2649">&#171;include&#187;</text></g><!--link UC_PROGRESS to UC_PROG_BOARD--><g class="link" data-entity-1="UC_PROGRESS" data-entity-2="UC_PROG_BOARD" data-source-line="54" data-uid="lnk33" id="link_UC_PROGRESS_UC_PROG_BOARD"><path d="M1182.47,238.2179 C1194.64,246.7479 1209.45,258.1979 1220.87,270.3679 C1238.92,289.5679 1252.0997,310.4247 1261.4497,326.8347" fill="none" id="UC_PROGRESS-to-UC_PROG_BOARD" style="stroke:#181818;stroke-width:1;stroke-dasharray:7,7;"/><polygon fill="#181818" points="1264.42,332.0479,1263.4399,322.2479,1261.9447,327.7036,1256.4891,326.2084,1264.42,332.0479" style="stroke:#181818;stroke-width:1;"/><text fill="#000000" font-family="sans-serif" font-size="13" lengthAdjust="spacing" textLength="57.5771" x="1236.61" y="285.2649">&#171;include&#187;</text></g><!--link UC_PROGRESS to UC_PROG_CHARTS--><g class="link" data-entity-1="UC_PROGRESS" data-entity-2="UC_PROG_CHARTS" data-source-line="55" data-uid="lnk34" id="link_UC_PROGRESS_UC_PROG_CHARTS"><path d="M1205.12,234.4379 C1234,242.3279 1271.71,254.4079 1302.87,270.3679 C1336.93,287.7979 1367.3724,311.7373 1387.4124,328.8073" fill="none" id="UC_PROGRESS-to-UC_PROG_CHARTS" style="stroke:#181818;stroke-width:1;stroke-dasharray:7,7;"/><polygon fill="#181818" points="1391.98,332.6979,1387.7224,323.8169,1388.1737,329.4557,1382.5349,329.907,1391.98,332.6979" style="stroke:#181818;stroke-width:1;"/><text fill="#000000" font-family="sans-serif" font-size="13" lengthAdjust="spacing" textLength="57.5771" x="1334.83" y="285.2649">&#171;include&#187;</text></g><!--link UC_POSTBUGS to UC_LOG_BUGS--><g class="link" data-entity-1="UC_POSTBUGS" data-entity-2="UC_LOG_BUGS" data-source-line="57" data-uid="lnk35" id="link_UC_POSTBUGS_UC_LOG_BUGS"><path d="M227.73,233.0479 C195.29,239.9279 156.13,251.4479 124.87,270.3679 C98.35,286.4179 78.7346,309.8296 65.9546,327.3596" fill="none" id="UC_POSTBUGS-to-UC_LOG_BUGS" style="stroke:#181818;stroke-width:1;stroke-dasharray:7,7;"/><polygon fill="#181818" points="62.42,332.2079,70.9542,327.2918,65.3655,328.1676,64.4897,322.579,62.42,332.2079" style="stroke:#181818;stroke-width:1;"/><text fill="#000000" font-family="sans-serif" font-size="13" lengthAdjust="spacing" textLength="57.5771" x="125.87" y="285.2649">&#171;include&#187;</text></g><!--link UC_POSTBUGS to UC_URGENT--><g class="link" data-entity-1="UC_POSTBUGS" data-entity-2="UC_URGENT" data-source-line="58" data-uid="lnk36" id="link_UC_POSTBUGS_UC_URGENT"><path d="M248.34,237.7479 C232.02,245.1379 214.53,255.7579 202.87,270.3679 C191.6,284.4879 187.2584,298.2556 184.8384,314.2356" fill="none" id="UC_POSTBUGS-to-UC_URGENT" style="stroke:#181818;stroke-width:1;stroke-dasharray:7,7;"/><polygon fill="#181818" points="183.94,320.1679,189.2425,311.8683,184.6887,315.2243,181.3327,310.6704,183.94,320.1679" style="stroke:#181818;stroke-width:1;"/><text fill="#000000" font-family="sans-serif" font-size="13" lengthAdjust="spacing" textLength="57.5771" x="203.87" y="285.2649">&#171;include&#187;</text></g><!--link Founder to UC_MVP--><g class="link" data-entity-1="Founder" data-entity-2="UC_MVP" data-source-line="62" data-uid="lnk37" id="link_Founder_UC_MVP"><path d="M552.94,126.7579 C530.33,151.9579 503.4373,181.9123 485.7773,201.5923" fill="none" id="Founder-to-UC_MVP" style="stroke:#181818;stroke-width:1;"/><polygon fill="#181818" points="481.77,206.0579,490.758,202.031,485.1094,202.3366,484.8038,196.688,481.77,206.0579" style="stroke:#181818;stroke-width:1;"/></g><!--link Founder to UC_CROSS--><g class="link" data-entity-1="Founder" data-entity-2="UC_CROSS" data-source-line="63" data-uid="lnk38" id="link_Founder_UC_CROSS"><path d="M608,134.4379 C624.46,157.9979 641.2027,181.9401 653.6927,199.8101" fill="none" id="Founder-to-UC_CROSS" style="stroke:#181818;stroke-width:1;"/><polygon fill="#181818" points="657.13,204.7279,655.2527,195.0596,654.2656,200.6297,648.6955,199.6427,657.13,204.7279" style="stroke:#181818;stroke-width:1;"/></g><!--link Founder to UC_LAUNCH--><g class="link" data-entity-1="Founder" data-entity-2="UC_LAUNCH" data-source-line="64" data-uid="lnk39" id="link_Founder_UC_LAUNCH"><path d="M608.96,131.3679 C614.13,136.1479 619.82,140.4879 625.87,143.7079 C701,183.5779 733.43,149.1879 814.87,173.7079 C843.26,182.2579 868.5981,194.1371 889.4181,204.9771" fill="none" id="Founder-to-UC_LAUNCH" style="stroke:#181818;stroke-width:1;"/><polygon fill="#181818" points="894.74,207.7479,888.6044,200.0437,890.3051,205.4389,884.9099,207.1396,894.74,207.7479" style="stroke:#181818;stroke-width:1;"/></g><!--link Founder to UC_PROGRESS--><g class="link" data-entity-1="Founder" data-entity-2="UC_PROGRESS" data-source-line="65" data-uid="lnk40" id="link_Founder_UC_PROGRESS"><path d="M608.91,131.4779 C614.08,136.2379 619.79,140.5479 625.87,143.7079 C711.92,188.3079 745.95,159.8379 841.87,173.7079 C934.98,187.1779 1037.3591,202.7299 1100.5191,212.3999" fill="none" id="Founder-to-UC_PROGRESS" style="stroke:#181818;stroke-width:1;"/><polygon fill="#181818" points="1106.45,213.3079,1098.159,207.9919,1101.5076,212.5512,1096.9483,215.8998,1106.45,213.3079" style="stroke:#181818;stroke-width:1;"/></g><!--link Founder to UC_POSTBUGS--><g class="link" data-entity-1="Founder" data-entity-2="UC_POSTBUGS" data-source-line="66" data-uid="lnk41" id="link_Founder_UC_POSTBUGS"><path d="M552.97,115.9479 C539.48,125.1879 522.79,135.8079 506.87,143.7079 C450.83,171.5479 388.0194,192.759 343.3894,206.359" fill="none" id="Founder-to-UC_POSTBUGS" style="stroke:#181818;stroke-width:1;"/><polygon fill="#181818" points="337.65,208.1079,347.4251,209.3108,342.4329,206.6504,345.0932,201.6582,337.65,208.1079" style="stroke:#181818;stroke-width:1;"/></g><!--link PM to UC_MVP--><g class="link" data-entity-1="PM" data-entity-2="UC_MVP" data-source-line="68" data-uid="lnk42" id="link_PM_UC_MVP"><path d="M642.9,129.2979 C637.51,134.4479 631.73,139.4579 625.87,143.7079 C587,171.8779 541.9417,192.5169 508.6117,206.0069" fill="none" id="PM-to-UC_MVP" style="stroke:#181818;stroke-width:1;"/><polygon fill="#181818" points="503.05,208.2579,512.8933,208.5892,507.6848,206.382,509.8919,201.1735,503.05,208.2579" style="stroke:#181818;stroke-width:1;"/></g><!--link PM to UC_CROSS--><g class="link" data-entity-1="PM" data-entity-2="UC_CROSS" data-source-line="69" data-uid="lnk43" id="link_PM_UC_CROSS"><path d="M671.34,143.9579 C670.66,165.3079 670.1031,183.051 669.6031,198.581" fill="none" id="PM-to-UC_CROSS" style="stroke:#181818;stroke-width:1;"/><polygon fill="#181818" points="669.41,204.5779,673.6975,195.7113,669.5709,199.5805,665.7017,195.4539,669.41,204.5779" style="stroke:#181818;stroke-width:1;"/></g><!--link PM to UC_LAUNCH--><g class="link" data-entity-1="PM" data-entity-2="UC_LAUNCH" data-source-line="70" data-uid="lnk44" id="link_PM_UC_LAUNCH"><path d="M702.84,131.2879 C708.11,136.0079 713.85,140.3679 719.87,143.7079 C773.99,173.7579 799.6,147.9379 855.87,173.7079 C873.78,181.9079 886.9991,191.7832 899.2391,202.4632" fill="none" id="PM-to-UC_LAUNCH" style="stroke:#181818;stroke-width:1;"/><polygon fill="#181818" points="903.76,206.4079,899.6084,197.4768,899.9925,203.1206,894.3487,203.5048,903.76,206.4079" style="stroke:#181818;stroke-width:1;"/></g><!--link PM to UC_PROGRESS--><g class="link" data-entity-1="PM" data-entity-2="UC_PROGRESS" data-source-line="71" data-uid="lnk45" id="link_PM_UC_PROGRESS"><path d="M702.78,132.1579 C708.02,136.7079 713.77,140.7779 719.87,143.7079 C840.64,201.7679 888.95,145.1979 1019.87,173.7079 C1057.52,181.9079 1093.5275,194.7188 1121.5275,205.7488" fill="none" id="PM-to-UC_PROGRESS" style="stroke:#181818;stroke-width:1;"/><polygon fill="#181818" points="1127.11,207.9479,1120.2024,200.9276,1122.4579,206.1153,1117.2702,208.3709,1127.11,207.9479" style="stroke:#181818;stroke-width:1;"/></g><!--link PM to UC_POSTBUGS--><g class="link" data-entity-1="PM" data-entity-2="UC_POSTBUGS" data-source-line="72" data-uid="lnk46" id="link_PM_UC_POSTBUGS"><path d="M642.88,131.2279 C637.61,135.9579 631.88,140.3279 625.87,143.7079 C601.74,157.2879 442.5696,190.8519 353.4896,208.9719" fill="none" id="PM-to-UC_POSTBUGS" style="stroke:#181818;stroke-width:1;"/><polygon fill="#181818" points="347.61,210.1679,357.2267,212.2937,352.5097,209.1713,355.6321,204.4542,347.61,210.1679" style="stroke:#181818;stroke-width:1;"/></g><!--link Dev to UC_MVP--><g class="link" data-entity-1="Dev" data-entity-2="UC_MVP" data-source-line="74" data-uid="lnk47" id="link_Dev_UC_MVP"><path d="M448.12,134.4779 C446.69,147.3579 446.34,161.7279 448.87,174.7079 C450.99,185.5579 453.0893,191.6324 457.2493,200.5324" fill="none" id="Dev-to-UC_MVP" style="stroke:#181818;stroke-width:1;"/><polygon fill="#181818" points="459.79,205.9679,459.6027,196.1208,457.6728,201.4383,452.3553,199.5084,459.79,205.9679" style="stroke:#181818;stroke-width:1;"/></g><!--link Dev to UC_CROSS--><g class="link" data-entity-1="Dev" data-entity-2="UC_CROSS" data-source-line="75" data-uid="lnk48" id="link_Dev_UC_CROSS"><path d="M490.08,116.3079 C504.23,124.8279 520.82,134.7779 535.87,143.7079 C572.35,165.3379 609.4532,187.0018 636.3832,202.6618" fill="none" id="Dev-to-UC_CROSS" style="stroke:#181818;stroke-width:1;"/><polygon fill="#181818" points="641.57,205.6779,635.8006,197.6958,637.2477,203.1645,631.779,204.6115,641.57,205.6779" style="stroke:#181818;stroke-width:1;"/></g><!--link Dev to UC_LAUNCH--><g class="link" data-entity-1="Dev" data-entity-2="UC_LAUNCH" data-source-line="76" data-uid="lnk49" id="link_Dev_UC_LAUNCH"><path d="M489.99,119.6479 C503.71,128.3579 520.02,137.5479 535.87,143.7079 C650.64,188.2879 789.1153,208.0878 863.8953,216.2378" fill="none" id="Dev-to-UC_LAUNCH" style="stroke:#181818;stroke-width:1;"/><polygon fill="#181818" points="869.86,216.8879,861.3464,211.9364,864.8894,216.3462,860.4796,219.8893,869.86,216.8879" style="stroke:#181818;stroke-width:1;"/></g><!--link Dev to UC_POSTBUGS--><g class="link" data-entity-1="Dev" data-entity-2="UC_POSTBUGS" data-source-line="77" data-uid="lnk50" id="link_Dev_UC_POSTBUGS"><path d="M421.94,118.8279 C400.15,133.9879 371.43,154.4779 346.87,173.7079 C334.09,183.7179 324.7268,191.6184 313.9768,201.0184" fill="none" id="Dev-to-UC_POSTBUGS" style="stroke:#181818;stroke-width:1;"/><polygon fill="#181818" points="309.46,204.9679,318.8682,202.0548,313.224,201.6766,313.6021,196.0324,309.46,204.9679" style="stroke:#181818;stroke-width:1;"/></g><!--link Designer to UC_MVP--><g class="link" data-entity-1="Designer" data-entity-2="UC_MVP" data-source-line="79" data-uid="lnk51" id="link_Designer_UC_MVP"><path d="M736.92,130.6079 C731.61,135.4779 725.85,140.0579 719.87,143.7079 C657.54,181.7579 580.9509,201.4691 527.6209,211.7791" fill="none" id="Designer-to-UC_MVP" style="stroke:#181818;stroke-width:1;"/><polygon fill="#181818" points="521.73,212.9179,531.3256,215.1369,526.6391,211.9689,529.8071,207.2823,521.73,212.9179" style="stroke:#181818;stroke-width:1;"/></g><!--link Designer to UC_CROSS--><g class="link" data-entity-1="Designer" data-entity-2="UC_CROSS" data-source-line="80" data-uid="lnk52" id="link_Designer_UC_CROSS"><path d="M754.92,134.5179 C749.55,148.1079 742.28,162.8979 732.87,174.7079 C723.01,187.0879 714.1159,194.5207 701.7859,202.5607" fill="none" id="Designer-to-UC_CROSS" style="stroke:#181818;stroke-width:1;"/><polygon fill="#181818" points="696.76,205.8379,706.4837,204.2727,700.9483,203.1069,702.114,197.5715,696.76,205.8379" style="stroke:#181818;stroke-width:1;"/></g><!--link Designer to UC_LAUNCH--><g class="link" data-entity-1="Designer" data-entity-2="UC_LAUNCH" data-source-line="81" data-uid="lnk53" id="link_Designer_UC_LAUNCH"><path d="M796.85,107.5679 C825.63,120.2879 868.77,142.8679 896.87,173.7079 C905.32,182.9679 909.1928,190.2626 912.9328,200.3426" fill="none" id="Designer-to-UC_LAUNCH" style="stroke:#181818;stroke-width:1;"/><polygon fill="#181818" points="915.02,205.9679,915.6395,196.1386,913.2807,201.2802,908.1391,198.9214,915.02,205.9679" style="stroke:#181818;stroke-width:1;"/></g><!--link Marketing to UC_CROSS--><g class="link" data-entity-1="Marketing" data-entity-2="UC_CROSS" data-source-line="83" data-uid="lnk54" id="link_Marketing_UC_CROSS"><path d="M1041.87,106.1579 C968.51,128.8479 801.1122,180.6354 719.1322,205.9854" fill="none" id="Marketing-to-UC_CROSS" style="stroke:#181818;stroke-width:1;"/><polygon fill="#181818" points="713.4,207.7579,723.18,208.9206,718.1768,206.2808,720.8166,201.2777,713.4,207.7579" style="stroke:#181818;stroke-width:1;"/></g><!--link Marketing to UC_LAUNCH--><g class="link" data-entity-1="Marketing" data-entity-2="UC_LAUNCH" data-source-line="84" data-uid="lnk55" id="link_Marketing_UC_LAUNCH"><path d="M1041.97,126.9079 C1025.4,141.8079 1004.96,159.6179 985.87,174.7079 C971.44,186.1179 959.4371,194.7229 946.3371,203.7129" fill="none" id="Marketing-to-UC_LAUNCH" style="stroke:#181818;stroke-width:1;"/><polygon fill="#181818" points="941.39,207.1079,951.074,205.3135,945.5126,204.2787,946.5473,198.7173,941.39,207.1079" style="stroke:#181818;stroke-width:1;"/></g><!--link Marketing to UC_PROGRESS--><g class="link" data-entity-1="Marketing" data-entity-2="UC_PROGRESS" data-source-line="85" data-uid="lnk56" id="link_Marketing_UC_PROGRESS"><path d="M1101.76,134.4379 C1117.86,158.5679 1134.3605,183.2865 1146.2005,201.0365" fill="none" id="Marketing-to-UC_PROGRESS" style="stroke:#181818;stroke-width:1;"/><polygon fill="#181818" points="1149.53,206.0279,1147.8634,196.3211,1146.7554,201.8684,1141.2081,200.7604,1149.53,206.0279" style="stroke:#181818;stroke-width:1;"/></g><!--link Stakeholder to UC_PROGRESS--><g class="link" data-entity-1="Stakeholder" data-entity-2="UC_PROGRESS" data-source-line="87" data-uid="lnk57" id="link_Stakeholder_UC_PROGRESS"><path d="M1176.48,134.4379 C1171.91,158.4279 1167.4037,182.0341 1164.0137,199.8141" fill="none" id="Stakeholder-to-UC_PROGRESS" style="stroke:#181818;stroke-width:1;"/><polygon fill="#181818" points="1162.89,205.7079,1168.5048,197.6163,1163.8264,200.7964,1160.6464,196.118,1162.89,205.7079" style="stroke:#181818;stroke-width:1;"/></g><!--SRC=[ZPLRZfim58RVMSNHlBHzo2oW6aKY99CPvG82Ca-H8W-u147io3PJTGDTG9VObTHW6soWQjyunvz_NyxlWoX5ZI4HY8dc3X6ZUPC9sAE6P5VFGvcW31wUQKDop1u0ST3VPaZFE9C38gZGJ7GmmslyWMjwrtaP3GEyB4YVLu4PF21MOL6IeXlj8pCiTrlXAwtDbgpOypx1Oh6GSqe23SUG8Ovvc_9ar0PI_Is2RnY9Xc7UpJy55vaRW81HpXS2enjyfwmoJ127IJ9GwewWBhamnDu_7OEN0KamXZkZXLoeNocAmssyiOKYoiMYLchlJJ6GOPAkJjl4dEcLP7MJunnoB51PS_ZCozkznb-wuqd8FjWWlq9PLTF2gAxyOBSFjzPrq0yCWfx9cX9ig7LutBIIewiOPlcyBLatBySVPbeQNjQRjxzGxQS39g_RuonxS-glyCCkRJTatRfr15b_K3Tu9WBnYhiLkQH-ialikWZ86omtXGGUisi_tLXiSCLPTIPSo7iTeqdgfwUkFdQbtVg_KyHok_YNLUZ7QnVAhlBzEHQv12z-d7RQOtzO5gI5uvXzgzuwnZbfmmfCv0kzivAoKlmmz2dURewfSLUft0KCrqYKbAX7evu6F3ukBU_0LtXwqlnoEM9Qvum0ppmUmoYRJ6McK6kHVtFI6pDBgY8Pp7R2L76MxPpmdwoomimkp7it_621gV8igummfwpxGxyJNVqPtH6fAZ-ML3xmsnxBuVVFNt2RDb5FjtyPB4tV7ALKcnmbTMSSPVjUECxtdIyws2iDaLfaYBN-aEYbhLIlAlz3jgmLAbqheOMjZ2sZVbkkbfipWcvMgthzhyt59sdDJ_BzAJth7pWP_0C0]--></g></svg>