<svg xmlns="http://www.w3.org/2000/svg" xmlns:xlink="http://www.w3.org/1999/xlink" contentStyleType="text/css" data-diagram-type="DESCRIPTION" height="966px" preserveAspectRatio="none" style="width:566px;height:966px;background:#FFFFFF;" version="1.1" viewBox="0 0 566 966" width="566px" zoomAndPan="magnify"><title>Marketing Agency</title><defs/><g><g class="title" data-source-line="3"><text fill="#000000" font-family="sans-serif" font-size="14" font-weight="bold" lengthAdjust="spacing" textLength="128.1695" x="212.0252" y="24.9659">Marketing Agency</text></g><!--cluster System--><g class="cluster" data-entity="System" data-source-line="9" data-uid="ent0004" id="cluster_System"><rect fill="none" height="913" rx="2.5" ry="2.5" style="stroke:#181818;stroke-width:1;" width="435.02" x="125.2" y="47.0679"/><text fill="#000000" font-family="sans-serif" font-size="14" font-weight="bold" lengthAdjust="spacing" textLength="199.2752" x="243.0724" y="64.0339">ALIGNIX - Marketing Agency</text></g><!--entity UC_CAMPAIGN--><g class="entity" data-entity="UC_CAMPAIGN" data-source-line="12" data-uid="ent0005" id="entity_UC_CAMPAIGN"><ellipse cx="210.0897" cy="476.071" fill="#F1F1F1" rx="55.2097" ry="16.4831" style="stroke:#181818;stroke-width:0.5;"/><text fill="#000000" font-family="sans-serif" font-size="14" lengthAdjust="spacing" textLength="73.8357" x="173.1719" y="482.1049">Campaigns</text></g><!--entity UC_CALENDAR--><g class="entity" data-entity="UC_CALENDAR" data-source-line="13" data-uid="ent0006" id="entity_UC_CALENDAR"><ellipse cx="210.0855" cy="163.071" fill="#F1F1F1" rx="44.7955" ry="16.4831" style="stroke:#181818;stroke-width:0.5;"/><text fill="#000000" font-family="sans-serif" font-size="14" lengthAdjust="spacing" textLength="59.1078" x="180.5316" y="169.1049">Calendar</text></g><!--entity UC_MULTI--><g class="entity" data-entity="UC_MULTI" data-source-line="14" data-uid="ent0007" id="entity_UC_MULTI"><ellipse cx="210.0894" cy="808.071" fill="#F1F1F1" rx="61.1494" ry="16.4831" style="stroke:#181818;stroke-width:0.5;"/><text fill="#000000" font-family="sans-serif" font-size="14" lengthAdjust="spacing" textLength="82.2357" x="168.9716" y="814.1049">Many clients</text></g><!--entity UC_WORKLOAD--><g class="entity" data-entity="UC_WORKLOAD" data-source-line="15" data-uid="ent0008" id="entity_UC_WORKLOAD"><ellipse cx="210.0858" cy="652.071" fill="#F1F1F1" rx="51.6558" ry="16.4831" style="stroke:#181818;stroke-width:0.5;"/><text fill="#000000" font-family="sans-serif" font-size="14" lengthAdjust="spacing" textLength="68.8097" x="175.681" y="658.1049">Team load</text></g><!--entity UC_HANDOFF--><g class="entity" data-entity="UC_HANDOFF" data-source-line="16" data-uid="ent0009" id="entity_UC_HANDOFF"><ellipse cx="210.0908" cy="353.071" fill="#F1F1F1" rx="68.8908" ry="16.4831" style="stroke:#181818;stroke-width:0.5;"/><text fill="#000000" font-family="sans-serif" font-size="14" lengthAdjust="spacing" textLength="93.1836" x="163.499" y="359.1049">Client handoff</text></g><!--entity UC_PROJ--><g class="entity" data-entity="UC_PROJ" data-source-line="19" data-uid="ent0010" id="entity_UC_PROJ"><ellipse cx="471.0963" cy="395.071" fill="#F1F1F1" rx="68.3463" ry="16.4831" style="stroke:#181818;stroke-width:0.5;"/><text fill="#000000" font-family="sans-serif" font-size="14" lengthAdjust="spacing" textLength="92.4137" x="424.8895" y="401.1049">Make projects</text></g><!--entity UC_TASKS--><g class="entity" data-entity="UC_TASKS" data-source-line="20" data-uid="ent0011" id="entity_UC_TASKS"><ellipse cx="471.1032" cy="557.071" fill="#F1F1F1" rx="54.8732" ry="16.4831" style="stroke:#181818;stroke-width:0.5;"/><text fill="#000000" font-family="sans-serif" font-size="14" lengthAdjust="spacing" textLength="73.3597" x="434.4233" y="563.1049">Make tasks</text></g><!--entity UC_GROUP--><g class="entity" data-entity="UC_GROUP" data-source-line="21" data-uid="ent0012" id="entity_UC_GROUP"><ellipse cx="471.0984" cy="476.064" fill="#F1F1F1" rx="48.2984" ry="29.5761" style="stroke:#181818;stroke-width:0.5;"/><text fill="#000000" font-family="sans-serif" font-size="14" lengthAdjust="spacing" textLength="61.0958" x="440.5505" y="472.0083">Group by</text><text fill="#000000" font-family="sans-serif" font-size="14" lengthAdjust="spacing" textLength="65.0018" x="438.5975" y="491.0762">campaign</text></g><!--entity UC_SEE_DATES--><g class="entity" data-entity="UC_SEE_DATES" data-source-line="23" data-uid="ent0013" id="entity_UC_SEE_DATES"><ellipse cx="471.0959" cy="169.071" fill="#F1F1F1" rx="47.7159" ry="16.4831" style="stroke:#181818;stroke-width:0.5;"/><text fill="#000000" font-family="sans-serif" font-size="14" lengthAdjust="spacing" textLength="63.2378" x="439.477" y="175.1049">See dates</text></g><!--entity UC_MOVE_DATES--><g class="entity" data-entity="UC_MOVE_DATES" data-source-line="24" data-uid="ent0014" id="entity_UC_MOVE_DATES"><ellipse cx="471.1047" cy="101.071" fill="#F1F1F1" rx="56.6947" ry="16.4831" style="stroke:#181818;stroke-width:0.5;"/><text fill="#000000" font-family="sans-serif" font-size="14" lengthAdjust="spacing" textLength="75.9357" x="433.1368" y="107.1049">Move dates</text></g><!--entity UC_FILT_CLIENT--><g class="entity" data-entity="UC_FILT_CLIENT" data-source-line="26" data-uid="ent0015" id="entity_UC_FILT_CLIENT"><ellipse cx="471.0966" cy="822.0686" fill="#F1F1F1" rx="37.7666" ry="28.2007" style="stroke:#181818;stroke-width:0.5;"/><text fill="#000000" font-family="sans-serif" font-size="14" lengthAdjust="spacing" textLength="52.6118" x="444.7907" y="821.1596">Filter by</text><text fill="#000000" font-family="sans-serif" font-size="14" lengthAdjust="spacing" textLength="35.5459" x="453.3237" y="840.2275">client</text></g><!--entity UC_FILT_PRI--><g class="entity" data-entity="UC_FILT_PRI" data-source-line="27" data-uid="ent0016" id="entity_UC_FILT_PRI"><ellipse cx="471.1007" cy="915.0721" fill="#F1F1F1" rx="39.4407" ry="29.4142" style="stroke:#181818;stroke-width:0.5;"/><text fill="#000000" font-family="sans-serif" font-size="14" lengthAdjust="spacing" textLength="52.6118" x="444.7948" y="912.361">Filter by</text><text fill="#000000" font-family="sans-serif" font-size="14" lengthAdjust="spacing" textLength="48.0618" x="447.0698" y="931.4289">priority</text></g><!--entity UC_WHO_WHAT--><g class="entity" data-entity="UC_WHO_WHAT" data-source-line="29" data-uid="ent0017" id="entity_UC_WHO_WHAT"><ellipse cx="471.0978" cy="638.0712" fill="#F1F1F1" rx="44.3078" ry="29.5133" style="stroke:#181818;stroke-width:0.5;"/><text fill="#000000" font-family="sans-serif" font-size="14" lengthAdjust="spacing" textLength="55.2438" x="443.4759" y="633.9253">See who</text><text fill="#000000" font-family="sans-serif" font-size="14" lengthAdjust="spacing" textLength="59.4158" x="441.3899" y="652.9932">has what</text></g><!--entity UC_MOVE_TASKS--><g class="entity" data-entity="UC_MOVE_TASKS" data-source-line="30" data-uid="ent0018" id="entity_UC_MOVE_TASKS"><ellipse cx="471.0993" cy="731.0665" fill="#F1F1F1" rx="73.1193" ry="28.2886" style="stroke:#181818;stroke-width:0.5;"/><text fill="#000000" font-family="sans-serif" font-size="14" lengthAdjust="spacing" textLength="73.6117" x="434.2935" y="725.1097">Move tasks</text><text fill="#000000" font-family="sans-serif" font-size="14" lengthAdjust="spacing" textLength="105.7416" x="418.2285" y="744.1777">between people</text></g><!--entity UC_DESC--><g class="entity" data-entity="UC_DESC" data-source-line="32" data-uid="ent0019" id="entity_UC_DESC"><ellipse cx="471.0982" cy="248.0669" fill="#F1F1F1" rx="54.4582" ry="27.399" style="stroke:#181818;stroke-width:0.5;"/><text fill="#000000" font-family="sans-serif" font-size="14" lengthAdjust="spacing" textLength="35.3639" x="453.4163" y="240.7215">Write</text><text fill="#000000" font-family="sans-serif" font-size="14" lengthAdjust="spacing" textLength="80.4297" x="430.8834" y="259.7894">descriptions</text></g><!--entity UC_FILES--><g class="entity" data-entity="UC_FILES" data-source-line="33" data-uid="ent0020" id="entity_UC_FILES"><ellipse cx="471.1046" cy="327.071" fill="#F1F1F1" rx="42.9146" ry="16.4831" style="stroke:#181818;stroke-width:0.5;"/><text fill="#000000" font-family="sans-serif" font-size="14" lengthAdjust="spacing" textLength="56.4478" x="442.8807" y="333.1049">Add files</text></g><!--entity Designer--><g class="entity" data-entity="Designer" data-source-line="6" data-uid="ent0002" id="entity_Designer"><ellipse cx="42.0969" cy="237.0379" fill="#F1F1F1" rx="8" ry="8" style="stroke:#181818;stroke-width:0.5;"/><path d="M42.0969,245.0379 L42.0969,272.0379 M29.0969,253.0379 L55.0969,253.0379 M42.0969,272.0379 L29.0969,287.0379 M42.0969,272.0379 L55.0969,287.0379" fill="none" style="stroke:#181818;stroke-width:0.5;"/><text fill="#000000" font-family="sans-serif" font-size="14" lengthAdjust="spacing" textLength="59.3738" x="12.41" y="303.5039">Designer</text></g><!--entity Copywriter--><g class="entity" data-entity="Copywriter" data-source-line="7" data-uid="ent0003" id="entity_Copywriter"><ellipse cx="42.0989" cy="355.0379" fill="#F1F1F1" rx="8" ry="8" style="stroke:#181818;stroke-width:0.5;"/><path d="M42.0989,363.0379 L42.0989,390.0379 M29.0989,371.0379 L55.0989,371.0379 M42.0989,390.0379 L29.0989,405.0379 M42.0989,390.0379 L55.0989,405.0379" fill="none" style="stroke:#181818;stroke-width:0.5;"/><text fill="#000000" font-family="sans-serif" font-size="14" lengthAdjust="spacing" textLength="72.1977" x="6" y="421.5039">Copywriter</text></g><!--entity AM--><g class="entity" data-entity="AM" data-source-line="37" data-uid="ent0021" id="entity_AM"><ellipse cx="42.1029" cy="660.4979" fill="#F1F1F1" rx="8" ry="8" style="stroke:#181818;stroke-width:0.5;"/><path d="M42.1029,668.4979 L42.1029,695.4979 M29.1029,676.4979 L55.1029,676.4979 M42.1029,695.4979 L29.1029,710.4979 M42.1029,695.4979 L55.1029,710.4979" fill="none" style="stroke:#181818;stroke-width:0.5;"/><text fill="#000000" font-family="sans-serif" font-size="14" lengthAdjust="spacing" textLength="53.2138" x="12.43" y="726.9639">Account</text><text fill="#000000" font-family="sans-serif" font-size="14" lengthAdjust="spacing" textLength="59.3458" x="12.43" y="746.0318">Manager</text></g><!--entity MM--><g class="entity" data-entity="MM" data-source-line="38" data-uid="ent0022" id="entity_MM"><ellipse cx="42.0969" cy="491.4979" fill="#F1F1F1" rx="8" ry="8" style="stroke:#181818;stroke-width:0.5;"/><path d="M42.0969,499.4979 L42.0969,526.4979 M29.0969,507.4979 L55.0969,507.4979 M42.0969,526.4979 L29.0969,541.4979 M42.0969,526.4979 L55.0969,541.4979" fill="none" style="stroke:#181818;stroke-width:0.5;"/><text fill="#000000" font-family="sans-serif" font-size="14" lengthAdjust="spacing" textLength="67.6337" x="8.28" y="557.9639">Marketing</text><text fill="#000000" font-family="sans-serif" font-size="14" lengthAdjust="spacing" textLength="59.3458" x="8.28" y="577.0318">Manager</text></g><!--link UC_CAMPAIGN to UC_PROJ--><g class="link" data-entity-1="UC_CAMPAIGN" data-entity-2="UC_PROJ" data-source-line="41" data-uid="lnk23" id="link_UC_CAMPAIGN_UC_PROJ"><path d="M249.31,464.1179 C297.01,449.1979 372.6137,425.5595 422.1237,410.0695" fill="none" id="UC_CAMPAIGN-to-UC_PROJ" style="stroke:#181818;stroke-width:1;stroke-dasharray:7,7;"/><polygon fill="#181818" points="427.85,408.2779,418.0662,407.1477,423.0781,409.7709,420.4549,414.7828,427.85,408.2779" style="stroke:#181818;stroke-width:1;"/><text fill="#000000" font-family="sans-serif" font-size="13" lengthAdjust="spacing" textLength="57.5771" x="309.98" y="424.2049">&#171;include&#187;</text></g><!--link UC_CAMPAIGN to UC_TASKS--><g class="link" data-entity-1="UC_CAMPAIGN" data-entity-2="UC_TASKS" data-source-line="42" data-uid="lnk24" id="link_UC_CAMPAIGN_UC_TASKS"><path d="M249.31,488.0179 C298.42,503.3779 377.4335,528.0871 426.4235,543.4071" fill="none" id="UC_CAMPAIGN-to-UC_TASKS" style="stroke:#181818;stroke-width:1;stroke-dasharray:7,7;"/><polygon fill="#181818" points="432.15,545.1979,424.7541,538.6941,427.3779,543.7056,422.3664,546.3294,432.15,545.1979" style="stroke:#181818;stroke-width:1;"/><text fill="#000000" font-family="sans-serif" font-size="13" lengthAdjust="spacing" textLength="57.5771" x="309.98" y="502.8249">&#171;include&#187;</text></g><!--link UC_CAMPAIGN to UC_GROUP--><g class="link" data-entity-1="UC_CAMPAIGN" data-entity-2="UC_GROUP" data-source-line="43" data-uid="lnk25" id="link_UC_CAMPAIGN_UC_GROUP"><path d="M265.7,476.0679 C312.16,476.0679 372.2,476.0679 416.52,476.0679" fill="none" id="UC_CAMPAIGN-to-UC_GROUP" style="stroke:#181818;stroke-width:1;stroke-dasharray:7,7;"/><polygon fill="#181818" points="422.52,476.0679,413.52,472.0679,417.52,476.0679,413.52,480.0679,422.52,476.0679" style="stroke:#181818;stroke-width:1;"/><text fill="#000000" font-family="sans-serif" font-size="13" lengthAdjust="spacing" textLength="57.5771" x="309.98" y="471.9649">&#171;include&#187;</text></g><!--link UC_CALENDAR to UC_SEE_DATES--><g class="link" data-entity-1="UC_CALENDAR" data-entity-2="UC_SEE_DATES" data-source-line="45" data-uid="lnk26" id="link_UC_CALENDAR_UC_SEE_DATES"><path d="M254.44,165.6979 C271.44,166.6279 291.12,167.5579 308.98,168.0679 C347.43,169.1679 385.05,169.3872 417.2,169.3372" fill="none" id="UC_CALENDAR-to-UC_SEE_DATES" style="stroke:#181818;stroke-width:1;stroke-dasharray:7,7;"/><polygon fill="#181818" points="423.2,169.3279,414.1938,165.3419,418.2,169.3357,414.2062,173.3419,423.2,169.3279" style="stroke:#181818;stroke-width:1;"/><text fill="#000000" font-family="sans-serif" font-size="13" lengthAdjust="spacing" textLength="57.5771" x="309.98" y="163.9649">&#171;include&#187;</text></g><!--link UC_CALENDAR to UC_MOVE_DATES--><g class="link" data-entity-1="UC_CALENDAR" data-entity-2="UC_MOVE_DATES" data-source-line="46" data-uid="lnk27" id="link_UC_CALENDAR_UC_MOVE_DATES"><path d="M248.47,154.1179 C295.55,142.8479 370.4449,124.9251 420.3949,112.9651" fill="none" id="UC_CALENDAR-to-UC_MOVE_DATES" style="stroke:#181818;stroke-width:1;stroke-dasharray:7,7;"/><polygon fill="#181818" points="426.23,111.5679,416.546,109.7736,421.3674,112.7322,418.4088,117.5537,426.23,111.5679" style="stroke:#181818;stroke-width:1;"/><text fill="#000000" font-family="sans-serif" font-size="13" lengthAdjust="spacing" textLength="57.5771" x="309.98" y="122.4149">&#171;include&#187;</text></g><!--link UC_MULTI to UC_FILT_CLIENT--><g class="link" data-entity-1="UC_MULTI" data-entity-2="UC_FILT_CLIENT" data-source-line="48" data-uid="lnk28" id="link_UC_MULTI_UC_FILT_CLIENT"><path d="M270.51,811.2779 C320.54,813.9879 384.5587,817.4445 426.9787,819.7345" fill="none" id="UC_MULTI-to-UC_FILT_CLIENT" style="stroke:#181818;stroke-width:1;stroke-dasharray:7,7;"/><polygon fill="#181818" points="432.97,820.0579,424.1987,815.5786,427.9773,819.7884,423.7675,823.567,432.97,820.0579" style="stroke:#181818;stroke-width:1;"/><text fill="#000000" font-family="sans-serif" font-size="13" lengthAdjust="spacing" textLength="57.5771" x="309.98" y="809.2949">&#171;include&#187;</text></g><!--link UC_MULTI to UC_FILT_PRI--><g class="link" data-entity-1="UC_MULTI" data-entity-2="UC_FILT_PRI" data-source-line="49" data-uid="lnk29" id="link_UC_MULTI_UC_FILT_PRI"><path d="M244.95,822.0579 C294.59,842.5579 381.0447,878.2767 430.6847,898.7867" fill="none" id="UC_MULTI-to-UC_FILT_PRI" style="stroke:#181818;stroke-width:1;stroke-dasharray:7,7;"/><polygon fill="#181818" points="436.23,901.0779,429.4395,893.9443,431.6089,899.1686,426.3846,901.338,436.23,901.0779" style="stroke:#181818;stroke-width:1;"/><text fill="#000000" font-family="sans-serif" font-size="13" lengthAdjust="spacing" textLength="57.5771" x="309.98" y="844.7349">&#171;include&#187;</text></g><!--link UC_WORKLOAD to UC_WHO_WHAT--><g class="link" data-entity-1="UC_WORKLOAD" data-entity-2="UC_WHO_WHAT" data-source-line="51" data-uid="lnk30" id="link_UC_WORKLOAD_UC_WHO_WHAT"><path d="M261.34,649.3479 C309.29,646.7579 374.8288,643.2222 420.4588,640.7522" fill="none" id="UC_WORKLOAD-to-UC_WHO_WHAT" style="stroke:#181818;stroke-width:1;stroke-dasharray:7,7;"/><polygon fill="#181818" points="426.45,640.4279,417.2469,636.9202,421.4573,640.6982,417.6794,644.9085,426.45,640.4279" style="stroke:#181818;stroke-width:1;"/><text fill="#000000" font-family="sans-serif" font-size="13" lengthAdjust="spacing" textLength="57.5771" x="309.98" y="639.7149">&#171;include&#187;</text></g><!--link UC_WORKLOAD to UC_MOVE_TASKS--><g class="link" data-entity-1="UC_WORKLOAD" data-entity-2="UC_MOVE_TASKS" data-source-line="52" data-uid="lnk31" id="link_UC_WORKLOAD_UC_MOVE_TASKS"><path d="M248.47,663.4679 C291.62,676.6279 357.3212,696.6669 407.4012,711.9469" fill="none" id="UC_WORKLOAD-to-UC_MOVE_TASKS" style="stroke:#181818;stroke-width:1;stroke-dasharray:7,7;"/><polygon fill="#181818" points="413.14,713.6979,405.6991,707.2456,408.3576,712.2388,403.3644,714.8973,413.14,713.6979" style="stroke:#181818;stroke-width:1;"/><text fill="#000000" font-family="sans-serif" font-size="13" lengthAdjust="spacing" textLength="57.5771" x="309.98" y="678.0649">&#171;include&#187;</text></g><!--link UC_HANDOFF to UC_DESC--><g class="link" data-entity-1="UC_HANDOFF" data-entity-2="UC_DESC" data-source-line="54" data-uid="lnk32" id="link_UC_HANDOFF_UC_DESC"><path d="M244.5,338.4079 C263.37,330.2179 287.42,319.9079 308.98,311.0679 C348.72,294.7779 388.7389,279.1791 421.2589,266.6891" fill="none" id="UC_HANDOFF-to-UC_DESC" style="stroke:#181818;stroke-width:1;stroke-dasharray:7,7;"/><polygon fill="#181818" points="426.86,264.5379,417.0242,264.0307,422.1924,266.3306,419.8925,271.4988,426.86,264.5379" style="stroke:#181818;stroke-width:1;"/><text fill="#000000" font-family="sans-serif" font-size="13" lengthAdjust="spacing" textLength="57.5771" x="309.98" y="283.9449">&#171;include&#187;</text></g><!--link UC_HANDOFF to UC_FILES--><g class="link" data-entity-1="UC_HANDOFF" data-entity-2="UC_FILES" data-source-line="55" data-uid="lnk33" id="link_UC_HANDOFF_UC_FILES"><path d="M274.12,346.7379 C322.34,341.8979 381.45,335.9669 423.11,331.7869" fill="none" id="UC_HANDOFF-to-UC_FILES" style="stroke:#181818;stroke-width:1;stroke-dasharray:7,7;"/><polygon fill="#181818" points="429.08,331.1879,419.7256,328.1064,424.105,331.6871,420.5243,336.0664,429.08,331.1879" style="stroke:#181818;stroke-width:1;"/><text fill="#000000" font-family="sans-serif" font-size="13" lengthAdjust="spacing" textLength="57.5771" x="309.98" y="333.6349">&#171;include&#187;</text></g><!--link Designer to UC_CAMPAIGN--><g class="link" data-entity-1="Designer" data-entity-2="UC_CAMPAIGN" data-source-line="60" data-uid="lnk34" id="link_Designer_UC_CAMPAIGN"><path d="M71.96,278.4179 C85.54,284.8279 100.6,294.4679 109.2,308.0679 C128.06,337.8979 101.81,355.3079 117.2,387.0679 C132.5,418.6479 159.0355,441.6495 180.8555,457.3095" fill="none" id="Designer-to-UC_CAMPAIGN" style="stroke:#181818;stroke-width:1;"/><polygon fill="#181818" points="185.73,460.8079,180.7505,452.3106,181.6679,457.8926,176.0859,458.81,185.73,460.8079" style="stroke:#181818;stroke-width:1;"/></g><!--link Designer to UC_CALENDAR--><g class="link" data-entity-1="Designer" data-entity-2="UC_CALENDAR" data-source-line="61" data-uid="lnk35" id="link_Designer_UC_CALENDAR"><path d="M52.28,228.3279 C61.26,199.4079 78.13,162.2379 108.2,144.0679 C131.38,130.0579 157.1473,136.8743 178.6873,146.7643" fill="none" id="Designer-to-UC_CALENDAR" style="stroke:#181818;stroke-width:1;"/><polygon fill="#181818" points="184.14,149.2679,177.63,141.8774,179.5961,147.1816,174.2919,149.1477,184.14,149.2679" style="stroke:#181818;stroke-width:1;"/></g><!--link Designer to UC_WORKLOAD--><g class="link" data-entity-1="Designer" data-entity-2="UC_WORKLOAD" data-source-line="62" data-uid="lnk36" id="link_Designer_UC_WORKLOAD"><path d="M68.32,307.8879 C72,314.7779 75.47,321.9979 78.2,329.0679 C101.47,389.3279 95.82,407.8679 109.2,471.0679 C112.86,488.3779 110.5,493.6879 117.2,510.0679 C137.54,559.8079 172.0096,606.3145 192.1496,631.4645" fill="none" id="Designer-to-UC_WORKLOAD" style="stroke:#181818;stroke-width:1;"/><polygon fill="#181818" points="195.9,636.1479,193.3966,626.6225,192.7746,632.2451,187.1521,631.6231,195.9,636.1479" style="stroke:#181818;stroke-width:1;"/></g><!--link Designer to UC_HANDOFF--><g class="link" data-entity-1="Designer" data-entity-2="UC_HANDOFF" data-source-line="63" data-uid="lnk37" id="link_Designer_UC_HANDOFF"><path d="M72.18,258.5579 C84,256.2079 97.58,255.4979 109.2,260.0679 C148.45,275.5079 177.8486,309.6092 194.2886,331.8992" fill="none" id="Designer-to-UC_HANDOFF" style="stroke:#181818;stroke-width:1;"/><polygon fill="#181818" points="197.85,336.7279,195.727,327.1106,194.8822,332.704,189.2887,331.8591,197.85,336.7279" style="stroke:#181818;stroke-width:1;"/></g><!--link Copywriter to UC_CAMPAIGN--><g class="link" data-entity-1="Copywriter" data-entity-2="UC_CAMPAIGN" data-source-line="65" data-uid="lnk38" id="link_Copywriter_UC_CAMPAIGN"><path d="M78.3,405.1579 C109.32,421.9779 148.5848,443.2692 176.8548,458.5892" fill="none" id="Copywriter-to-UC_CAMPAIGN" style="stroke:#181818;stroke-width:1;"/><polygon fill="#181818" points="182.13,461.4479,176.123,453.643,177.734,459.0656,172.3114,460.6766,182.13,461.4479" style="stroke:#181818;stroke-width:1;"/></g><!--link Copywriter to UC_CALENDAR--><g class="link" data-entity-1="Copywriter" data-entity-2="UC_CALENDAR" data-source-line="66" data-uid="lnk39" id="link_Copywriter_UC_CALENDAR"><path d="M67.95,346.0979 C71.68,339.2279 75.25,332.0479 78.2,325.0679 C97.22,279.9479 77.8,257.4479 108.2,219.0679 C125.36,197.3979 147.7678,185.0428 169.9078,176.2028" fill="none" id="Copywriter-to-UC_CALENDAR" style="stroke:#181818;stroke-width:1;"/><polygon fill="#181818" points="175.48,173.9779,165.6384,173.6004,170.8365,175.832,168.6049,181.0301,175.48,173.9779" style="stroke:#181818;stroke-width:1;"/></g><!--link Copywriter to UC_WORKLOAD--><g class="link" data-entity-1="Copywriter" data-entity-2="UC_WORKLOAD" data-source-line="67" data-uid="lnk40" id="link_Copywriter_UC_WORKLOAD"><path d="M66.43,425.9379 C80.85,450.3579 99.84,482.1679 117.2,510.0679 C145.74,555.9479 177.4111,604.2228 194.8311,630.5728" fill="none" id="Copywriter-to-UC_WORKLOAD" style="stroke:#181818;stroke-width:1;"/><polygon fill="#181818" points="198.14,635.5779,196.5134,625.8643,195.3826,631.407,189.8399,630.2762,198.14,635.5779" style="stroke:#181818;stroke-width:1;"/></g><!--link Copywriter to UC_HANDOFF--><g class="link" data-entity-1="Copywriter" data-entity-2="UC_HANDOFF" data-source-line="68" data-uid="lnk41" id="link_Copywriter_UC_HANDOFF"><path d="M78.3,379.0679 C100.86,374.5879 124.6652,369.8479 150.0652,364.7979" fill="none" id="Copywriter-to-UC_HANDOFF" style="stroke:#181818;stroke-width:1;"/><polygon fill="#181818" points="155.95,363.6279,146.3428,361.4597,151.046,364.6029,147.9028,369.3061,155.95,363.6279" style="stroke:#181818;stroke-width:1;"/></g><!--link AM to UC_CAMPAIGN--><g class="link" data-entity-1="AM" data-entity-2="UC_CAMPAIGN" data-source-line="71" data-uid="lnk42" id="link_AM_UC_CAMPAIGN"><path d="M72.2,661.6179 C109.11,611.5879 167.5183,532.4164 193.4983,497.1964" fill="none" id="AM-to-UC_CAMPAIGN" style="stroke:#181818;stroke-width:1;"/><polygon fill="#181818" points="197.06,492.3679,188.4984,497.2361,194.0919,496.3916,194.9364,501.9851,197.06,492.3679" style="stroke:#181818;stroke-width:1;"/></g><!--link AM to UC_MULTI--><g class="link" data-entity-1="AM" data-entity-2="UC_MULTI" data-source-line="72" data-uid="lnk43" id="link_AM_UC_MULTI"><path d="M72.01,719.7079 C104.06,740.3579 150.1172,770.0467 180.0372,789.3367" fill="none" id="AM-to-UC_MULTI" style="stroke:#181818;stroke-width:1;"/><polygon fill="#181818" points="185.08,792.5879,179.6833,784.3493,180.8777,789.8786,175.3483,791.073,185.08,792.5879" style="stroke:#181818;stroke-width:1;"/></g><!--link AM to UC_WORKLOAD--><g class="link" data-entity-1="AM" data-entity-2="UC_WORKLOAD" data-source-line="73" data-uid="lnk44" id="link_AM_UC_WORKLOAD"><path d="M72.01,692.5279 C99.51,684.4179 135.2651,673.8554 165.4051,664.9654" fill="none" id="AM-to-UC_WORKLOAD" style="stroke:#181818;stroke-width:1;"/><polygon fill="#181818" points="171.16,663.2679,161.396,661.9775,166.3643,664.6825,163.6593,669.6507,171.16,663.2679" style="stroke:#181818;stroke-width:1;"/></g><!--link AM to UC_HANDOFF--><g class="link" data-entity-1="AM" data-entity-2="UC_HANDOFF" data-source-line="74" data-uid="lnk45" id="link_AM_UC_HANDOFF"><path d="M61.12,651.5479 C66.89,634.9579 73.1,616.3079 78.2,599.0679 C88.39,564.5979 99.26,473.2179 117.2,442.0679 C134.71,411.6579 160.8354,388.5215 181.9254,372.4715" fill="none" id="AM-to-UC_HANDOFF" style="stroke:#181818;stroke-width:1;"/><polygon fill="#181818" points="186.7,368.8379,177.1157,371.1052,182.7212,371.8659,181.9605,377.4714,186.7,368.8379" style="stroke:#181818;stroke-width:1;"/></g><!--link MM to UC_CAMPAIGN--><g class="link" data-entity-1="MM" data-entity-2="UC_CAMPAIGN" data-source-line="76" data-uid="lnk46" id="link_MM_UC_CAMPAIGN"><path d="M76.29,520.8679 C104.01,511.5179 137.8045,500.1149 166.5145,490.4349" fill="none" id="MM-to-UC_CAMPAIGN" style="stroke:#181818;stroke-width:1;"/><polygon fill="#181818" points="172.2,488.5179,162.3937,487.603,167.4621,490.1154,164.9497,495.1837,172.2,488.5179" style="stroke:#181818;stroke-width:1;"/></g><!--link MM to UC_CALENDAR--><g class="link" data-entity-1="MM" data-entity-2="UC_CALENDAR" data-source-line="77" data-uid="lnk47" id="link_MM_UC_CALENDAR"><path d="M63.22,482.8679 C68.29,469.9879 73.6,456.0679 78.2,443.0679 C97.47,388.6079 93.72,371.8579 117.2,319.0679 C141.09,265.3579 175.7396,211.8418 194.4996,184.2118" fill="none" id="MM-to-UC_CALENDAR" style="stroke:#181818;stroke-width:1;"/><polygon fill="#181818" points="197.87,179.2479,189.5052,184.4469,195.0614,183.3845,196.1237,188.9407,197.87,179.2479" style="stroke:#181818;stroke-width:1;"/></g><!--link MM to UC_MULTI--><g class="link" data-entity-1="MM" data-entity-2="UC_MULTI" data-source-line="78" data-uid="lnk48" id="link_MM_UC_MULTI"><path d="M63.92,581.5679 C77.62,612.4179 96.75,652.4879 117.2,686.0679 C141.61,726.1579 172.3375,764.5281 191.3575,787.2381" fill="none" id="MM-to-UC_MULTI" style="stroke:#181818;stroke-width:1;"/><polygon fill="#181818" points="195.21,791.8379,192.4979,782.3698,191.9996,788.0047,186.3648,787.5064,195.21,791.8379" style="stroke:#181818;stroke-width:1;"/></g><!--link MM to UC_WORKLOAD--><g class="link" data-entity-1="MM" data-entity-2="UC_WORKLOAD" data-source-line="79" data-uid="lnk49" id="link_MM_UC_WORKLOAD"><path d="M76.29,556.0679 C109.59,580.1379 155.008,612.9721 183.178,633.3421" fill="none" id="MM-to-UC_WORKLOAD" style="stroke:#181818;stroke-width:1;"/><polygon fill="#181818" points="188.04,636.8579,183.0908,628.3429,183.9883,633.9281,178.4031,634.8256,188.04,636.8579" style="stroke:#181818;stroke-width:1;"/></g><!--link MM to UC_HANDOFF--><g class="link" data-entity-1="MM" data-entity-2="UC_HANDOFF" data-source-line="80" data-uid="lnk50" id="link_MM_UC_HANDOFF"><path d="M76.09,490.0179 C88.59,474.6079 103.2,457.2379 117.2,442.0679 C141.74,415.4579 167.8728,390.7185 186.8228,373.2985" fill="none" id="MM-to-UC_HANDOFF" style="stroke:#181818;stroke-width:1;"/><polygon fill="#181818" points="191.24,369.2379,181.9071,372.384,187.559,372.6217,187.3212,378.2736,191.24,369.2379" style="stroke:#181818;stroke-width:1;"/></g><!--SRC=[XPLBRjim48RtEiKWcoGBvm15O83m8r4ZMeQjD5qO21Y9bjd8f23ICOIYsnwWH-n9Gb6YNdJHXG5Jy_6VuUWVAgDx1Kf0mTA3WeGLD5PCSCzJJ6KKC2dUgM8y1PHI7fUUTmsJoGG2lMqYMKA1n4eKidhecRzmDQUIfPmMLq0as8KDpaHUdWkccd2tzBmgDU6fpdg50lzXvN-7YLE0sRKjfQ97-Ebv07Kzc30E9qaX9f9Aq0i27xHGB2OPn28x7JdSn9JhHBUcLgZe2jObaMDET97IQ3_FNcS8hv4kO0Xbb2Uaw9XWiPgZJP_1X9SGPqodQRNmSn3vVIYYv0YP88abNiBDKn2Y-I2R4O43uOdOxotvY5RpSBdiJktpE3ibDEcTd1JYn1DG1zsV6ycEkMvdHjve9frpO_9E8I_43zttjjxr9lpgG8h8zvQ8qFPfsqSUTCeStieTZvjEMlHX4pwllJwxfHGIecYhjbqiNkSeMWmKiVWOOJZyPha-k6IPVgDrRjCooo_z87gT1VvY5Vs3pmicjF7AmOxrndVAFH_4ZXyqT3wGLl_bCTG_53bLcrRj-1jLPqevv5JeDp0uHTs__iQNQW1sFA4oBbXUZLzxxlbYE-kZA4bWpxAkCRfitPDVTYutrHWF1lCceN562cqIig_Ehfq1ifuVAQfL2Qa0mKt0t0At_M56SQmDfNPScvkapTGYRCFjU0u1Z6r1hBOe53GZvcH6l3TaS7StjSQ3Bt1_t-oOJYzHfdd_nupnHfZNcrhBjUwx93b4EmTUq3LJRicUzrnPbzIUkw1eRmMBMiEvYcEoCza5sUOAiMnbBrTn11cBZRNgjujgZ_tz_GUEmnkuUiiQghuJKDdHiny27PaEBbatqDoiuq1xKOu3xRtOVKsSB9T2JHutr6PoGsskwthMwiCXx2Ji7jMVW6xTgdUFMbNi2lKVDHNZaJPsjR6Z_Ga0]--></g></svg>