<svg xmlns="http://www.w3.org/2000/svg" xmlns:xlink="http://www.w3.org/1999/xlink" contentStyleType="text/css" data-diagram-type="DESCRIPTION" height="820px" preserveAspectRatio="none" style="width:603px;height:820px;background:#FFFFFF;" version="1.1" viewBox="0 0 603 820" width="603px" zoomAndPan="magnify"><title>University Group Project</title><defs/><g><g class="title" data-source-line="3"><text fill="#000000" font-family="sans-serif" font-size="14" font-weight="bold" lengthAdjust="spacing" textLength="172.0453" x="208.7623" y="24.9659">University Group Project</text></g><!--cluster System--><g class="cluster" data-entity="System" data-source-line="9" data-uid="ent0004" id="cluster_System"><rect fill="none" height="767" rx="2.5" ry="2.5" style="stroke:#181818;stroke-width:1;" width="448.33" x="149.24" y="47.0679"/><text fill="#000000" font-family="sans-serif" font-size="14" font-weight="bold" lengthAdjust="spacing" textLength="243.1511" x="251.8295" y="64.0339">ALIGNIX - University Group Project</text></g><!--entity UC_BREAK--><g class="entity" data-entity="UC_BREAK" data-source-line="12" data-uid="ent0005" id="entity_UC_BREAK"><ellipse cx="244.3068" cy="369.0633" fill="#F1F1F1" rx="79.0768" ry="18.2154" style="stroke:#181818;stroke-width:0.5;"/><text fill="#000000" font-family="sans-serif" font-size="14" lengthAdjust="spacing" textLength="118.5795" x="185.0171" y="375.0972">Break assignment</text></g><!--entity UC_ASSIGN--><g class="entity" data-entity="UC_ASSIGN" data-source-line="13" data-uid="ent0006" id="entity_UC_ASSIGN"><ellipse cx="244.3083" cy="275.071" fill="#F1F1F1" rx="59.2883" ry="16.4831" style="stroke:#181818;stroke-width:0.5;"/><text fill="#000000" font-family="sans-serif" font-size="14" lengthAdjust="spacing" textLength="79.6037" x="204.5065" y="281.1049">Assign work</text></g><!--entity UC_DEADLINES--><g class="entity" data-entity="UC_DEADLINES" data-source-line="14" data-uid="ent0007" id="entity_UC_DEADLINES"><ellipse cx="244.3128" cy="551.071" fill="#F1F1F1" rx="49.0028" ry="16.4831" style="stroke:#181818;stroke-width:0.5;"/><text fill="#000000" font-family="sans-serif" font-size="14" lengthAdjust="spacing" textLength="65.0577" x="211.7839" y="557.1049">Deadlines</text></g><!--entity UC_PROGRESS--><g class="entity" data-entity="UC_PROGRESS" data-source-line="15" data-uid="ent0008" id="entity_UC_PROGRESS"><ellipse cx="244.3147" cy="665.071" fill="#F1F1F1" rx="63.5847" ry="16.4831" style="stroke:#181818;stroke-width:0.5;"/><text fill="#000000" font-family="sans-serif" font-size="14" lengthAdjust="spacing" textLength="85.6797" x="201.4748" y="671.1049">See progress</text></g><!--entity UC_TASKS_SECTIONS--><g class="entity" data-entity="UC_TASKS_SECTIONS" data-source-line="20" data-uid="ent0009" id="entity_UC_TASKS_SECTIONS"><ellipse cx="511.9764" cy="396.0645" fill="#F1F1F1" rx="54.8164" ry="29.9366" style="stroke:#181818;stroke-width:0.5;"/><text fill="#000000" font-family="sans-serif" font-size="14" lengthAdjust="spacing" textLength="73.3597" x="475.2965" y="392.6063">Make tasks</text><text fill="#000000" font-family="sans-serif" font-size="14" lengthAdjust="spacing" textLength="73.0377" x="475.4575" y="411.6742">per section</text></g><!--entity UC_TASKS_DELIV--><g class="entity" data-entity="UC_TASKS_DELIV" data-source-line="21" data-uid="ent0010" id="entity_UC_TASKS_DELIV"><ellipse cx="511.98" cy="302.0704" fill="#F1F1F1" rx="69.59" ry="28.8024" style="stroke:#181818;stroke-width:0.5;"/><text fill="#000000" font-family="sans-serif" font-size="14" lengthAdjust="spacing" textLength="79.1417" x="472.4092" y="296.8858">Group tasks</text><text fill="#000000" font-family="sans-serif" font-size="14" lengthAdjust="spacing" textLength="98.4196" x="462.7702" y="315.9537">per deliverable</text></g><!--entity UC_ASSIGN_MEMBER--><g class="entity" data-entity="UC_ASSIGN_MEMBER" data-source-line="24" data-uid="ent0011" id="entity_UC_ASSIGN_MEMBER"><ellipse cx="511.9842" cy="208.0679" fill="#F1F1F1" rx="59.9642" ry="29.93" style="stroke:#181818;stroke-width:0.5;"/><text fill="#000000" font-family="sans-serif" font-size="14" lengthAdjust="spacing" textLength="80.6677" x="471.6504" y="204.619">Assign tasks</text><text fill="#000000" font-family="sans-serif" font-size="14" lengthAdjust="spacing" textLength="80.2337" x="471.8674" y="223.6869">to members</text></g><!--entity UC_BALANCE--><g class="entity" data-entity="UC_BALANCE" data-source-line="25" data-uid="ent0012" id="entity_UC_BALANCE"><ellipse cx="511.9765" cy="114.0697" fill="#F1F1F1" rx="44.7965" ry="29.0118" style="stroke:#181818;stroke-width:0.5;"/><text fill="#000000" font-family="sans-serif" font-size="14" lengthAdjust="spacing" textLength="51.6878" x="486.1326" y="109.1944">Balance</text><text fill="#000000" font-family="sans-serif" font-size="14" lengthAdjust="spacing" textLength="61.2778" x="481.3376" y="128.2623">workload</text></g><!--entity UC_SET_DATES--><g class="entity" data-entity="UC_SET_DATES" data-source-line="28" data-uid="ent0013" id="entity_UC_SET_DATES"><ellipse cx="511.9813" cy="583.0714" fill="#F1F1F1" rx="35.9813" ry="28.4435" style="stroke:#181818;stroke-width:0.5;"/><text fill="#000000" font-family="sans-serif" font-size="14" lengthAdjust="spacing" textLength="49.4338" x="487.2644" y="581.7934">Set due</text><text fill="#000000" font-family="sans-serif" font-size="14" lengthAdjust="spacing" textLength="36.1199" x="493.9213" y="600.8613">dates</text></g><!--entity UC_SEE_TIMELINE--><g class="entity" data-entity="UC_SEE_TIMELINE" data-source-line="29" data-uid="ent0014" id="entity_UC_SEE_TIMELINE"><ellipse cx="511.9764" cy="490.0688" fill="#F1F1F1" rx="53.6964" ry="29.0609" style="stroke:#181818;stroke-width:0.5;"/><text fill="#000000" font-family="sans-serif" font-size="14" lengthAdjust="spacing" textLength="63.2378" x="480.3575" y="485.2657">See dates</text><text fill="#000000" font-family="sans-serif" font-size="14" lengthAdjust="spacing" textLength="74.1857" x="474.8835" y="504.3336">on timeline</text></g><!--entity UC_WHO_DID--><g class="entity" data-entity="UC_WHO_DID" data-source-line="32" data-uid="ent0015" id="entity_UC_WHO_DID"><ellipse cx="511.9798" cy="768.0664" fill="#F1F1F1" rx="43.0198" ry="29.7584" style="stroke:#181818;stroke-width:0.5;"/><text fill="#000000" font-family="sans-serif" font-size="14" lengthAdjust="spacing" textLength="55.2438" x="484.3579" y="764.2715">See who</text><text fill="#000000" font-family="sans-serif" font-size="14" lengthAdjust="spacing" textLength="57.0358" x="483.4619" y="783.3394">did what</text></g><!--entity UC_STATUS_VIEW--><g class="entity" data-entity="UC_STATUS_VIEW" data-source-line="33" data-uid="ent0016" id="entity_UC_STATUS_VIEW"><ellipse cx="511.9772" cy="675.0672" fill="#F1F1F1" rx="39.2172" ry="28.4793" style="stroke:#181818;stroke-width:0.5;"/><text fill="#000000" font-family="sans-serif" font-size="14" lengthAdjust="spacing" textLength="54.2078" x="484.8733" y="673.7352">See task</text><text fill="#000000" font-family="sans-serif" font-size="14" lengthAdjust="spacing" textLength="40.0259" x="491.9643" y="692.8031">status</text></g><!--entity Student--><g class="entity" data-entity="Student" data-source-line="6" data-uid="ent0002" id="entity_Student"><ellipse cx="54.1178" cy="476.4979" fill="#F1F1F1" rx="8" ry="8" style="stroke:#181818;stroke-width:0.5;"/><path d="M54.1178,484.4979 L54.1178,511.4979 M41.1178,492.4979 L67.1178,492.4979 M54.1178,511.4979 L41.1178,526.4979 M54.1178,511.4979 L67.1178,526.4979" fill="none" style="stroke:#181818;stroke-width:0.5;"/><text fill="#000000" font-family="sans-serif" font-size="14" lengthAdjust="spacing" textLength="51.6038" x="6" y="542.9639">Student</text><text fill="#000000" font-family="sans-serif" font-size="14" lengthAdjust="spacing" textLength="96.2356" x="6" y="562.0318">Team Member</text></g><!--entity Lead--><g class="entity" data-entity="Lead" data-source-line="7" data-uid="ent0003" id="entity_Lead"><ellipse cx="54.1199" cy="335.4979" fill="#F1F1F1" rx="8" ry="8" style="stroke:#181818;stroke-width:0.5;"/><path d="M54.1199,343.4979 L54.1199,370.4979 M41.1199,351.4979 L67.1199,351.4979 M54.1199,370.4979 L41.1199,385.4979 M54.1199,370.4979 L67.1199,385.4979" fill="none" style="stroke:#181818;stroke-width:0.5;"/><text fill="#000000" font-family="sans-serif" font-size="14" lengthAdjust="spacing" textLength="71.9597" x="18.14" y="401.9639">Team Lead</text><text fill="#000000" font-family="sans-serif" font-size="14" lengthAdjust="spacing" textLength="62.7338" x="18.14" y="421.0318">(optional)</text></g><!--entity Advisor--><g class="entity" data-entity="Advisor" data-source-line="37" data-uid="ent0017" id="entity_Advisor"><ellipse cx="54.1189" cy="624.4979" fill="#F1F1F1" rx="8" ry="8" style="stroke:#181818;stroke-width:0.5;"/><path d="M54.1189,632.4979 L54.1189,659.4979 M41.1189,640.4979 L67.1189,640.4979 M54.1189,659.4979 L41.1189,674.4979 M54.1189,659.4979 L67.1189,674.4979" fill="none" style="stroke:#181818;stroke-width:0.5;"/><text fill="#000000" font-family="sans-serif" font-size="14" lengthAdjust="spacing" textLength="58.0858" x="21.31" y="690.9639">Advisor /</text><text fill="#000000" font-family="sans-serif" font-size="14" lengthAdjust="spacing" textLength="65.6178" x="21.31" y="710.0318">Instructor</text></g><!--link UC_BREAK to UC_TASKS_SECTIONS--><g class="link" data-entity-1="UC_BREAK" data-entity-2="UC_TASKS_SECTIONS" data-source-line="40" data-uid="lnk18" id="link_UC_BREAK_UC_TASKS_SECTIONS"><path d="M317.21,376.3779 C361.46,380.8679 411.2708,385.9312 451.6108,390.0312" fill="none" id="UC_BREAK-to-UC_TASKS_SECTIONS" style="stroke:#181818;stroke-width:1;stroke-dasharray:7,7;"/><polygon fill="#181818" points="457.58,390.6379,449.0306,385.7484,452.6056,390.1323,448.2217,393.7074,457.58,390.6379" style="stroke:#181818;stroke-width:1;"/><text fill="#000000" font-family="sans-serif" font-size="13" lengthAdjust="spacing" textLength="57.5771" x="354.39" y="376.0449">&#171;include&#187;</text></g><!--link UC_BREAK to UC_TASKS_DELIV--><g class="link" data-entity-1="UC_BREAK" data-entity-2="UC_TASKS_DELIV" data-source-line="41" data-uid="lnk19" id="link_UC_BREAK_UC_TASKS_DELIV"><path d="M299.07,355.5079 C343.35,344.3479 400.2219,329.9942 445.9319,318.4742" fill="none" id="UC_BREAK-to-UC_TASKS_DELIV" style="stroke:#181818;stroke-width:1;stroke-dasharray:7,7;"/><polygon fill="#181818" points="451.75,317.0079,442.0454,315.3286,446.9016,318.2298,444.0004,323.0861,451.75,317.0079" style="stroke:#181818;stroke-width:1;"/><text fill="#000000" font-family="sans-serif" font-size="13" lengthAdjust="spacing" textLength="57.5771" x="354.39" y="323.4949">&#171;include&#187;</text></g><!--link UC_ASSIGN to UC_ASSIGN_MEMBER--><g class="link" data-entity-1="UC_ASSIGN" data-entity-2="UC_ASSIGN_MEMBER" data-source-line="43" data-uid="lnk20" id="link_UC_ASSIGN_UC_ASSIGN_MEMBER"><path d="M289.18,264.0079 C335.46,252.3379 402.5721,235.4047 452.0721,222.9247" fill="none" id="UC_ASSIGN-to-UC_ASSIGN_MEMBER" style="stroke:#181818;stroke-width:1;stroke-dasharray:7,7;"/><polygon fill="#181818" points="457.89,221.4579,448.1852,219.7795,453.0417,222.6803,450.141,227.5368,457.89,221.4579" style="stroke:#181818;stroke-width:1;"/><text fill="#000000" font-family="sans-serif" font-size="13" lengthAdjust="spacing" textLength="57.5771" x="354.39" y="229.4949">&#171;include&#187;</text></g><!--link UC_ASSIGN to UC_BALANCE--><g class="link" data-entity-1="UC_ASSIGN" data-entity-2="UC_BALANCE" data-source-line="44" data-uid="lnk21" id="link_UC_ASSIGN_UC_BALANCE"><path d="M269.23,259.7479 C291.05,245.8379 324.24,224.8379 353.39,207.0679 C396.11,181.0279 440.734,154.8455 472.734,136.2255" fill="none" id="UC_ASSIGN-to-UC_BALANCE" style="stroke:#181818;stroke-width:1;stroke-dasharray:7,7;"/><polygon fill="#181818" points="477.92,133.2079,468.1293,134.277,473.5984,135.7226,472.1528,141.1916,477.92,133.2079" style="stroke:#181818;stroke-width:1;"/><text fill="#000000" font-family="sans-serif" font-size="13" lengthAdjust="spacing" textLength="57.5771" x="354.39" y="169.2949">&#171;include&#187;</text></g><!--link UC_DEADLINES to UC_SET_DATES--><g class="link" data-entity-1="UC_DEADLINES" data-entity-2="UC_SET_DATES" data-source-line="46" data-uid="lnk22" id="link_UC_DEADLINES_UC_SET_DATES"><path d="M290.98,556.5679 C343.5,562.8979 422.603,572.4206 470.103,578.1406" fill="none" id="UC_DEADLINES-to-UC_SET_DATES" style="stroke:#181818;stroke-width:1;stroke-dasharray:7,7;"/><polygon fill="#181818" points="476.06,578.8579,467.6028,573.8106,471.0959,578.2601,466.6463,581.7532,476.06,578.8579" style="stroke:#181818;stroke-width:1;"/><text fill="#000000" font-family="sans-serif" font-size="13" lengthAdjust="spacing" textLength="57.5771" x="354.39" y="560.0949">&#171;include&#187;</text></g><!--link UC_DEADLINES to UC_SEE_TIMELINE--><g class="link" data-entity-1="UC_DEADLINES" data-entity-2="UC_SEE_TIMELINE" data-source-line="47" data-uid="lnk23" id="link_UC_DEADLINES_UC_SEE_TIMELINE"><path d="M285.66,541.8079 C332.98,530.9379 405.5423,514.2811 456.2623,502.6311" fill="none" id="UC_DEADLINES-to-UC_SEE_TIMELINE" style="stroke:#181818;stroke-width:1;stroke-dasharray:7,7;"/><polygon fill="#181818" points="462.11,501.2879,452.443,499.4042,457.2369,502.4072,454.2339,507.2012,462.11,501.2879" style="stroke:#181818;stroke-width:1;"/><text fill="#000000" font-family="sans-serif" font-size="13" lengthAdjust="spacing" textLength="57.5771" x="354.39" y="509.2049">&#171;include&#187;</text></g><!--link UC_PROGRESS to UC_WHO_DID--><g class="link" data-entity-1="UC_PROGRESS" data-entity-2="UC_WHO_DID" data-source-line="49" data-uid="lnk24" id="link_UC_PROGRESS_UC_WHO_DID"><path d="M281.14,678.9579 C331.56,698.5079 417.3859,731.7785 468.4159,751.5685" fill="none" id="UC_PROGRESS-to-UC_WHO_DID" style="stroke:#181818;stroke-width:1;stroke-dasharray:7,7;"/><polygon fill="#181818" points="474.01,753.7379,467.0652,746.7544,469.3483,751.9301,464.1726,754.2131,474.01,753.7379" style="stroke:#181818;stroke-width:1;"/><text fill="#000000" font-family="sans-serif" font-size="13" lengthAdjust="spacing" textLength="57.5771" x="354.39" y="703.2349">&#171;include&#187;</text></g><!--link UC_PROGRESS to UC_STATUS_VIEW--><g class="link" data-entity-1="UC_PROGRESS" data-entity-2="UC_STATUS_VIEW" data-source-line="50" data-uid="lnk25" id="link_UC_PROGRESS_UC_STATUS_VIEW"><path d="M307.6,667.4079 C358.67,669.3379 423.3442,671.7729 466.5142,673.3929" fill="none" id="UC_PROGRESS-to-UC_STATUS_VIEW" style="stroke:#181818;stroke-width:1;stroke-dasharray:7,7;"/><polygon fill="#181818" points="472.51,673.6179,463.6663,669.2832,467.5135,673.4304,463.3663,677.2776,472.51,673.6179" style="stroke:#181818;stroke-width:1;"/><text fill="#000000" font-family="sans-serif" font-size="13" lengthAdjust="spacing" textLength="57.5771" x="354.39" y="665.0649">&#171;include&#187;</text></g><!--link Student to UC_BREAK--><g class="link" data-entity-1="Student" data-entity-2="UC_BREAK" data-source-line="53" data-uid="lnk26" id="link_Student_UC_BREAK"><path d="M102.61,479.7179 C140.39,450.0079 186.8744,413.4578 215.9444,390.5878" fill="none" id="Student-to-UC_BREAK" style="stroke:#181818;stroke-width:1;"/><polygon fill="#181818" points="220.66,386.8779,211.1134,389.299,216.7303,389.9695,216.0598,395.5864,220.66,386.8779" style="stroke:#181818;stroke-width:1;"/></g><!--link Student to UC_ASSIGN--><g class="link" data-entity-1="Student" data-entity-2="UC_ASSIGN" data-source-line="54" data-uid="lnk27" id="link_Student_UC_ASSIGN"><path d="M88.64,467.7979 C93.51,459.7079 98.23,451.2779 102.24,443.0679 C124.98,396.4479 107.92,372.8279 141.24,333.0679 C158.51,312.4479 179.61,300.0659 201.33,290.5959" fill="none" id="Student-to-UC_ASSIGN" style="stroke:#181818;stroke-width:1;"/><polygon fill="#181818" points="206.83,288.1979,196.9814,288.1283,202.2467,290.1963,200.1787,295.4616,206.83,288.1979" style="stroke:#181818;stroke-width:1;"/></g><!--link Student to UC_DEADLINES--><g class="link" data-entity-1="Student" data-entity-2="UC_DEADLINES" data-source-line="55" data-uid="lnk28" id="link_Student_UC_DEADLINES"><path d="M102.61,525.6479 C132.66,531.0779 165.2958,536.9701 194.4358,542.2401" fill="none" id="Student-to-UC_DEADLINES" style="stroke:#181818;stroke-width:1;"/><polygon fill="#181818" points="200.34,543.3079,192.1955,537.7701,195.4198,542.4181,190.7718,545.6424,200.34,543.3079" style="stroke:#181818;stroke-width:1;"/></g><!--link Student to UC_PROGRESS--><g class="link" data-entity-1="Student" data-entity-2="UC_PROGRESS" data-source-line="56" data-uid="lnk29" id="link_Student_UC_PROGRESS"><path d="M102.47,554.5079 C115.06,564.4479 128.66,575.1779 141.24,585.0679 C169.55,607.3379 197.6239,629.3314 218.2339,645.4514" fill="none" id="Student-to-UC_PROGRESS" style="stroke:#181818;stroke-width:1;"/><polygon fill="#181818" points="222.96,649.1479,218.3352,640.4525,219.0216,646.0675,213.4065,646.7539,222.96,649.1479" style="stroke:#181818;stroke-width:1;"/></g><!--link Lead to UC_BREAK--><g class="link" data-entity-1="Lead" data-entity-2="UC_BREAK" data-source-line="58" data-uid="lnk30" id="link_Lead_UC_BREAK"><path d="M90.52,374.7479 C111.81,373.9579 133.7841,373.14 159.9741,372.17" fill="none" id="Lead-to-UC_BREAK" style="stroke:#181818;stroke-width:1;"/><polygon fill="#181818" points="165.97,371.9479,156.8281,368.2838,160.9734,372.133,157.1242,376.2783,165.97,371.9479" style="stroke:#181818;stroke-width:1;"/></g><!--link Lead to UC_ASSIGN--><g class="link" data-entity-1="Lead" data-entity-2="UC_ASSIGN" data-source-line="59" data-uid="lnk31" id="link_Lead_UC_ASSIGN"><path d="M90.52,357.0679 C126.82,337.5879 177.2631,310.515 210.4331,292.715" fill="none" id="Lead-to-UC_ASSIGN" style="stroke:#181818;stroke-width:1;"/><polygon fill="#181818" points="215.72,289.8779,205.8983,290.609,211.3143,292.2422,209.6811,297.6581,215.72,289.8779" style="stroke:#181818;stroke-width:1;"/></g><!--link Lead to UC_DEADLINES--><g class="link" data-entity-1="Lead" data-entity-2="UC_DEADLINES" data-source-line="60" data-uid="lnk32" id="link_Lead_UC_DEADLINES"><path d="M90.52,408.9879 C131.19,446.8079 191.8369,503.1912 222.2369,531.4712" fill="none" id="Lead-to-UC_DEADLINES" style="stroke:#181818;stroke-width:1;"/><polygon fill="#181818" points="226.63,535.5579,222.7649,526.4992,222.9691,532.1523,217.316,532.3566,226.63,535.5579" style="stroke:#181818;stroke-width:1;"/></g><!--link Lead to UC_PROGRESS--><g class="link" data-entity-1="Lead" data-entity-2="UC_PROGRESS" data-source-line="61" data-uid="lnk33" id="link_Lead_UC_PROGRESS"><path d="M89.23,425.5779 C93.97,433.5679 98.49,441.8979 102.24,450.0679 C122.15,493.5279 120.55,506.9779 133.24,553.0679 C137.13,567.1979 133.26,572.7679 141.24,585.0679 C159.74,613.5879 186.771,633.2344 210.061,647.0644" fill="none" id="Lead-to-UC_PROGRESS" style="stroke:#181818;stroke-width:1;"/><polygon fill="#181818" points="215.22,650.1279,209.5239,642.0934,210.9209,647.575,205.4392,648.972,215.22,650.1279" style="stroke:#181818;stroke-width:1;"/></g><!--link Advisor to UC_PROGRESS--><g class="link" data-entity-1="Advisor" data-entity-2="UC_PROGRESS" data-source-line="64" data-uid="lnk34" id="link_Advisor_UC_PROGRESS"><path d="M87.04,665.0679 C112.53,665.0679 143.02,665.0679 174.33,665.0679" fill="none" id="Advisor-to-UC_PROGRESS" style="stroke:#181818;stroke-width:1;"/><polygon fill="#181818" points="180.33,665.0679,171.33,661.0679,175.33,665.0679,171.33,669.0679,180.33,665.0679" style="stroke:#181818;stroke-width:1;"/></g><!--SRC=[TLNBRjim4BphAnQ-D3aulHU10JaYN26o7LXoqeC0WR6s3ck9CaWwGL3qsW_e9_PBGefwKB9pevQpm-7ESbNWJmMg0i7sBmfo9d2dMCKzJp5L86mvUqKXcNg7XQXEHtWGrIyDyRmlC9rE8TBfKybo1BfJbP0cwDLBcCJgb2DNAK-Gbh34yXd51AY4PgF5rTiHqZpbLzNHd4wBwnfeWfvd956-rsecVXGkLk4Fc7ugp1xmBXMMyDlp0ApE9MKSJX9XHoLQbM2-pITCvWBfGITAjkUbLbQJRE-o-ORuzoxGho7mLeb3Y_7ZM6joGO5MNJ2EieK4n0-YS4LY5nKZmb5KUu6o0pvireiDYUDUTyXtXIvM3ZagoWghlDuTQtQvb_I0eAWyo9GVKO2qfhR797vy7sSnkKl2zMeWofRIoSonC7McpmKEimCIXOzMYLEK2xLgo7IBbNK7o67XiYLPpibcu0OjADzXoWrZKT6yiyEF_DKTiQTsLHuMLVVmIQVcLFNrZqcI1NvoNlyQbV9AgsGb6hO-XMH9k2J6DdkUwzUOv-sbqaUoN2zerpnFtzTP40PZhAb7ogMYwjGBJFna6sUF8Ndo_hHFQsDUfFEstAVbvwzCwiNNb8UQIvnCk6PhTbeIPli711RKj81jeBQruUPcTjuGy0rkRvl4sUmJSEt_2EbrhhROWSVdl4DmO-y5qku1jT3EqNFE2zZUoWlSxPjhuOrjvyHZe6FQcDRMthSJyV_VVr0EnyzLeSVcTMr5CmlrUjPFd56m6J6ZQ3zLHXlz537pSyZiHXfQDzHpkj6UqBdOnNlLVn5xiRP5nnmV]--></g></svg>