<svg xmlns="http://www.w3.org/2000/svg" xmlns:xlink="http://www.w3.org/1999/xlink" contentStyleType="text/css" data-diagram-type="DESCRIPTION" height="1075px" preserveAspectRatio="none" style="width:555px;height:1075px;background:#FFFFFF;" version="1.1" viewBox="0 0 555 1075" width="555px" zoomAndPan="magnify"><title>Startup Product Launch</title><defs/><g><g class="title" data-source-line="3"><text fill="#000000" font-family="sans-serif" font-size="14" font-weight="bold" lengthAdjust="spacing" textLength="166.3194" x="187.8303" y="24.9659">Startup Product Launch</text></g><!--cluster System--><g class="cluster" data-entity="System" data-source-line="11" data-uid="ent0005" id="cluster_System"><rect fill="none" height="1022" rx="2.5" ry="2.5" style="stroke:#181818;stroke-width:1;" width="417.99" x="131.99" y="47.0679"/><text fill="#000000" font-family="sans-serif" font-size="14" font-weight="bold" lengthAdjust="spacing" textLength="237.4251" x="222.2725" y="64.0339">ALIGNIX - Startup Product Launch</text></g><!--entity UC_MVP--><g class="entity" data-entity="UC_MVP" data-source-line="14" data-uid="ent0006" id="entity_UC_MVP"><ellipse cx="225.129" cy="913.071" fill="#F1F1F1" rx="65.129" ry="16.4831" style="stroke:#181818;stroke-width:0.5;"/><text fill="#000000" font-family="sans-serif" font-size="14" lengthAdjust="spacing" textLength="87.8637" x="181.1972" y="919.1049">MVP features</text></g><!--entity UC_CROSS--><g class="entity" data-entity="UC_CROSS" data-source-line="15" data-uid="ent0007" id="entity_UC_CROSS"><ellipse cx="225.1302" cy="378.072" fill="#F1F1F1" rx="76.2702" ry="17.654" style="stroke:#181818;stroke-width:0.5;"/><text fill="#000000" font-family="sans-serif" font-size="14" lengthAdjust="spacing" textLength="111.2856" x="169.4875" y="384.1059">Cross-team work</text></g><!--entity UC_LAUNCH--><g class="entity" data-entity="UC_LAUNCH" data-source-line="16" data-uid="ent0008" id="entity_UC_LAUNCH"><ellipse cx="225.1338" cy="728.071" fill="#F1F1F1" rx="52.8438" ry="16.4831" style="stroke:#181818;stroke-width:0.5;"/><text fill="#000000" font-family="sans-serif" font-size="14" lengthAdjust="spacing" textLength="70.4897" x="189.8889" y="734.1049">Launch list</text></g><!--entity UC_PROGRESS--><g class="entity" data-entity="UC_PROGRESS" data-source-line="17" data-uid="ent0009" id="entity_UC_PROGRESS"><ellipse cx="225.1347" cy="169.071" fill="#F1F1F1" rx="63.5847" ry="16.4831" style="stroke:#181818;stroke-width:0.5;"/><text fill="#000000" font-family="sans-serif" font-size="14" lengthAdjust="spacing" textLength="85.6797" x="182.2948" y="175.1049">See progress</text></g><!--entity UC_POSTBUGS--><g class="entity" data-entity="UC_POSTBUGS" data-source-line="18" data-uid="ent0010" id="entity_UC_POSTBUGS"><ellipse cx="225.1305" cy="593.066" fill="#F1F1F1" rx="77.1405" ry="17.8281" style="stroke:#181818;stroke-width:0.5;"/><text fill="#000000" font-family="sans-serif" font-size="14" lengthAdjust="spacing" textLength="113.5676" x="168.3467" y="599.1">Post-launch bugs</text></g><!--entity UC_BACKLOG--><g class="entity" data-entity="UC_BACKLOG" data-source-line="23" data-uid="ent0011" id="entity_UC_BACKLOG"><ellipse cx="477.6277" cy="945.071" fill="#F1F1F1" rx="39.6577" ry="16.4831" style="stroke:#181818;stroke-width:0.5;"/><text fill="#000000" font-family="sans-serif" font-size="14" lengthAdjust="spacing" textLength="51.8418" x="451.7068" y="951.1049">Backlog</text></g><!--entity UC_DONE--><g class="entity" data-entity="UC_DONE" data-source-line="24" data-uid="ent0012" id="entity_UC_DONE"><ellipse cx="477.6305" cy="1025.0662" fill="#F1F1F1" rx="38.1605" ry="28.1383" style="stroke:#181818;stroke-width:0.5;"/><text fill="#000000" font-family="sans-serif" font-size="14" lengthAdjust="spacing" textLength="53.3398" x="450.9606" y="1024.2528">Move to</text><text fill="#000000" font-family="sans-serif" font-size="14" lengthAdjust="spacing" textLength="35.2379" x="460.0115" y="1043.3207">Done</text></g><!--entity UC_TO_DEV--><g class="entity" data-entity="UC_TO_DEV" data-source-line="27" data-uid="ent0013" id="entity_UC_TO_DEV"><ellipse cx="477.6311" cy="340.0672" fill="#F1F1F1" rx="41.4511" ry="27.2793" style="stroke:#181818;stroke-width:0.5;"/><text fill="#000000" font-family="sans-serif" font-size="14" lengthAdjust="spacing" textLength="60.3958" x="447.4333" y="340.6052">Assign to</text><text fill="#000000" font-family="sans-serif" font-size="14" lengthAdjust="spacing" textLength="23.6179" x="465.8222" y="359.6731">dev</text></g><!--entity UC_TO_DESIGN--><g class="entity" data-entity="UC_TO_DESIGN" data-source-line="28" data-uid="ent0014" id="entity_UC_TO_DESIGN"><ellipse cx="477.6296" cy="249.0681" fill="#F1F1F1" rx="43.2896" ry="28.4402" style="stroke:#181818;stroke-width:0.5;"/><text fill="#000000" font-family="sans-serif" font-size="14" lengthAdjust="spacing" textLength="60.3958" x="447.4317" y="247.7951">Assign to</text><text fill="#000000" font-family="sans-serif" font-size="14" lengthAdjust="spacing" textLength="44.0858" x="455.5867" y="266.863">design</text></g><!--entity UC_TO_MKT--><g class="entity" data-entity="UC_TO_MKT" data-source-line="29" data-uid="ent0015" id="entity_UC_TO_MKT"><ellipse cx="477.6256" cy="432.07" fill="#F1F1F1" rx="49.8456" ry="29.2621" style="stroke:#181818;stroke-width:0.5;"/><text fill="#000000" font-family="sans-serif" font-size="14" lengthAdjust="spacing" textLength="60.3958" x="447.4277" y="427.5606">Assign to</text><text fill="#000000" font-family="sans-serif" font-size="14" lengthAdjust="spacing" textLength="68.0257" x="443.6127" y="446.6285">marketing</text></g><!--entity UC_LAUNCH_TASKS--><g class="entity" data-entity="UC_LAUNCH_TASKS" data-source-line="32" data-uid="ent0016" id="entity_UC_LAUNCH_TASKS"><ellipse cx="477.6269" cy="776.067" fill="#F1F1F1" rx="56.3569" ry="27.3091" style="stroke:#181818;stroke-width:0.5;"/><text fill="#000000" font-family="sans-serif" font-size="14" lengthAdjust="spacing" textLength="83.7057" x="435.774" y="776.5569">Make launch</text><text fill="#000000" font-family="sans-serif" font-size="14" lengthAdjust="spacing" textLength="33.7959" x="460.7289" y="795.6248">tasks</text></g><!--entity UC_LAUNCH_DATES--><g class="entity" data-entity="UC_LAUNCH_DATES" data-source-line="33" data-uid="ent0017" id="entity_UC_LAUNCH_DATES"><ellipse cx="477.6313" cy="685.0714" fill="#F1F1F1" rx="35.9813" ry="28.4435" style="stroke:#181818;stroke-width:0.5;"/><text fill="#000000" font-family="sans-serif" font-size="14" lengthAdjust="spacing" textLength="49.4338" x="452.9144" y="683.7934">Set due</text><text fill="#000000" font-family="sans-serif" font-size="14" lengthAdjust="spacing" textLength="36.1199" x="459.5713" y="702.8613">dates</text></g><!--entity UC_LAUNCH_STATUS--><g class="entity" data-entity="UC_LAUNCH_STATUS" data-source-line="34" data-uid="ent0018" id="entity_UC_LAUNCH_STATUS"><ellipse cx="477.6333" cy="866.0706" fill="#F1F1F1" rx="34.0533" ry="27.8427" style="stroke:#181818;stroke-width:0.5;"/><text fill="#000000" font-family="sans-serif" font-size="14" lengthAdjust="spacing" textLength="39.5918" x="457.8374" y="862.4981">Check</text><text fill="#000000" font-family="sans-serif" font-size="14" lengthAdjust="spacing" textLength="40.0259" x="457.6204" y="881.566">status</text></g><!--entity UC_PROG_BOARD--><g class="entity" data-entity="UC_PROG_BOARD" data-source-line="37" data-uid="ent0019" id="entity_UC_PROG_BOARD"><ellipse cx="477.6328" cy="169.071" fill="#F1F1F1" rx="49.9828" ry="16.4831" style="stroke:#181818;stroke-width:0.5;"/><text fill="#000000" font-family="sans-serif" font-size="14" lengthAdjust="spacing" textLength="66.4438" x="444.411" y="175.1049">See board</text></g><!--entity UC_PROG_CHARTS--><g class="entity" data-entity="UC_PROG_CHARTS" data-source-line="38" data-uid="ent0020" id="entity_UC_PROG_CHARTS"><ellipse cx="477.6325" cy="101.071" fill="#F1F1F1" rx="51.0025" ry="16.4831" style="stroke:#181818;stroke-width:0.5;"/><text fill="#000000" font-family="sans-serif" font-size="14" lengthAdjust="spacing" textLength="67.8857" x="443.6896" y="107.1049">See charts</text></g><!--entity UC_LOG_BUGS--><g class="entity" data-entity="UC_LOG_BUGS" data-source-line="41" data-uid="ent0021" id="entity_UC_LOG_BUGS"><ellipse cx="477.6346" cy="513.071" fill="#F1F1F1" rx="45.8746" ry="16.4831" style="stroke:#181818;stroke-width:0.5;"/><text fill="#000000" font-family="sans-serif" font-size="14" lengthAdjust="spacing" textLength="60.6338" x="447.3177" y="519.1049">Log bugs</text></g><!--entity UC_URGENT--><g class="entity" data-entity="UC_URGENT" data-source-line="42" data-uid="ent0022" id="entity_UC_URGENT"><ellipse cx="477.6328" cy="593.0717" fill="#F1F1F1" rx="48.7128" ry="28.2938" style="stroke:#181818;stroke-width:0.5;"/><text fill="#000000" font-family="sans-serif" font-size="14" lengthAdjust="spacing" textLength="68.9217" x="443.1719" y="592.0206">Set urgent</text><text fill="#000000" font-family="sans-serif" font-size="14" lengthAdjust="spacing" textLength="48.0618" x="453.6019" y="611.0885">priority</text></g><!--entity Founder--><g class="entity" data-entity="Founder" data-source-line="6" data-uid="ent0002" id="entity_Founder"><ellipse cx="45.4939" cy="384.0379" fill="#F1F1F1" rx="8" ry="8" style="stroke:#181818;stroke-width:0.5;"/><path d="M45.4939,392.0379 L45.4939,419.0379 M32.4939,400.0379 L58.4939,400.0379 M45.4939,419.0379 L32.4939,434.0379 M45.4939,419.0379 L58.4939,434.0379" fill="none" style="stroke:#181818;stroke-width:0.5;"/><text fill="#000000" font-family="sans-serif" font-size="14" lengthAdjust="spacing" textLength="55.3278" x="17.83" y="450.5039">Founder</text></g><!--entity PM--><g class="entity" data-entity="PM" data-source-line="7" data-uid="ent0003" id="entity_PM"><ellipse cx="45.4929" cy="579.4979" fill="#F1F1F1" rx="8" ry="8" style="stroke:#181818;stroke-width:0.5;"/><path d="M45.4929,587.4979 L45.4929,614.4979 M32.4929,595.4979 L58.4929,595.4979 M45.4929,614.4979 L32.4929,629.4979 M45.4929,614.4979 L58.4929,629.4979" fill="none" style="stroke:#181818;stroke-width:0.5;"/><text fill="#000000" font-family="sans-serif" font-size="14" lengthAdjust="spacing" textLength="51.7578" x="15.82" y="645.9639">Product</text><text fill="#000000" font-family="sans-serif" font-size="14" lengthAdjust="spacing" textLength="59.3458" x="15.82" y="665.0318">Manager</text></g><!--entity Stakeholder--><g class="entity" data-entity="Stakeholder" data-source-line="8" data-uid="ent0004" id="entity_Stakeholder"><ellipse cx="45.4939" cy="97.0379" fill="#F1F1F1" rx="8" ry="8" style="stroke:#181818;stroke-width:0.5;"/><path d="M45.4939,105.0379 L45.4939,132.0379 M32.4939,113.0379 L58.4939,113.0379 M45.4939,132.0379 L32.4939,147.0379 M45.4939,132.0379 L58.4939,147.0379" fill="none" style="stroke:#181818;stroke-width:0.5;"/><text fill="#000000" font-family="sans-serif" font-size="14" lengthAdjust="spacing" textLength="78.9877" x="6" y="163.5039">Stakeholder</text></g><!--entity Dev--><g class="entity" data-entity="Dev" data-source-line="46" data-uid="ent0023" id="entity_Dev"><ellipse cx="45.4969" cy="835.0379" fill="#F1F1F1" rx="8" ry="8" style="stroke:#181818;stroke-width:0.5;"/><path d="M45.4969,843.0379 L45.4969,870.0379 M32.4969,851.0379 L58.4969,851.0379 M45.4969,870.0379 L32.4969,885.0379 M45.4969,870.0379 L58.4969,885.0379" fill="none" style="stroke:#181818;stroke-width:0.5;"/><text fill="#000000" font-family="sans-serif" font-size="14" lengthAdjust="spacing" textLength="67.4937" x="11.75" y="901.5039">Developer</text></g><!--entity Designer--><g class="entity" data-entity="Designer" data-source-line="47" data-uid="ent0024" id="entity_Designer"><ellipse cx="45.4969" cy="721.0379" fill="#F1F1F1" rx="8" ry="8" style="stroke:#181818;stroke-width:0.5;"/><path d="M45.4969,729.0379 L45.4969,756.0379 M32.4969,737.0379 L58.4969,737.0379 M45.4969,756.0379 L32.4969,771.0379 M45.4969,756.0379 L58.4969,771.0379" fill="none" style="stroke:#181818;stroke-width:0.5;"/><text fill="#000000" font-family="sans-serif" font-size="14" lengthAdjust="spacing" textLength="59.3738" x="15.81" y="787.5039">Designer</text></g><!--entity Marketing--><g class="entity" data-entity="Marketing" data-source-line="48" data-uid="ent0025" id="entity_Marketing"><ellipse cx="45.4969" cy="220.0379" fill="#F1F1F1" rx="8" ry="8" style="stroke:#181818;stroke-width:0.5;"/><path d="M45.4969,228.0379 L45.4969,255.0379 M32.4969,236.0379 L58.4969,236.0379 M45.4969,255.0379 L32.4969,270.0379 M45.4969,255.0379 L58.4969,270.0379" fill="none" style="stroke:#181818;stroke-width:0.5;"/><text fill="#000000" font-family="sans-serif" font-size="14" lengthAdjust="spacing" textLength="67.6337" x="11.68" y="286.5039">Marketing</text></g><!--link UC_MVP to UC_BACKLOG--><g class="link" data-entity-1="UC_MVP" data-entity-2="UC_BACKLOG" data-source-line="51" data-uid="lnk26" id="link_UC_MVP_UC_BACKLOG"><path d="M283.91,920.4479 C331.74,926.5579 392.3185,934.2969 433.3785,939.5469" fill="none" id="UC_MVP-to-UC_BACKLOG" style="stroke:#181818;stroke-width:1;stroke-dasharray:7,7;"/><polygon fill="#181818" points="439.33,940.3079,430.91,935.1988,434.3704,939.6738,429.8954,943.1342,439.33,940.3079" style="stroke:#181818;stroke-width:1;"/><text fill="#000000" font-family="sans-serif" font-size="13" lengthAdjust="spacing" textLength="57.5771" x="333.27" y="923.0449">&#171;include&#187;</text></g><!--link UC_MVP to UC_DONE--><g class="link" data-entity-1="UC_MVP" data-entity-2="UC_DONE" data-source-line="52" data-uid="lnk27" id="link_UC_MVP_UC_DONE"><path d="M258.15,927.6279 C279.2,937.1679 307.35,949.9079 332.27,961.0679 C370.68,978.2679 409.4313,995.4241 438.7113,1008.3541" fill="none" id="UC_MVP-to-UC_DONE" style="stroke:#181818;stroke-width:1;stroke-dasharray:7,7;"/><polygon fill="#181818" points="444.2,1010.7779,437.5829,1003.4831,439.6261,1008.7581,434.3512,1010.8013,444.2,1010.7779" style="stroke:#181818;stroke-width:1;"/><text fill="#000000" font-family="sans-serif" font-size="13" lengthAdjust="spacing" textLength="57.5771" x="333.27" y="956.9649">&#171;include&#187;</text></g><!--link UC_CROSS to UC_TO_DEV--><g class="link" data-entity-1="UC_CROSS" data-entity-2="UC_TO_DEV" data-source-line="54" data-uid="lnk28" id="link_UC_CROSS_UC_TO_DEV"><path d="M289.99,368.3779 C336.23,361.3679 391.3677,352.9967 430.8377,347.0167" fill="none" id="UC_CROSS-to-UC_TO_DEV" style="stroke:#181818;stroke-width:1;stroke-dasharray:7,7;"/><polygon fill="#181818" points="436.77,346.1179,427.2724,343.5112,431.8264,346.8669,428.4707,351.421,436.77,346.1179" style="stroke:#181818;stroke-width:1;"/><text fill="#000000" font-family="sans-serif" font-size="13" lengthAdjust="spacing" textLength="57.5771" x="333.27" y="349.3449">&#171;include&#187;</text></g><!--link UC_CROSS to UC_TO_DESIGN--><g class="link" data-entity-1="UC_CROSS" data-entity-2="UC_TO_DESIGN" data-source-line="55" data-uid="lnk29" id="link_UC_CROSS_UC_TO_DESIGN"><path d="M257.85,361.7279 C305.25,337.3279 388.8156,294.2847 437.4256,269.2547" fill="none" id="UC_CROSS-to-UC_TO_DESIGN" style="stroke:#181818;stroke-width:1;stroke-dasharray:7,7;"/><polygon fill="#181818" points="442.76,266.5079,432.9273,267.0718,438.3147,268.7969,436.5896,274.1843,442.76,266.5079" style="stroke:#181818;stroke-width:1;"/><text fill="#000000" font-family="sans-serif" font-size="13" lengthAdjust="spacing" textLength="57.5771" x="333.27" y="290.3749">&#171;include&#187;</text></g><!--link UC_CROSS to UC_TO_MKT--><g class="link" data-entity-1="UC_CROSS" data-entity-2="UC_TO_MKT" data-source-line="56" data-uid="lnk30" id="link_UC_CROSS_UC_TO_MKT"><path d="M282.03,390.1179 C326.73,399.7579 382.7747,411.8336 424.6647,420.8636" fill="none" id="UC_CROSS-to-UC_TO_MKT" style="stroke:#181818;stroke-width:1;stroke-dasharray:7,7;"/><polygon fill="#181818" points="430.53,422.1279,422.575,416.3212,425.6423,421.0743,420.8892,424.1416,430.53,422.1279" style="stroke:#181818;stroke-width:1;"/><text fill="#000000" font-family="sans-serif" font-size="13" lengthAdjust="spacing" textLength="57.5771" x="333.27" y="397.7349">&#171;include&#187;</text></g><!--link UC_LAUNCH to UC_LAUNCH_TASKS--><g class="link" data-entity-1="UC_LAUNCH" data-entity-2="UC_LAUNCH_TASKS" data-source-line="58" data-uid="lnk31" id="link_UC_LAUNCH_UC_LAUNCH_TASKS"><path d="M270.91,736.6479 C314.12,744.9279 373.5772,756.3189 418.9872,765.0189" fill="none" id="UC_LAUNCH-to-UC_LAUNCH_TASKS" style="stroke:#181818;stroke-width:1;stroke-dasharray:7,7;"/><polygon fill="#181818" points="424.88,766.1479,416.7934,760.5259,419.9693,765.2071,415.2881,768.383,424.88,766.1479" style="stroke:#181818;stroke-width:1;"/><text fill="#000000" font-family="sans-serif" font-size="13" lengthAdjust="spacing" textLength="57.5771" x="333.27" y="745.0949">&#171;include&#187;</text></g><!--link UC_LAUNCH to UC_LAUNCH_DATES--><g class="link" data-entity-1="UC_LAUNCH" data-entity-2="UC_LAUNCH_DATES" data-source-line="59" data-uid="lnk32" id="link_UC_LAUNCH_UC_LAUNCH_DATES"><path d="M272.07,720.1779 C321.23,711.7479 392.1466,699.5738 436.3266,691.9838" fill="none" id="UC_LAUNCH-to-UC_LAUNCH_DATES" style="stroke:#181818;stroke-width:1;stroke-dasharray:7,7;"/><polygon fill="#181818" points="442.24,690.9679,432.6927,688.5495,437.3122,691.8145,434.0472,696.434,442.24,690.9679" style="stroke:#181818;stroke-width:1;"/><text fill="#000000" font-family="sans-serif" font-size="13" lengthAdjust="spacing" textLength="57.5771" x="333.27" y="696.1049">&#171;include&#187;</text></g><!--link UC_LAUNCH to UC_LAUNCH_STATUS--><g class="link" data-entity-1="UC_LAUNCH" data-entity-2="UC_LAUNCH_STATUS" data-source-line="60" data-uid="lnk33" id="link_UC_LAUNCH_UC_LAUNCH_STATUS"><path d="M252.46,742.5779 C300.07,768.7979 394.775,820.9723 443.485,847.8123" fill="none" id="UC_LAUNCH-to-UC_LAUNCH_STATUS" style="stroke:#181818;stroke-width:1;stroke-dasharray:7,7;"/><polygon fill="#181818" points="448.74,850.7079,442.7878,842.8611,444.3608,848.2949,438.927,849.8679,448.74,850.7079" style="stroke:#181818;stroke-width:1;"/><text fill="#000000" font-family="sans-serif" font-size="13" lengthAdjust="spacing" textLength="57.5771" x="333.27" y="784.7049">&#171;include&#187;</text></g><!--link UC_PROGRESS to UC_PROG_BOARD--><g class="link" data-entity-1="UC_PROGRESS" data-entity-2="UC_PROG_BOARD" data-source-line="62" data-uid="lnk34" id="link_UC_PROGRESS_UC_PROG_BOARD"><path d="M289.02,169.0679 C331.91,169.0679 381.92,169.0679 421.53,169.0679" fill="none" id="UC_PROGRESS-to-UC_PROG_BOARD" style="stroke:#181818;stroke-width:1;stroke-dasharray:7,7;"/><polygon fill="#181818" points="427.53,169.0679,418.53,165.0679,422.53,169.0679,418.53,173.0679,427.53,169.0679" style="stroke:#181818;stroke-width:1;"/><text fill="#000000" font-family="sans-serif" font-size="13" lengthAdjust="spacing" textLength="57.5771" x="333.27" y="164.9649">&#171;include&#187;</text></g><!--link UC_PROGRESS to UC_PROG_CHARTS--><g class="link" data-entity-1="UC_PROGRESS" data-entity-2="UC_PROG_CHARTS" data-source-line="63" data-uid="lnk35" id="link_UC_PROGRESS_UC_PROG_CHARTS"><path d="M270.34,157.0679 C317.81,144.1779 386.7198,125.4808 431.9998,113.1808" fill="none" id="UC_PROGRESS-to-UC_PROG_CHARTS" style="stroke:#181818;stroke-width:1;stroke-dasharray:7,7;"/><polygon fill="#181818" points="437.79,111.6079,428.0562,110.1071,432.9649,112.9186,430.1533,117.8273,437.79,111.6079" style="stroke:#181818;stroke-width:1;"/><text fill="#000000" font-family="sans-serif" font-size="13" lengthAdjust="spacing" textLength="57.5771" x="333.27" y="120.9049">&#171;include&#187;</text></g><!--link UC_POSTBUGS to UC_LOG_BUGS--><g class="link" data-entity-1="UC_POSTBUGS" data-entity-2="UC_LOG_BUGS" data-source-line="65" data-uid="lnk36" id="link_UC_POSTBUGS_UC_LOG_BUGS"><path d="M271.78,578.4879 C321.03,562.7579 392.6043,539.903 436.8243,525.783" fill="none" id="UC_POSTBUGS-to-UC_LOG_BUGS" style="stroke:#181818;stroke-width:1;stroke-dasharray:7,7;"/><polygon fill="#181818" points="442.54,523.9579,432.7497,522.8851,437.7769,525.4788,435.1832,530.506,442.54,523.9579" style="stroke:#181818;stroke-width:1;"/><text fill="#000000" font-family="sans-serif" font-size="13" lengthAdjust="spacing" textLength="57.5771" x="333.27" y="537.1249">&#171;include&#187;</text></g><!--link UC_POSTBUGS to UC_URGENT--><g class="link" data-entity-1="UC_POSTBUGS" data-entity-2="UC_URGENT" data-source-line="66" data-uid="lnk37" id="link_UC_POSTBUGS_UC_URGENT"><path d="M302.65,593.0679 C343.65,593.0679 386.91,593.0679 422.54,593.0679" fill="none" id="UC_POSTBUGS-to-UC_URGENT" style="stroke:#181818;stroke-width:1;stroke-dasharray:7,7;"/><polygon fill="#181818" points="428.54,593.0679,419.54,589.0679,423.54,593.0679,419.54,597.0679,428.54,593.0679" style="stroke:#181818;stroke-width:1;"/><text fill="#000000" font-family="sans-serif" font-size="13" lengthAdjust="spacing" textLength="57.5771" x="333.27" y="588.9649">&#171;include&#187;</text></g><!--link Founder to UC_MVP--><g class="link" data-entity-1="Founder" data-entity-2="UC_MVP" data-source-line="69" data-uid="lnk38" id="link_Founder_UC_MVP"><path d="M58.63,454.9879 C66.72,482.4179 77.25,519.7579 84.99,553.0679 C106.37,645.1079 88.5,674.4979 123.99,762.0679 C145.73,815.7079 184.1092,865.6383 206.1392,892.0783" fill="none" id="Founder-to-UC_MVP" style="stroke:#181818;stroke-width:1;"/><polygon fill="#181818" points="209.98,896.6879,207.2919,887.213,206.7794,892.8466,201.1458,892.334,209.98,896.6879" style="stroke:#181818;stroke-width:1;"/></g><!--link Founder to UC_CROSS--><g class="link" data-entity-1="Founder" data-entity-2="UC_CROSS" data-source-line="70" data-uid="lnk39" id="link_Founder_UC_CROSS"><path d="M73.64,402.8779 C86.01,397.8179 101,392.3679 114.99,389.0679 C126.57,386.3379 133.0575,385.0312 145.2275,383.4912" fill="none" id="Founder-to-UC_CROSS" style="stroke:#181818;stroke-width:1;"/><polygon fill="#181818" points="151.18,382.7379,141.749,379.8994,146.2196,383.3656,142.7534,387.8361,151.18,382.7379" style="stroke:#181818;stroke-width:1;"/></g><!--link Founder to UC_LAUNCH--><g class="link" data-entity-1="Founder" data-entity-2="UC_LAUNCH" data-source-line="71" data-uid="lnk40" id="link_Founder_UC_LAUNCH"><path d="M55.37,454.7079 C66.58,499.3379 88.77,572.8179 123.99,628.0679 C146.04,662.6679 177.2802,690.8982 199.5702,708.9782" fill="none" id="Founder-to-UC_LAUNCH" style="stroke:#181818;stroke-width:1;"/><polygon fill="#181818" points="204.23,712.7579,199.7601,703.9818,200.3468,709.6082,194.7205,710.1949,204.23,712.7579" style="stroke:#181818;stroke-width:1;"/></g><!--link Founder to UC_PROGRESS--><g class="link" data-entity-1="Founder" data-entity-2="UC_PROGRESS" data-source-line="72" data-uid="lnk41" id="link_Founder_UC_PROGRESS"><path d="M73.47,377.7079 C112.78,323.2679 180.6573,229.2722 208.7773,190.3322" fill="none" id="Founder-to-UC_PROGRESS" style="stroke:#181818;stroke-width:1;"/><polygon fill="#181818" points="212.29,185.4679,203.7781,190.4225,209.3628,189.5215,210.2638,195.1061,212.29,185.4679" style="stroke:#181818;stroke-width:1;"/></g><!--link Founder to UC_POSTBUGS--><g class="link" data-entity-1="Founder" data-entity-2="UC_POSTBUGS" data-source-line="73" data-uid="lnk42" id="link_Founder_UC_POSTBUGS"><path d="M73.47,442.0979 C110.35,479.0579 171.2421,540.0705 202.3621,571.2605" fill="none" id="Founder-to-UC_POSTBUGS" style="stroke:#181818;stroke-width:1;"/><polygon fill="#181818" points="206.6,575.5079,203.0748,566.3116,203.0684,571.9684,197.4116,571.9621,206.6,575.5079" style="stroke:#181818;stroke-width:1;"/></g><!--link PM to UC_MVP--><g class="link" data-entity-1="PM" data-entity-2="UC_MVP" data-source-line="75" data-uid="lnk43" id="link_PM_UC_MVP"><path d="M72.34,669.5079 C76.64,677.9879 81,686.7579 84.99,695.0679 C99.11,724.4779 98.68,733.8079 114.99,762.0679 C144.9,813.8979 184.794,865.0232 206.714,891.9732" fill="none" id="PM-to-UC_MVP" style="stroke:#181818;stroke-width:1;"/><polygon fill="#181818" points="210.5,896.6279,207.9242,887.1218,207.345,892.749,201.7179,892.1698,210.5,896.6279" style="stroke:#181818;stroke-width:1;"/></g><!--link PM to UC_CROSS--><g class="link" data-entity-1="PM" data-entity-2="UC_CROSS" data-source-line="76" data-uid="lnk44" id="link_PM_UC_CROSS"><path d="M64.79,570.8179 C76.7,542.2379 93.92,506.4079 114.99,478.0679 C139.83,444.6579 172.174,417.1459 196.084,398.7559" fill="none" id="PM-to-UC_CROSS" style="stroke:#181818;stroke-width:1;"/><polygon fill="#181818" points="200.84,395.0979,191.2674,397.4142,196.8767,398.1462,196.1447,403.7555,200.84,395.0979" style="stroke:#181818;stroke-width:1;"/></g><!--link PM to UC_LAUNCH--><g class="link" data-entity-1="PM" data-entity-2="UC_LAUNCH" data-source-line="77" data-uid="lnk45" id="link_PM_UC_LAUNCH"><path d="M75.43,637.6579 C110.03,658.6979 162.2137,690.4201 194.6537,710.1501" fill="none" id="PM-to-UC_LAUNCH" style="stroke:#181818;stroke-width:1;"/><polygon fill="#181818" points="199.78,713.2679,194.1691,705.1736,195.5081,710.6697,190.012,712.0087,199.78,713.2679" style="stroke:#181818;stroke-width:1;"/></g><!--link PM to UC_PROGRESS--><g class="link" data-entity-1="PM" data-entity-2="UC_PROGRESS" data-source-line="78" data-uid="lnk46" id="link_PM_UC_PROGRESS"><path d="M59.57,570.7779 C79.25,496.9879 115.13,364.1579 123.99,343.0679 C149.62,282.0079 189.0125,220.7106 209.3425,190.6006" fill="none" id="PM-to-UC_PROGRESS" style="stroke:#181818;stroke-width:1;"/><polygon fill="#181818" points="212.7,185.6279,204.3487,190.8486,209.9021,189.7718,210.9789,195.3252,212.7,185.6279" style="stroke:#181818;stroke-width:1;"/></g><!--link PM to UC_POSTBUGS--><g class="link" data-entity-1="PM" data-entity-2="UC_POSTBUGS" data-source-line="79" data-uid="lnk47" id="link_PM_UC_POSTBUGS"><path d="M75.43,615.6679 C98.24,612.2079 124.978,608.1387 153.888,603.7487" fill="none" id="PM-to-UC_POSTBUGS" style="stroke:#181818;stroke-width:1;"/><polygon fill="#181818" points="159.82,602.8479,150.3215,600.2444,154.8767,603.5986,151.5225,608.1537,159.82,602.8479" style="stroke:#181818;stroke-width:1;"/></g><!--link Stakeholder to UC_PROGRESS--><g class="link" data-entity-1="Stakeholder" data-entity-2="UC_PROGRESS" data-source-line="81" data-uid="lnk48" id="link_Stakeholder_UC_PROGRESS"><path d="M85.48,137.0679 C112.23,143.2379 142.0637,150.1288 170.5337,156.6988" fill="none" id="Stakeholder-to-UC_PROGRESS" style="stroke:#181818;stroke-width:1;"/><polygon fill="#181818" points="176.38,158.0479,168.5099,152.1266,171.508,156.9236,166.711,159.9217,176.38,158.0479" style="stroke:#181818;stroke-width:1;"/></g><!--link Dev to UC_MVP--><g class="link" data-entity-1="Dev" data-entity-2="UC_MVP" data-source-line="84" data-uid="lnk49" id="link_Dev_UC_MVP"><path d="M79.45,903.3479 C89.8,912.5479 101.97,921.1679 114.99,926.0679 C137.22,934.4279 157.8172,932.9947 179.0872,927.8647" fill="none" id="Dev-to-UC_MVP" style="stroke:#181818;stroke-width:1;"/><polygon fill="#181818" points="184.92,926.4579,175.233,924.6796,180.0594,927.6302,177.1087,932.4566,184.92,926.4579" style="stroke:#181818;stroke-width:1;"/></g><!--link Dev to UC_CROSS--><g class="link" data-entity-1="Dev" data-entity-2="UC_CROSS" data-source-line="85" data-uid="lnk50" id="link_Dev_UC_CROSS"><path d="M76.55,826.1779 C79.78,820.6279 82.72,814.8479 84.99,809.0679 C126.24,703.9779 87.31,664.8379 123.99,558.0679 C145.95,494.1479 186.6332,431.4231 208.2232,400.3931" fill="none" id="Dev-to-UC_CROSS" style="stroke:#181818;stroke-width:1;"/><polygon fill="#181818" points="211.65,395.4679,203.2264,400.5711,208.7943,399.5722,209.7932,405.1402,211.65,395.4679" style="stroke:#181818;stroke-width:1;"/></g><!--link Dev to UC_LAUNCH--><g class="link" data-entity-1="Dev" data-entity-2="UC_LAUNCH" data-source-line="86" data-uid="lnk51" id="link_Dev_UC_LAUNCH"><path d="M79.49,840.4379 C116.21,811.9079 169.6019,770.4291 199.7719,746.9891" fill="none" id="Dev-to-UC_LAUNCH" style="stroke:#181818;stroke-width:1;"/><polygon fill="#181818" points="204.51,743.3079,194.9488,745.6709,200.5616,746.3755,199.857,751.9883,204.51,743.3079" style="stroke:#181818;stroke-width:1;"/></g><!--link Dev to UC_POSTBUGS--><g class="link" data-entity-1="Dev" data-entity-2="UC_POSTBUGS" data-source-line="87" data-uid="lnk52" id="link_Dev_UC_POSTBUGS"><path d="M75.42,826.0779 C78.88,820.4979 82.18,814.7379 84.99,809.0679 C108.97,760.7179 95.59,739.9679 123.99,694.0679 C144.9,660.2579 174.4866,632.84 196.9966,614.32" fill="none" id="Dev-to-UC_POSTBUGS" style="stroke:#181818;stroke-width:1;"/><polygon fill="#181818" points="201.63,610.5079,192.1386,613.1371,197.7689,613.6846,197.2213,619.3149,201.63,610.5079" style="stroke:#181818;stroke-width:1;"/></g><!--link Designer to UC_MVP--><g class="link" data-entity-1="Designer" data-entity-2="UC_MVP" data-source-line="89" data-uid="lnk53" id="link_Designer_UC_MVP"><path d="M75.43,778.2979 C112.59,811.9779 171.4841,865.3588 202.0941,893.0988" fill="none" id="Designer-to-UC_MVP" style="stroke:#181818;stroke-width:1;"/><polygon fill="#181818" points="206.54,897.1279,202.5571,888.1203,202.835,893.7703,197.185,894.0482,206.54,897.1279" style="stroke:#181818;stroke-width:1;"/></g><!--link Designer to UC_CROSS--><g class="link" data-entity-1="Designer" data-entity-2="UC_CROSS" data-source-line="90" data-uid="lnk54" id="link_Designer_UC_CROSS"><path d="M73.06,712.2679 C77.59,704.1879 81.84,695.5479 84.99,687.0679 C111.4,615.9679 84.22,588.3979 114.99,519.0679 C137.34,468.7079 177.1368,424.46 201.8968,399.59" fill="none" id="Designer-to-UC_CROSS" style="stroke:#181818;stroke-width:1;"/><polygon fill="#181818" points="206.13,395.3379,196.9455,398.8938,202.6023,398.8813,202.6148,404.5381,206.13,395.3379" style="stroke:#181818;stroke-width:1;"/></g><!--link Designer to UC_LAUNCH--><g class="link" data-entity-1="Designer" data-entity-2="UC_LAUNCH" data-source-line="91" data-uid="lnk55" id="link_Designer_UC_LAUNCH"><path d="M75.43,748.1579 C102.66,744.4779 138.0039,739.7001 170.1739,735.3601" fill="none" id="Designer-to-UC_LAUNCH" style="stroke:#181818;stroke-width:1;"/><polygon fill="#181818" points="176.12,734.5579,166.666,731.7971,171.1649,735.2264,167.7356,739.7253,176.12,734.5579" style="stroke:#181818;stroke-width:1;"/></g><!--link Marketing to UC_CROSS--><g class="link" data-entity-1="Marketing" data-entity-2="UC_CROSS" data-source-line="93" data-uid="lnk56" id="link_Marketing_UC_CROSS"><path d="M79.49,274.6579 C114.51,299.6979 164.1089,335.1587 195.2489,357.4187" fill="none" id="Marketing-to-UC_CROSS" style="stroke:#181818;stroke-width:1;"/><polygon fill="#181818" points="200.13,360.9079,195.1344,352.42,196.0624,358.0002,190.4822,358.9282,200.13,360.9079" style="stroke:#181818;stroke-width:1;"/></g><!--link Marketing to UC_LAUNCH--><g class="link" data-entity-1="Marketing" data-entity-2="UC_LAUNCH" data-source-line="94" data-uid="lnk57" id="link_Marketing_UC_LAUNCH"><path d="M62.98,290.8679 C70.66,310.7579 79.33,335.3679 84.99,358.0679 C88.65,372.7779 117.19,614.5179 123.99,628.0679 C142.16,664.3079 173.6948,691.7982 197.2348,709.2982" fill="none" id="Marketing-to-UC_LAUNCH" style="stroke:#181818;stroke-width:1;"/><polygon fill="#181818" points="202.05,712.8779,197.2137,704.2983,198.0374,709.8949,192.4408,710.7185,202.05,712.8779" style="stroke:#181818;stroke-width:1;"/></g><!--link Marketing to UC_PROGRESS--><g class="link" data-entity-1="Marketing" data-entity-2="UC_PROGRESS" data-source-line="95" data-uid="lnk58" id="link_Marketing_UC_PROGRESS"><path d="M79.81,215.7379 C90.25,206.4579 102.38,197.3079 114.99,191.0679 C130.5,183.3979 142.6091,179.547 159.4691,176.287" fill="none" id="Marketing-to-UC_PROGRESS" style="stroke:#181818;stroke-width:1;"/><polygon fill="#181818" points="165.36,175.1479,155.7643,172.9292,160.4509,176.0971,157.283,180.7837,165.36,175.1479" style="stroke:#181818;stroke-width:1;"/></g><!--SRC=[ZLPBRjim4Dth50Dlcg1m3b041kHFdI3-mPA3BWmOZCJ8WcNI8Aa4GT5j3z0ZzYGbHL8YQHlfJZDyV3CSlXcgmgy210LM5di1USbm9afAeaYKeiAG2CH4VO8LetcT2PYXccJxAFe2_NuVPd9pdvSv1fG9ohXoHiqdzBxJckIOzG1nCDzsoP1joHmHL1ZCQcwNPSm3tjFAxdPi6pZvu08VGIMBI27pV2_57ewe9F0LIf9LTOvpg3c6376iy-h0lNZsE5qy_e3-bVFfi3h6poW2q57dYhyZlSam4PX1HglwI6wR8A3MrJBqviyhUCL8r0ppXd0psacV2nanodbVO7I4TyeE5ZLQBvF4nUcie2gvi9XPl5cC7bnGWZ6S62rak3RUQhsShYS-sOfoqQyquqjTTDXbaWutqwGxxwCjP8u5AYiEYAcBr7NsYzliSK_iHXoYx53HmWOQngEdsNBgrOg-OQd2BHbJWYrkl5nCD75G9tTdp7bPa6PlZj_irdIv6q-Uh-BKfmTDf1wke8-87R0eIU5ic3-bEZ7dOhpZIC62Bl6M2CGFtB-sNHedJub_URBvQYoJGmA7w76SJZpqQ8-pmvPm8MiTWfCqJZVc4br9X59veOZbhavsmsMy7eUmR2yRnDFJRlGGhrCJ8HIJfrfQU0ARgHXAOC6vQrR8HjgI4oifAyM7nM_MqyaYZNxPfb-h4UMDcviSPnLYKg7eLNLYs-AtxYGQupTSqPEP9jBg5jGjjtvjsCMvT- -jPPCnGqQ6h90Qc2ePnFSobMOKtTyRm62WSz7D3tTt0wS5u9iB331A_W4WiiF1OhJEpsdEGKhXd-Eai2-4rCgoC5V2vumNiOs0_nEhzNiX2plBBBxJx3dpHQpMxILcC_dQJ8nGB_06I2tHa58h9DOQ_VlxJpWmRohvRcfPc9THVW_i-n2uz6CGECtq3xpjj0_zxMHVpTr8dQM3TBRXxnmjjUDgMPq7-Wp_UJ6QFmzT3TcRRdwEgHDq72P3nzFbOrlPv_9zbj3t6jQeRNSVVkOs-3D_U_n_]--></g></svg>