<svg xmlns="http://www.w3.org/2000/svg" xmlns:xlink="http://www.w3.org/1999/xlink" contentStyleType="text/css" data-diagram-type="DESCRIPTION" height="386px" preserveAspectRatio="none" style="width:1060px;height:386px;background:#FFFFFF;" version="1.1" viewBox="0 0 1060 386" width="1060px" zoomAndPan="magnify"><title>University Group Project</title><defs/><g><g class="title" data-source-line="2"><text fill="#000000" font-family="sans-serif" font-size="14" font-weight="bold" lengthAdjust="spacing" textLength="172.0453" x="437.0646" y="24.9659">University Group Project</text></g><!--entity Student--><g class="entity" data-entity="Student" data-source-line="4" data-uid="ent0002" id="entity_Student"><ellipse cx="457.9678" cy="54.0679" fill="#F1F1F1" rx="8" ry="8" style="stroke:#181818;stroke-width:0.5;"/><path d="M457.9678,62.0679 L457.9678,89.0679 M444.9678,70.0679 L470.9678,70.0679 M457.9678,89.0679 L444.9678,104.0679 M457.9678,89.0679 L470.9678,104.0679" fill="none" style="stroke:#181818;stroke-width:0.5;"/><text fill="#000000" font-family="sans-serif" font-size="14" lengthAdjust="spacing" textLength="51.6038" x="409.85" y="120.5339">Student</text><text fill="#000000" font-family="sans-serif" font-size="14" lengthAdjust="spacing" textLength="96.2356" x="409.85" y="139.6018">Team Member</text></g><!--entity Lead--><g class="entity" data-entity="Lead" data-source-line="5" data-uid="ent0003" id="entity_Lead"><ellipse cx="578.9599" cy="54.0679" fill="#F1F1F1" rx="8" ry="8" style="stroke:#181818;stroke-width:0.5;"/><path d="M578.9599,62.0679 L578.9599,89.0679 M565.9599,70.0679 L591.9599,70.0679 M578.9599,89.0679 L565.9599,104.0679 M578.9599,89.0679 L591.9599,104.0679" fill="none" style="stroke:#181818;stroke-width:0.5;"/><text fill="#000000" font-family="sans-serif" font-size="14" lengthAdjust="spacing" textLength="71.9597" x="542.98" y="120.5339">Team Lead</text><text fill="#000000" font-family="sans-serif" font-size="14" lengthAdjust="spacing" textLength="62.7338" x="542.98" y="139.6018">(optional)</text></g><!--entity Advisor--><g class="entity" data-entity="Advisor" data-source-line="6" data-uid="ent0004" id="entity_Advisor"><ellipse cx="851.9689" cy="54.0679" fill="#F1F1F1" rx="8" ry="8" style="stroke:#181818;stroke-width:0.5;"/><path d="M851.9689,62.0679 L851.9689,89.0679 M838.9689,70.0679 L864.9689,70.0679 M851.9689,89.0679 L838.9689,104.0679 M851.9689,89.0679 L864.9689,104.0679" fill="none" style="stroke:#181818;stroke-width:0.5;"/><text fill="#000000" font-family="sans-serif" font-size="14" lengthAdjust="spacing" textLength="58.0858" x="819.16" y="120.5339">Advisor /</text><text fill="#000000" font-family="sans-serif" font-size="14" lengthAdjust="spacing" textLength="65.6178" x="819.16" y="139.6018">Instructor</text></g><!--entity UC_BREAK--><g class="entity" data-entity="UC_BREAK" data-source-line="9" data-uid="ent0005" id="entity_UC_BREAK"><ellipse cx="609.9568" cy="222.9133" fill="#F1F1F1" rx="79.0768" ry="18.2154" style="stroke:#181818;stroke-width:0.5;"/><text fill="#000000" font-family="sans-serif" font-size="14" lengthAdjust="spacing" textLength="118.5795" x="550.6671" y="228.9472">Break assignment</text></g><!--entity UC_ASSIGN--><g class="entity" data-entity="UC_ASSIGN" data-source-line="10" data-uid="ent0006" id="entity_UC_ASSIGN"><ellipse cx="244.9583" cy="222.921" fill="#F1F1F1" rx="59.2883" ry="16.4831" style="stroke:#181818;stroke-width:0.5;"/><text fill="#000000" font-family="sans-serif" font-size="14" lengthAdjust="spacing" textLength="79.6037" x="205.1565" y="228.9549">Assign work</text></g><!--entity UC_DEADLINES--><g class="entity" data-entity="UC_DEADLINES" data-source-line="11" data-uid="ent0007" id="entity_UC_DEADLINES"><ellipse cx="426.9628" cy="222.921" fill="#F1F1F1" rx="49.0028" ry="16.4831" style="stroke:#181818;stroke-width:0.5;"/><text fill="#000000" font-family="sans-serif" font-size="14" lengthAdjust="spacing" textLength="65.0577" x="394.4339" y="228.9549">Deadlines</text></g><!--entity UC_PROGRESS--><g class="entity" data-entity="UC_PROGRESS" data-source-line="12" data-uid="ent0008" id="entity_UC_PROGRESS"><ellipse cx="851.9647" cy="222.921" fill="#F1F1F1" rx="63.5847" ry="16.4831" style="stroke:#181818;stroke-width:0.5;"/><text fill="#000000" font-family="sans-serif" font-size="14" lengthAdjust="spacing" textLength="85.6797" x="809.1248" y="228.9549">See progress</text></g><!--entity UC_TASKS_SECTIONS--><g class="entity" data-entity="UC_TASKS_SECTIONS" data-source-line="17" data-uid="ent0009" id="entity_UC_TASKS_SECTIONS"><ellipse cx="590.9564" cy="350.0645" fill="#F1F1F1" rx="54.8164" ry="29.9366" style="stroke:#181818;stroke-width:0.5;"/><text fill="#000000" font-family="sans-serif" font-size="14" lengthAdjust="spacing" textLength="73.3597" x="554.2765" y="346.6063">Make tasks</text><text fill="#000000" font-family="sans-serif" font-size="14" lengthAdjust="spacing" textLength="73.0377" x="554.4375" y="365.6742">per section</text></g><!--entity UC_TASKS_DELIV--><g class="entity" data-entity="UC_TASKS_DELIV" data-source-line="18" data-uid="ent0010" id="entity_UC_TASKS_DELIV"><ellipse cx="749.96" cy="350.0704" fill="#F1F1F1" rx="69.59" ry="28.8024" style="stroke:#181818;stroke-width:0.5;"/><text fill="#000000" font-family="sans-serif" font-size="14" lengthAdjust="spacing" textLength="79.1417" x="710.3892" y="344.8858">Group tasks</text><text fill="#000000" font-family="sans-serif" font-size="14" lengthAdjust="spacing" textLength="98.4196" x="700.7502" y="363.9537">per deliverable</text></g><!--entity UC_ASSIGN_MEMBER--><g class="entity" data-entity="UC_ASSIGN_MEMBER" data-source-line="21" data-uid="ent0011" id="entity_UC_ASSIGN_MEMBER"><ellipse cx="65.9642" cy="350.0679" fill="#F1F1F1" rx="59.9642" ry="29.93" style="stroke:#181818;stroke-width:0.5;"/><text fill="#000000" font-family="sans-serif" font-size="14" lengthAdjust="spacing" textLength="80.6677" x="25.6304" y="346.619">Assign tasks</text><text fill="#000000" font-family="sans-serif" font-size="14" lengthAdjust="spacing" textLength="80.2337" x="25.8474" y="365.6869">to members</text></g><!--entity UC_BALANCE--><g class="entity" data-entity="UC_BALANCE" data-source-line="22" data-uid="ent0012" id="entity_UC_BALANCE"><ellipse cx="205.9565" cy="350.0697" fill="#F1F1F1" rx="44.7965" ry="29.0118" style="stroke:#181818;stroke-width:0.5;"/><text fill="#000000" font-family="sans-serif" font-size="14" lengthAdjust="spacing" textLength="51.6878" x="180.1126" y="345.1944">Balance</text><text fill="#000000" font-family="sans-serif" font-size="14" lengthAdjust="spacing" textLength="61.2778" x="175.3176" y="364.2623">workload</text></g><!--entity UC_SET_DATES--><g class="entity" data-entity="UC_SET_DATES" data-source-line="25" data-uid="ent0013" id="entity_UC_SET_DATES"><ellipse cx="321.9613" cy="350.0714" fill="#F1F1F1" rx="35.9813" ry="28.4435" style="stroke:#181818;stroke-width:0.5;"/><text fill="#000000" font-family="sans-serif" font-size="14" lengthAdjust="spacing" textLength="49.4338" x="297.2444" y="348.7934">Set due</text><text fill="#000000" font-family="sans-serif" font-size="14" lengthAdjust="spacing" textLength="36.1199" x="303.9013" y="367.8613">dates</text></g><!--entity UC_SEE_TIMELINE--><g class="entity" data-entity="UC_SEE_TIMELINE" data-source-line="26" data-uid="ent0014" id="entity_UC_SEE_TIMELINE"><ellipse cx="446.9564" cy="350.0688" fill="#F1F1F1" rx="53.6964" ry="29.0609" style="stroke:#181818;stroke-width:0.5;"/><text fill="#000000" font-family="sans-serif" font-size="14" lengthAdjust="spacing" textLength="63.2378" x="415.3375" y="345.2657">See dates</text><text fill="#000000" font-family="sans-serif" font-size="14" lengthAdjust="spacing" textLength="74.1857" x="409.8635" y="364.3336">on timeline</text></g><!--entity UC_WHO_DID--><g class="entity" data-entity="UC_WHO_DID" data-source-line="29" data-uid="ent0015" id="entity_UC_WHO_DID"><ellipse cx="897.9598" cy="350.0664" fill="#F1F1F1" rx="43.0198" ry="29.7584" style="stroke:#181818;stroke-width:0.5;"/><text fill="#000000" font-family="sans-serif" font-size="14" lengthAdjust="spacing" textLength="55.2438" x="870.3379" y="346.2715">See who</text><text fill="#000000" font-family="sans-serif" font-size="14" lengthAdjust="spacing" textLength="57.0358" x="869.4419" y="365.3394">did what</text></g><!--entity UC_STATUS_VIEW--><g class="entity" data-entity="UC_STATUS_VIEW" data-source-line="30" data-uid="ent0016" id="entity_UC_STATUS_VIEW"><ellipse cx="1014.9572" cy="350.0672" fill="#F1F1F1" rx="39.2172" ry="28.4793" style="stroke:#181818;stroke-width:0.5;"/><text fill="#000000" font-family="sans-serif" font-size="14" lengthAdjust="spacing" textLength="54.2078" x="987.8533" y="348.7352">See task</text><text fill="#000000" font-family="sans-serif" font-size="14" lengthAdjust="spacing" textLength="40.0259" x="994.9443" y="367.8031">status</text></g><!--link UC_BREAK to UC_TASKS_SECTIONS--><g class="link" data-entity-1="UC_BREAK" data-entity-2="UC_TASKS_SECTIONS" data-source-line="33" data-uid="lnk17" id="link_UC_BREAK_UC_TASKS_SECTIONS"><path d="M607.28,241.5879 C604.19,261.9379 599.9702,289.7458 596.2902,313.9958" fill="none" id="UC_BREAK-to-UC_TASKS_SECTIONS" style="stroke:#181818;stroke-width:1;stroke-dasharray:7,7;"/><polygon fill="#181818" points="595.39,319.9279,600.695,311.6299,596.1402,314.9845,592.7856,310.4297,595.39,319.9279" style="stroke:#181818;stroke-width:1;"/><text fill="#000000" font-family="sans-serif" font-size="13" lengthAdjust="spacing" textLength="57.5771" x="603.72" y="286.0349">&#171;include&#187;</text></g><!--link UC_BREAK to UC_TASKS_DELIV--><g class="link" data-entity-1="UC_BREAK" data-entity-2="UC_TASKS_DELIV" data-source-line="34" data-uid="lnk18" id="link_UC_BREAK_UC_TASKS_DELIV"><path d="M632.36,240.6479 C643.84,249.4379 657.9,260.5679 669.96,271.1379 C688.92,287.7479 705.0284,303.3343 720.4484,318.8343" fill="none" id="UC_BREAK-to-UC_TASKS_DELIV" style="stroke:#181818;stroke-width:1;stroke-dasharray:7,7;"/><polygon fill="#181818" points="724.68,323.0879,721.1683,313.8864,721.1536,319.5432,715.4968,319.5286,724.68,323.0879" style="stroke:#181818;stroke-width:1;"/><text fill="#000000" font-family="sans-serif" font-size="13" lengthAdjust="spacing" textLength="57.5771" x="691.36" y="286.0349">&#171;include&#187;</text></g><!--link UC_ASSIGN to UC_ASSIGN_MEMBER--><g class="link" data-entity-1="UC_ASSIGN" data-entity-2="UC_ASSIGN_MEMBER" data-source-line="36" data-uid="lnk19" id="link_UC_ASSIGN_UC_ASSIGN_MEMBER"><path d="M212.14,236.8879 C192.67,245.2979 167.97,257.2579 147.96,271.1379 C126.66,285.9079 109.6805,301.8351 94.2005,317.9951" fill="none" id="UC_ASSIGN-to-UC_ASSIGN_MEMBER" style="stroke:#181818;stroke-width:1;stroke-dasharray:7,7;"/><polygon fill="#181818" points="90.05,322.3279,99.1643,318.5957,93.5088,318.7172,93.3872,313.0617,90.05,322.3279" style="stroke:#181818;stroke-width:1;"/><text fill="#000000" font-family="sans-serif" font-size="13" lengthAdjust="spacing" textLength="57.5771" x="148.96" y="286.0349">&#171;include&#187;</text></g><!--link UC_ASSIGN to UC_BALANCE--><g class="link" data-entity-1="UC_ASSIGN" data-entity-2="UC_BALANCE" data-source-line="37" data-uid="lnk20" id="link_UC_ASSIGN_UC_BALANCE"><path d="M235.12,239.5379 C229.89,248.4779 223.78,260.0879 219.96,271.1379 C214.45,287.1179 211.8264,299.7951 209.7364,314.8251" fill="none" id="UC_ASSIGN-to-UC_BALANCE" style="stroke:#181818;stroke-width:1;stroke-dasharray:7,7;"/><polygon fill="#181818" points="208.91,320.7679,214.1114,312.4046,209.5987,315.8156,206.1877,311.3028,208.91,320.7679" style="stroke:#181818;stroke-width:1;"/><text fill="#000000" font-family="sans-serif" font-size="13" lengthAdjust="spacing" textLength="57.5771" x="220.96" y="286.0349">&#171;include&#187;</text></g><!--link UC_DEADLINES to UC_SET_DATES--><g class="link" data-entity-1="UC_DEADLINES" data-entity-2="UC_SET_DATES" data-source-line="39" data-uid="lnk21" id="link_UC_DEADLINES_UC_SET_DATES"><path d="M405.72,238.0179 C393.72,246.6479 378.97,258.4479 367.96,271.1379 C354.37,286.7979 345.3293,301.7 337.0793,317.63" fill="none" id="UC_DEADLINES-to-UC_SET_DATES" style="stroke:#181818;stroke-width:1;stroke-dasharray:7,7;"/><polygon fill="#181818" points="334.32,322.9579,342.0108,316.8056,336.6194,318.518,334.907,313.1266,334.32,322.9579" style="stroke:#181818;stroke-width:1;"/><text fill="#000000" font-family="sans-serif" font-size="13" lengthAdjust="spacing" textLength="57.5771" x="368.96" y="286.0349">&#171;include&#187;</text></g><!--link UC_DEADLINES to UC_SEE_TIMELINE--><g class="link" data-entity-1="UC_DEADLINES" data-entity-2="UC_SEE_TIMELINE" data-source-line="40" data-uid="lnk22" id="link_UC_DEADLINES_UC_SEE_TIMELINE"><path d="M429.5,239.7679 C432.76,260.1579 437.5239,290.003 441.5239,315.053" fill="none" id="UC_DEADLINES-to-UC_SEE_TIMELINE" style="stroke:#181818;stroke-width:1;stroke-dasharray:7,7;"/><polygon fill="#181818" points="442.47,320.9779,445.0008,311.4598,441.6816,316.0405,437.1009,312.7212,442.47,320.9779" style="stroke:#181818;stroke-width:1;"/><text fill="#000000" font-family="sans-serif" font-size="13" lengthAdjust="spacing" textLength="57.5771" x="437.96" y="286.0349">&#171;include&#187;</text></g><!--link UC_PROGRESS to UC_WHO_DID--><g class="link" data-entity-1="UC_PROGRESS" data-entity-2="UC_WHO_DID" data-source-line="42" data-uid="lnk23" id="link_UC_PROGRESS_UC_WHO_DID"><path d="M857.79,239.7679 C865.28,260.1579 876.3595,290.2965 885.5695,315.3465" fill="none" id="UC_PROGRESS-to-UC_WHO_DID" style="stroke:#181818;stroke-width:1;stroke-dasharray:7,7;"/><polygon fill="#181818" points="887.64,320.9779,888.2886,311.1504,885.9146,316.2851,880.78,313.9111,887.64,320.9779" style="stroke:#181818;stroke-width:1;"/><text fill="#000000" font-family="sans-serif" font-size="13" lengthAdjust="spacing" textLength="57.5771" x="875.96" y="286.0349">&#171;include&#187;</text></g><!--link UC_PROGRESS to UC_STATUS_VIEW--><g class="link" data-entity-1="UC_PROGRESS" data-entity-2="UC_STATUS_VIEW" data-source-line="43" data-uid="lnk24" id="link_UC_PROGRESS_UC_STATUS_VIEW"><path d="M883.91,237.4679 C901.84,245.8379 924.13,257.5579 941.96,271.1379 C962.47,286.7379 978.3867,303.7704 992.1667,320.2904" fill="none" id="UC_PROGRESS-to-UC_STATUS_VIEW" style="stroke:#181818;stroke-width:1;stroke-dasharray:7,7;"/><polygon fill="#181818" points="996.01,324.8979,993.3167,315.4245,992.8072,321.0583,987.1734,320.5489,996.01,324.8979" style="stroke:#181818;stroke-width:1;"/><text fill="#000000" font-family="sans-serif" font-size="13" lengthAdjust="spacing" textLength="57.5771" x="962.92" y="286.0349">&#171;include&#187;</text></g><!--link Student to UC_BREAK--><g class="link" data-entity-1="Student" data-entity-2="UC_BREAK" data-source-line="47" data-uid="lnk25" id="link_Student_UC_BREAK"><path d="M506.48,135.9379 C534.63,159.3279 563.9748,183.7139 585.1248,201.2839" fill="none" id="Student-to-UC_BREAK" style="stroke:#181818;stroke-width:1;"/><polygon fill="#181818" points="589.74,205.1179,585.3732,196.2901,585.894,201.9229,580.2612,202.4437,589.74,205.1179" style="stroke:#181818;stroke-width:1;"/></g><!--link Student to UC_ASSIGN--><g class="link" data-entity-1="Student" data-entity-2="UC_ASSIGN" data-source-line="48" data-uid="lnk26" id="link_Student_UC_ASSIGN"><path d="M409.36,124.4479 C365.65,150.3679 308.4111,184.308 274.4411,204.448" fill="none" id="Student-to-UC_ASSIGN" style="stroke:#181818;stroke-width:1;"/><polygon fill="#181818" points="269.28,207.5079,279.0616,206.3588,273.5809,204.958,274.9817,199.4773,269.28,207.5079" style="stroke:#181818;stroke-width:1;"/></g><!--link Student to UC_DEADLINES--><g class="link" data-entity-1="Student" data-entity-2="UC_DEADLINES" data-source-line="49" data-uid="lnk27" id="link_Student_UC_DEADLINES"><path d="M446.07,144.0979 C440.67,166.0779 436.0896,184.7407 432.2796,200.2707" fill="none" id="Student-to-UC_DEADLINES" style="stroke:#181818;stroke-width:1;"/><polygon fill="#181818" points="430.85,206.0979,436.8792,198.3102,432.0413,201.2419,429.1096,196.4041,430.85,206.0979" style="stroke:#181818;stroke-width:1;"/></g><!--link Student to UC_PROGRESS--><g class="link" data-entity-1="Student" data-entity-2="UC_PROGRESS" data-source-line="50" data-uid="lnk28" id="link_Student_UC_PROGRESS"><path d="M506.4,133.1279 C512.77,137.0679 519.38,140.7179 525.96,143.7079 C615.43,184.2379 722.6619,204.4586 789.4119,214.1186" fill="none" id="Student-to-UC_PROGRESS" style="stroke:#181818;stroke-width:1;"/><polygon fill="#181818" points="795.35,214.9779,787.0157,209.7301,790.4016,214.2618,785.8699,217.6476,795.35,214.9779" style="stroke:#181818;stroke-width:1;"/></g><!--link Lead to UC_BREAK--><g class="link" data-entity-1="Lead" data-entity-2="UC_BREAK" data-source-line="52" data-uid="lnk29" id="link_Lead_UC_BREAK"><path d="M590.86,144.0979 C596.05,165.2479 600.3777,182.8914 604.2077,198.4714" fill="none" id="Lead-to-UC_BREAK" style="stroke:#181818;stroke-width:1;"/><polygon fill="#181818" points="605.64,204.2979,607.3759,194.6032,604.4464,199.4425,599.6072,196.513,605.64,204.2979" style="stroke:#181818;stroke-width:1;"/></g><!--link Lead to UC_ASSIGN--><g class="link" data-entity-1="Lead" data-entity-2="UC_ASSIGN" data-source-line="53" data-uid="lnk30" id="link_Lead_UC_ASSIGN"><path d="M542.76,131.1379 C536.8,135.8279 530.43,140.2079 523.96,143.7079 C450.4,183.4879 360.6346,203.5792 302.5846,213.4792" fill="none" id="Lead-to-UC_ASSIGN" style="stroke:#181818;stroke-width:1;"/><polygon fill="#181818" points="296.67,214.4879,306.2144,216.9179,301.5988,213.6473,304.8694,209.0318,296.67,214.4879" style="stroke:#181818;stroke-width:1;"/></g><!--link Lead to UC_DEADLINES--><g class="link" data-entity-1="Lead" data-entity-2="UC_DEADLINES" data-source-line="54" data-uid="lnk31" id="link_Lead_UC_DEADLINES"><path d="M542.75,127.6479 C536.52,133.0479 530.08,138.5679 523.96,143.7079 C496.96,166.3779 469.7252,188.1649 450.0852,203.7049" fill="none" id="Lead-to-UC_DEADLINES" style="stroke:#181818;stroke-width:1;"/><polygon fill="#181818" points="445.38,207.4279,454.9199,204.9803,449.301,204.3254,449.9559,198.7066,445.38,207.4279" style="stroke:#181818;stroke-width:1;"/></g><!--link Lead to UC_PROGRESS--><g class="link" data-entity-1="Lead" data-entity-2="UC_PROGRESS" data-source-line="55" data-uid="lnk32" id="link_Lead_UC_PROGRESS"><path d="M615.22,112.4079 C669.61,137.5679 765.8845,182.0988 816.4245,205.4788" fill="none" id="Lead-to-UC_PROGRESS" style="stroke:#181818;stroke-width:1;"/><polygon fill="#181818" points="821.87,207.9979,815.3811,200.5889,817.332,205.8986,812.0223,207.8496,821.87,207.9979" style="stroke:#181818;stroke-width:1;"/></g><!--link Advisor to UC_PROGRESS--><g class="link" data-entity-1="Advisor" data-entity-2="UC_PROGRESS" data-source-line="57" data-uid="lnk33" id="link_Advisor_UC_PROGRESS"><path d="M851.96,144.0979 C851.96,166.0779 851.96,184.5679 851.96,200.0979" fill="none" id="Advisor-to-UC_PROGRESS" style="stroke:#181818;stroke-width:1;"/><polygon fill="#181818" points="851.96,206.0979,855.96,197.0979,851.96,201.0979,847.96,197.0979,851.96,206.0979" style="stroke:#181818;stroke-width:1;"/></g><!--SRC=[TLHBRjim4Dth50DlcYoSxel0W6mHhX3B3amvsGWG66kGifOeWwGJz08zG8_OavIKHL4VTqVEl7aSl3SSpNM9S13y0wNY-XUiPNqvmxEiV-9H1m4xwbh2ZEfBWK9d8aLMGOBL6yePC0Ljmk6Qz0PPaOcx-gnvBLXvtm1jqA72ueChS_YQYLWeBIystA3QJ11yWVby3WdZ0YuAuSWKAXiApCrUOBQKo4wcHl5tKPaMclh3Ab_kIVZaOM43WCzQdXmYf3HURpqaCgsLNA1oW8Y4qIRU4ken517EidwNg3hOytwttXDANRUnE9P6ZG8Ar8oN2kuKhyubtZUD6z2uPK-Vi1E2PkgaCd562IPknNClfI5zeZabgpJURNjTNStgrHLOMYVPMud3seXiuXVRGq-FYKWjaQwXQXnMGyNoX2HBikzPm4ecZfW9orRMhEWy23VXTaNiUvsuVIqr51TJLZ3jHQSapQCm7OlUO39Hc-vuXPR95v0yZHDYdR8lzIqQSdp-gCrZl307rit9w_TT7iNH46aLoCn8CdtnZQLXUg3vIqnUdTFywZH8B9drwJgQRlZWuM4nTGs-mUDZMxXO_0VSs3H21fq13ZkmOyex1BTUt23jnjn1Emkcd3UmNlqRtEvlE7YhzfHu3EofFQQzQX_QPQ7Wx-y_K4tNGz0k97DP-6qm2hOBO1JrltwKyF_SBh4XSp_IqlP3dhCVzOHk4uuJ_m00]--></g></svg>