<svg xmlns="http://www.w3.org/2000/svg" xmlns:xlink="http://www.w3.org/1999/xlink" contentStyleType="text/css" data-diagram-type="DESCRIPTION" height="359px" preserveAspectRatio="none" style="width:1583px;height:359px;background:#FFFFFF;" version="1.1" viewBox="0 0 1583 359" width="1583px" zoomAndPan="magnify"><title>Software Development Team (Agile/Scrum)</title><defs/><g><g class="title" data-source-line="2"><text fill="#000000" font-family="sans-serif" font-size="14" font-weight="bold" lengthAdjust="spacing" textLength="301.2369" x="634.3529" y="24.9659">Software Development Team (Agile/Scrum)</text></g><!--entity PO--><g class="entity" data-entity="PO" data-source-line="4" data-uid="ent0002" id="entity_PO"><ellipse cx="322.0928" cy="54.0679" fill="#F1F1F1" rx="8" ry="8" style="stroke:#181818;stroke-width:0.5;"/><path d="M322.0928,62.0679 L322.0928,89.0679 M309.0928,70.0679 L335.0928,70.0679 M322.0928,89.0679 L309.0928,104.0679 M322.0928,89.0679 L335.0928,104.0679" fill="none" style="stroke:#181818;stroke-width:0.5;"/><text fill="#000000" font-family="sans-serif" font-size="14" lengthAdjust="spacing" textLength="99.6656" x="272.26" y="120.5339">Product Owner</text></g><!--entity SM--><g class="entity" data-entity="SM" data-source-line="5" data-uid="ent0003" id="entity_SM"><ellipse cx="458.0898" cy="54.0679" fill="#F1F1F1" rx="8" ry="8" style="stroke:#181818;stroke-width:0.5;"/><path d="M458.0898,62.0679 L458.0898,89.0679 M445.0898,70.0679 L471.0898,70.0679 M458.0898,89.0679 L445.0898,104.0679 M458.0898,89.0679 L471.0898,104.0679" fill="none" style="stroke:#181818;stroke-width:0.5;"/><text fill="#000000" font-family="sans-serif" font-size="14" lengthAdjust="spacing" textLength="91.5597" x="412.31" y="120.5339">Scrum Master</text></g><!--entity Dev--><g class="entity" data-entity="Dev" data-source-line="6" data-uid="ent0004" id="entity_Dev"><ellipse cx="901.0969" cy="54.0679" fill="#F1F1F1" rx="8" ry="8" style="stroke:#181818;stroke-width:0.5;"/><path d="M901.0969,62.0679 L901.0969,89.0679 M888.0969,70.0679 L914.0969,70.0679 M901.0969,89.0679 L888.0969,104.0679 M901.0969,89.0679 L914.0969,104.0679" fill="none" style="stroke:#181818;stroke-width:0.5;"/><text fill="#000000" font-family="sans-serif" font-size="14" lengthAdjust="spacing" textLength="67.4937" x="867.35" y="120.5339">Developer</text></g><!--entity QA--><g class="entity" data-entity="QA" data-source-line="7" data-uid="ent0005" id="entity_QA"><ellipse cx="778.09" cy="54.0679" fill="#F1F1F1" rx="8" ry="8" style="stroke:#181818;stroke-width:0.5;"/><path d="M778.09,62.0679 L778.09,89.0679 M765.09,70.0679 L791.09,70.0679 M778.09,89.0679 L765.09,104.0679 M778.09,89.0679 L791.09,104.0679" fill="none" style="stroke:#181818;stroke-width:0.5;"/><text fill="#000000" font-family="sans-serif" font-size="14" lengthAdjust="spacing" textLength="19.8799" x="768.15" y="120.5339">QA</text></g><!--entity UC_PLAN--><g class="entity" data-entity="UC_PLAN" data-source-line="10" data-uid="ent0006" id="entity_UC_PLAN"><ellipse cx="458.0927" cy="202.121" fill="#F1F1F1" rx="52.9527" ry="16.4831" style="stroke:#181818;stroke-width:0.5;"/><text fill="#000000" font-family="sans-serif" font-size="14" lengthAdjust="spacing" textLength="70.6437" x="422.7708" y="208.1549">Plan sprint</text></g><!--entity UC_BOARD--><g class="entity" data-entity="UC_BOARD" data-source-line="11" data-uid="ent0007" id="entity_UC_BOARD"><ellipse cx="737.0885" cy="202.121" fill="#F1F1F1" rx="56.3185" ry="16.4831" style="stroke:#181818;stroke-width:0.5;"/><text fill="#000000" font-family="sans-serif" font-size="14" lengthAdjust="spacing" textLength="75.4037" x="699.3866" y="208.1549">Daily board</text></g><!--entity UC_BUGS--><g class="entity" data-entity="UC_BUGS" data-source-line="12" data-uid="ent0008" id="entity_UC_BUGS"><ellipse cx="942.0925" cy="202.121" fill="#F1F1F1" rx="26.3825" ry="16.4831" style="stroke:#181818;stroke-width:0.5;"/><text fill="#000000" font-family="sans-serif" font-size="14" lengthAdjust="spacing" textLength="33.0679" x="925.5586" y="208.1549">Bugs</text></g><!--entity UC_REVIEW--><g class="entity" data-entity="UC_REVIEW" data-source-line="13" data-uid="ent0009" id="entity_UC_REVIEW"><ellipse cx="1230.09" cy="202.121" fill="#F1F1F1" rx="60.11" ry="16.4831" style="stroke:#181818;stroke-width:0.5;"/><text fill="#000000" font-family="sans-serif" font-size="14" lengthAdjust="spacing" textLength="80.7657" x="1189.7071" y="208.1549">Code review</text></g><!--entity UC_RETRO--><g class="entity" data-entity="UC_RETRO" data-source-line="14" data-uid="ent0010" id="entity_UC_RETRO"><ellipse cx="306.0899" cy="202.121" fill="#F1F1F1" rx="64.0499" ry="16.4831" style="stroke:#181818;stroke-width:0.5;"/><text fill="#000000" font-family="sans-serif" font-size="14" lengthAdjust="spacing" textLength="86.3377" x="262.9211" y="208.1549">Sprint review</text></g><!--entity UC_TASKS--><g class="entity" data-entity="UC_TASKS" data-source-line="17" data-uid="ent0011" id="entity_UC_TASKS"><ellipse cx="319.0932" cy="325.561" fill="#F1F1F1" rx="54.8732" ry="16.4831" style="stroke:#181818;stroke-width:0.5;"/><text fill="#000000" font-family="sans-serif" font-size="14" lengthAdjust="spacing" textLength="73.3597" x="282.4133" y="331.5949">Make tasks</text></g><!--entity UC_POINTS--><g class="entity" data-entity="UC_POINTS" data-source-line="18" data-uid="ent0012" id="entity_UC_POINTS"><ellipse cx="458.0905" cy="325.561" fill="#F1F1F1" rx="49.2305" ry="16.4831" style="stroke:#181818;stroke-width:0.5;"/><text fill="#000000" font-family="sans-serif" font-size="14" lengthAdjust="spacing" textLength="65.3798" x="425.4006" y="331.5949">Set points</text></g><!--entity UC_DATES--><g class="entity" data-entity="UC_DATES" data-source-line="19" data-uid="ent0013" id="entity_UC_DATES"><ellipse cx="183.0863" cy="325.561" fill="#F1F1F1" rx="45.7063" ry="16.4831" style="stroke:#181818;stroke-width:0.5;"/><text fill="#000000" font-family="sans-serif" font-size="14" lengthAdjust="spacing" textLength="60.3958" x="152.8884" y="331.5949">Set dates</text></g><!--entity UC_STATUS--><g class="entity" data-entity="UC_STATUS" data-source-line="21" data-uid="ent0014" id="entity_UC_STATUS"><ellipse cx="783.0936" cy="325.561" fill="#F1F1F1" rx="69.5936" ry="16.4831" style="stroke:#181818;stroke-width:0.5;"/><text fill="#000000" font-family="sans-serif" font-size="14" lengthAdjust="spacing" textLength="94.1776" x="736.0048" y="331.5949">Change status</text></g><!--entity UC_FLOW--><g class="entity" data-entity="UC_FLOW" data-source-line="22" data-uid="ent0015" id="entity_UC_FLOW"><ellipse cx="610.0919" cy="325.5544" fill="#F1F1F1" rx="68.2119" ry="27.7164" style="stroke:#181818;stroke-width:0.5;"/><text fill="#000000" font-family="sans-serif" font-size="14" lengthAdjust="spacing" textLength="55.0198" x="582.582" y="318.7128">See flow</text><text fill="#000000" font-family="sans-serif" font-size="14" lengthAdjust="spacing" textLength="100.6176" x="559.7831" y="337.7807">(To Do &#8594; Done)</text></g><!--entity UC_PRI--><g class="entity" data-entity="UC_PRI" data-source-line="24" data-uid="ent0016" id="entity_UC_PRI"><ellipse cx="942.0905" cy="325.561" fill="#F1F1F1" rx="54.1505" ry="16.4831" style="stroke:#181818;stroke-width:0.5;"/><text fill="#000000" font-family="sans-serif" font-size="14" lengthAdjust="spacing" textLength="72.3377" x="905.9216" y="331.5949">Set priority</text></g><!--entity UC_BUG_STATUS--><g class="entity" data-entity="UC_BUG_STATUS" data-source-line="25" data-uid="ent0017" id="entity_UC_BUG_STATUS"><ellipse cx="1077.0908" cy="325.5547" fill="#F1F1F1" rx="45.6208" ry="27.9568" style="stroke:#181818;stroke-width:0.5;"/><text fill="#000000" font-family="sans-serif" font-size="14" lengthAdjust="spacing" textLength="65.1277" x="1044.5269" y="325.0212">Track bug</text><text fill="#000000" font-family="sans-serif" font-size="14" lengthAdjust="spacing" textLength="40.0259" x="1057.0779" y="344.0891">status</text></g><!--entity UC_UNDER_REVIEW--><g class="entity" data-entity="UC_UNDER_REVIEW" data-source-line="27" data-uid="ent0018" id="entity_UC_UNDER_REVIEW"><ellipse cx="1517.0863" cy="325.553" fill="#F1F1F1" rx="60.8563" ry="27.2351" style="stroke:#181818;stroke-width:0.5;"/><text fill="#000000" font-family="sans-serif" font-size="14" lengthAdjust="spacing" textLength="33.8099" x="1500.1814" y="317.9434">Mark</text><text fill="#000000" font-family="sans-serif" font-size="14" lengthAdjust="spacing" textLength="91.0416" x="1471.5655" y="337.0113">Under Review</text></g><!--entity UC_COMMENTS--><g class="entity" data-entity="UC_COMMENTS" data-source-line="28" data-uid="ent0019" id="entity_UC_COMMENTS"><ellipse cx="1230.086" cy="325.5571" fill="#F1F1F1" rx="71.896" ry="16.7792" style="stroke:#181818;stroke-width:0.5;"/><text fill="#000000" font-family="sans-serif" font-size="14" lengthAdjust="spacing" textLength="99.4836" x="1180.3442" y="331.5911">Add comments</text></g><!--entity UC_APPROVE--><g class="entity" data-entity="UC_APPROVE" data-source-line="29" data-uid="ent0020" id="entity_UC_APPROVE"><ellipse cx="1379.092" cy="325.561" fill="#F1F1F1" rx="42.192" ry="16.4831" style="stroke:#181818;stroke-width:0.5;"/><text fill="#000000" font-family="sans-serif" font-size="14" lengthAdjust="spacing" textLength="55.4258" x="1351.3791" y="331.5949">Approve</text></g><!--entity UC_ACT_LOG--><g class="entity" data-entity="UC_ACT_LOG" data-source-line="31" data-uid="ent0021" id="entity_UC_ACT_LOG"><ellipse cx="54.0931" cy="325.5539" fill="#F1F1F1" rx="48.0931" ry="27.396" style="stroke:#181818;stroke-width:0.5;"/><text fill="#000000" font-family="sans-serif" font-size="14" lengthAdjust="spacing" textLength="30.9119" x="38.6372" y="318.2036">View</text><text fill="#000000" font-family="sans-serif" font-size="14" lengthAdjust="spacing" textLength="70.4897" x="18.8483" y="337.2715">activity log</text></g><!--link UC_PLAN to UC_TASKS--><g class="link" data-entity-1="UC_PLAN" data-entity-2="UC_TASKS" data-source-line="34" data-uid="lnk22" id="link_UC_PLAN_UC_TASKS"><path d="M434.57,217.3179 C421.3,225.7579 404.7,237.0479 391.09,248.6079 C368.66,267.6579 349.6985,288.4656 335.9185,304.5156" fill="none" id="UC_PLAN-to-UC_TASKS" style="stroke:#181818;stroke-width:1;stroke-dasharray:7,7;"/><polygon fill="#181818" points="332.01,309.0679,340.9076,304.8451,335.2671,305.2743,334.8378,299.6338,332.01,309.0679" style="stroke:#181818;stroke-width:1;"/><text fill="#000000" font-family="sans-serif" font-size="13" lengthAdjust="spacing" textLength="57.5771" x="392.09" y="263.5049">&#171;include&#187;</text></g><!--link UC_PLAN to UC_POINTS--><g class="link" data-entity-1="UC_PLAN" data-entity-2="UC_POINTS" data-source-line="35" data-uid="lnk23" id="link_UC_PLAN_UC_POINTS"><path d="M458.09,218.9979 C458.09,242.2679 458.09,279.4079 458.09,302.6779" fill="none" id="UC_PLAN-to-UC_POINTS" style="stroke:#181818;stroke-width:1;stroke-dasharray:7,7;"/><polygon fill="#181818" points="458.09,308.6779,462.09,299.6779,458.09,303.6779,454.09,299.6779,458.09,308.6779" style="stroke:#181818;stroke-width:1;"/><text fill="#000000" font-family="sans-serif" font-size="13" lengthAdjust="spacing" textLength="57.5771" x="459.09" y="263.5049">&#171;include&#187;</text></g><!--link UC_PLAN to UC_DATES--><g class="link" data-entity-1="UC_PLAN" data-entity-2="UC_DATES" data-source-line="36" data-uid="lnk24" id="link_UC_PLAN_UC_DATES"><path d="M415.77,212.4579 C384.43,220.1379 341.1,232.3979 305.09,248.6079 C266.64,265.9079 230.6659,289.9714 207.3359,306.7014" fill="none" id="UC_PLAN-to-UC_DATES" style="stroke:#181818;stroke-width:1;stroke-dasharray:7,7;"/><polygon fill="#181818" points="202.46,310.1979,212.1049,308.2037,206.5232,307.2842,207.4428,301.7025,202.46,310.1979" style="stroke:#181818;stroke-width:1;"/><text fill="#000000" font-family="sans-serif" font-size="13" lengthAdjust="spacing" textLength="57.5771" x="306.09" y="263.5049">&#171;include&#187;</text></g><!--link UC_BOARD to UC_STATUS--><g class="link" data-entity-1="UC_BOARD" data-entity-2="UC_STATUS" data-source-line="38" data-uid="lnk25" id="link_UC_BOARD_UC_STATUS"><path d="M743.11,218.9979 C751.92,242.2679 766.1335,279.7974 774.9535,303.0674" fill="none" id="UC_BOARD-to-UC_STATUS" style="stroke:#181818;stroke-width:1;stroke-dasharray:7,7;"/><polygon fill="#181818" points="777.08,308.6779,777.6305,298.8445,775.3079,304.0025,770.1498,301.6798,777.08,308.6779" style="stroke:#181818;stroke-width:1;"/><text fill="#000000" font-family="sans-serif" font-size="13" lengthAdjust="spacing" textLength="57.5771" x="762.47" y="263.5049">&#171;include&#187;</text></g><!--link UC_BOARD to UC_FLOW--><g class="link" data-entity-1="UC_BOARD" data-entity-2="UC_FLOW" data-source-line="39" data-uid="lnk26" id="link_UC_BOARD_UC_FLOW"><path d="M720.67,218.1879 C711.11,226.9979 698.86,238.3679 688.09,248.6079 C670.42,265.4079 655.0334,280.3564 639.8734,295.2264" fill="none" id="UC_BOARD-to-UC_FLOW" style="stroke:#181818;stroke-width:1;stroke-dasharray:7,7;"/><polygon fill="#181818" points="635.59,299.4279,644.8161,295.9813,639.1595,295.9267,639.2141,290.2701,635.59,299.4279" style="stroke:#181818;stroke-width:1;"/><text fill="#000000" font-family="sans-serif" font-size="13" lengthAdjust="spacing" textLength="57.5771" x="689.09" y="263.5049">&#171;include&#187;</text></g><!--link UC_BUGS to UC_PRI--><g class="link" data-entity-1="UC_BUGS" data-entity-2="UC_PRI" data-source-line="41" data-uid="lnk27" id="link_UC_BUGS_UC_PRI"><path d="M942.09,218.9979 C942.09,242.2679 942.09,279.4079 942.09,302.6779" fill="none" id="UC_BUGS-to-UC_PRI" style="stroke:#181818;stroke-width:1;stroke-dasharray:7,7;"/><polygon fill="#181818" points="942.09,308.6779,946.09,299.6779,942.09,303.6779,938.09,299.6779,942.09,308.6779" style="stroke:#181818;stroke-width:1;"/><text fill="#000000" font-family="sans-serif" font-size="13" lengthAdjust="spacing" textLength="57.5771" x="943.09" y="263.5049">&#171;include&#187;</text></g><!--link UC_BUGS to UC_BUG_STATUS--><g class="link" data-entity-1="UC_BUGS" data-entity-2="UC_BUG_STATUS" data-source-line="42" data-uid="lnk28" id="link_UC_BUGS_UC_BUG_STATUS"><path d="M960.89,214.1479 C974.83,222.7279 993.96,235.3679 1009.09,248.6079 C1026.95,264.2179 1040.9132,279.6767 1053.8232,295.2667" fill="none" id="UC_BUGS-to-UC_BUG_STATUS" style="stroke:#181818;stroke-width:1;stroke-dasharray:7,7;"/><polygon fill="#181818" points="1057.65,299.8879,1054.9906,290.4049,1054.461,296.0369,1048.829,295.5073,1057.65,299.8879" style="stroke:#181818;stroke-width:1;"/><text fill="#000000" font-family="sans-serif" font-size="13" lengthAdjust="spacing" textLength="57.5771" x="1028.29" y="263.5049">&#171;include&#187;</text></g><!--link UC_REVIEW to UC_UNDER_REVIEW--><g class="link" data-entity-1="UC_REVIEW" data-entity-2="UC_UNDER_REVIEW" data-source-line="44" data-uid="lnk29" id="link_UC_REVIEW_UC_UNDER_REVIEW"><path d="M1275.16,213.3379 C1306.63,221.1979 1349.25,233.2879 1385.09,248.6079 C1420.23,263.6179 1452.6867,282.6587 1478.7167,299.2087" fill="none" id="UC_REVIEW-to-UC_UNDER_REVIEW" style="stroke:#181818;stroke-width:1;stroke-dasharray:7,7;"/><polygon fill="#181818" points="1483.78,302.4279,1478.3313,294.2236,1479.5606,299.7452,1474.039,300.9746,1483.78,302.4279" style="stroke:#181818;stroke-width:1;"/><text fill="#000000" font-family="sans-serif" font-size="13" lengthAdjust="spacing" textLength="57.5771" x="1423.72" y="263.5049">&#171;include&#187;</text></g><!--link UC_REVIEW to UC_COMMENTS--><g class="link" data-entity-1="UC_REVIEW" data-entity-2="UC_COMMENTS" data-source-line="45" data-uid="lnk30" id="link_UC_REVIEW_UC_COMMENTS"><path d="M1230.09,218.9979 C1230.09,242.1379 1230.09,278.9279 1230.09,302.2979" fill="none" id="UC_REVIEW-to-UC_COMMENTS" style="stroke:#181818;stroke-width:1;stroke-dasharray:7,7;"/><polygon fill="#181818" points="1230.09,308.2979,1234.09,299.2979,1230.09,303.2979,1226.09,299.2979,1230.09,308.2979" style="stroke:#181818;stroke-width:1;"/><text fill="#000000" font-family="sans-serif" font-size="13" lengthAdjust="spacing" textLength="57.5771" x="1231.09" y="263.5049">&#171;include&#187;</text></g><!--link UC_REVIEW to UC_APPROVE--><g class="link" data-entity-1="UC_REVIEW" data-entity-2="UC_APPROVE" data-source-line="46" data-uid="lnk31" id="link_UC_REVIEW_UC_APPROVE"><path d="M1253.34,217.6679 C1266.52,226.2079 1283.12,237.4879 1297.09,248.6079 C1322,268.4079 1344.394,289.7886 1360.334,305.6286" fill="none" id="UC_REVIEW-to-UC_APPROVE" style="stroke:#181818;stroke-width:1;stroke-dasharray:7,7;"/><polygon fill="#181818" points="1364.59,309.8579,1361.0256,300.6767,1361.0434,306.3335,1355.3865,306.3513,1364.59,309.8579" style="stroke:#181818;stroke-width:1;"/><text fill="#000000" font-family="sans-serif" font-size="13" lengthAdjust="spacing" textLength="57.5771" x="1319.23" y="263.5049">&#171;include&#187;</text></g><!--link UC_RETRO to UC_ACT_LOG--><g class="link" data-entity-1="UC_RETRO" data-entity-2="UC_ACT_LOG" data-source-line="48" data-uid="lnk32" id="link_UC_RETRO_UC_ACT_LOG"><path d="M246.42,208.5479 C188.33,214.9779 105.37,227.5579 81.09,248.6079 C66.82,260.9779 61.2181,275.5349 58.0481,292.0949" fill="none" id="UC_RETRO-to-UC_ACT_LOG" style="stroke:#181818;stroke-width:1;stroke-dasharray:7,7;"/><polygon fill="#181818" points="56.92,297.9879,62.5408,289.9005,57.8601,293.0771,54.6834,288.3964,56.92,297.9879" style="stroke:#181818;stroke-width:1;"/><text fill="#000000" font-family="sans-serif" font-size="13" lengthAdjust="spacing" textLength="57.5771" x="82.09" y="263.5049">&#171;include&#187;</text></g><!--link PO to UC_PLAN--><g class="link" data-entity-1="PO" data-entity-2="UC_PLAN" data-source-line="51" data-uid="lnk33" id="link_PO_UC_PLAN"><path d="M368.14,125.0479 C392.95,146.0279 417.5492,166.8328 435.7892,182.2628" fill="none" id="PO-to-UC_PLAN" style="stroke:#181818;stroke-width:1;"/><polygon fill="#181818" points="440.37,186.1379,436.0822,177.2714,436.5527,182.9087,430.9154,183.3791,440.37,186.1379" style="stroke:#181818;stroke-width:1;"/></g><!--link PO to UC_RETRO--><g class="link" data-entity-1="PO" data-entity-2="UC_RETRO" data-source-line="52" data-uid="lnk34" id="link_PO_UC_RETRO"><path d="M316.68,125.0479 C313.81,145.6379 311.2754,163.845 309.1254,179.325" fill="none" id="PO-to-UC_RETRO" style="stroke:#181818;stroke-width:1;"/><polygon fill="#181818" points="308.3,185.2679,313.5001,176.9038,308.9878,180.3155,305.5761,175.8032,308.3,185.2679" style="stroke:#181818;stroke-width:1;"/></g><!--link SM to UC_PLAN--><g class="link" data-entity-1="SM" data-entity-2="UC_PLAN" data-source-line="54" data-uid="lnk35" id="link_SM_UC_PLAN"><path d="M458.09,125.0479 C458.09,145.6379 458.09,163.7879 458.09,179.2679" fill="none" id="SM-to-UC_PLAN" style="stroke:#181818;stroke-width:1;"/><polygon fill="#181818" points="458.09,185.2679,462.09,176.2679,458.09,180.2679,454.09,176.2679,458.09,185.2679" style="stroke:#181818;stroke-width:1;"/></g><!--link SM to UC_BOARD--><g class="link" data-entity-1="SM" data-entity-2="UC_BOARD" data-source-line="55" data-uid="lnk36" id="link_SM_UC_BOARD"><path d="M504.16,105.0979 C561.12,128.5779 650.9829,165.6211 700.1529,185.8911" fill="none" id="SM-to-UC_BOARD" style="stroke:#181818;stroke-width:1;"/><polygon fill="#181818" points="705.7,188.1779,698.9038,181.0497,701.0774,186.2723,695.8548,188.4459,705.7,188.1779" style="stroke:#181818;stroke-width:1;"/></g><!--link SM to UC_RETRO--><g class="link" data-entity-1="SM" data-entity-2="UC_RETRO" data-source-line="56" data-uid="lnk37" id="link_SM_UC_RETRO"><path d="M412.08,120.9279 C383.24,142.7479 352.3338,166.1265 330.6038,182.5765" fill="none" id="SM-to-UC_RETRO" style="stroke:#181818;stroke-width:1;"/><polygon fill="#181818" points="325.82,186.1979,335.4101,183.955,329.8065,183.18,330.5815,177.5765,325.82,186.1979" style="stroke:#181818;stroke-width:1;"/></g><!--link Dev to UC_PLAN--><g class="link" data-entity-1="Dev" data-entity-2="UC_PLAN" data-source-line="58" data-uid="lnk38" id="link_Dev_UC_PLAN"><path d="M867.13,102.0779 C850.01,109.6779 828.75,118.4379 809.09,124.6379 C702.18,158.3679 578.2778,181.448 510.4278,192.798" fill="none" id="Dev-to-UC_PLAN" style="stroke:#181818;stroke-width:1;"/><polygon fill="#181818" points="504.51,193.7879,514.0466,196.2482,509.4415,192.963,512.7267,188.3578,504.51,193.7879" style="stroke:#181818;stroke-width:1;"/></g><!--link Dev to UC_BOARD--><g class="link" data-entity-1="Dev" data-entity-2="UC_BOARD" data-source-line="59" data-uid="lnk39" id="link_Dev_UC_BOARD"><path d="M867.13,110.7779 C848.58,124.1679 825.16,140.9379 804.09,155.6379 C789.1,166.0979 777.0377,174.3079 763.8877,183.1579" fill="none" id="Dev-to-UC_BOARD" style="stroke:#181818;stroke-width:1;"/><polygon fill="#181818" points="758.91,186.5079,768.6099,184.8014,763.0581,183.7162,764.1432,178.1644,758.91,186.5079" style="stroke:#181818;stroke-width:1;"/></g><!--link Dev to UC_BUGS--><g class="link" data-entity-1="Dev" data-entity-2="UC_BUGS" data-source-line="60" data-uid="lnk40" id="link_Dev_UC_BUGS"><path d="M914.97,125.0479 C922.36,145.7679 929.0124,164.4473 934.5324,179.9073" fill="none" id="Dev-to-UC_BUGS" style="stroke:#181818;stroke-width:1;"/><polygon fill="#181818" points="936.55,185.5579,937.2907,175.737,934.8687,180.8491,929.7566,178.427,936.55,185.5579" style="stroke:#181818;stroke-width:1;"/></g><!--link Dev to UC_REVIEW--><g class="link" data-entity-1="Dev" data-entity-2="UC_REVIEW" data-source-line="61" data-uid="lnk41" id="link_Dev_UC_REVIEW"><path d="M935.06,97.9779 C997.53,119.8179 1124.4262,164.1776 1188.4062,186.5476" fill="none" id="Dev-to-UC_REVIEW" style="stroke:#181818;stroke-width:1;"/><polygon fill="#181818" points="1194.07,188.5279,1186.8945,181.7816,1189.3502,186.8777,1184.2541,189.3333,1194.07,188.5279" style="stroke:#181818;stroke-width:1;"/></g><!--link QA to UC_BOARD--><g class="link" data-entity-1="QA" data-entity-2="UC_BOARD" data-source-line="63" data-uid="lnk42" id="link_QA_UC_BOARD"><path d="M764.21,125.0479 C756.87,145.6379 750.272,164.1353 744.762,179.6153" fill="none" id="QA-to-UC_BOARD" style="stroke:#181818;stroke-width:1;"/><polygon fill="#181818" points="742.75,185.2679,749.5364,178.1304,744.4267,180.5574,741.9996,175.4477,742.75,185.2679" style="stroke:#181818;stroke-width:1;"/></g><!--link QA to UC_BUGS--><g class="link" data-entity-1="QA" data-entity-2="UC_BUGS" data-source-line="64" data-uid="lnk43" id="link_QA_UC_BUGS"><path d="M791.83,96.1179 C810.55,109.7279 845.19,134.7679 875.09,155.6379 C891.81,167.2979 906.1085,177.0036 919.6785,186.1136" fill="none" id="QA-to-UC_BUGS" style="stroke:#181818;stroke-width:1;"/><polygon fill="#181818" points="924.66,189.4579,919.4172,181.1205,920.5087,186.671,914.9582,187.7625,924.66,189.4579" style="stroke:#181818;stroke-width:1;"/></g><!--link QA to UC_REVIEW--><g class="link" data-entity-1="QA" data-entity-2="UC_REVIEW" data-source-line="65" data-uid="lnk44" id="link_QA_UC_REVIEW"><path d="M791.87,95.0579 C805.96,103.8279 828.75,116.9679 850.09,124.6379 C961.71,164.7479 1093.8051,185.1536 1168.9751,194.4236" fill="none" id="QA-to-UC_REVIEW" style="stroke:#181818;stroke-width:1;"/><polygon fill="#181818" points="1174.93,195.1579,1166.4872,190.0865,1169.9676,194.546,1165.5081,198.0263,1174.93,195.1579" style="stroke:#181818;stroke-width:1;"/></g><!--link QA to UC_RETRO--><g class="link" data-entity-1="QA" data-entity-2="UC_RETRO" data-source-line="66" data-uid="lnk45" id="link_QA_UC_RETRO"><path d="M764.22,89.4879 C702.86,104.4379 460.0895,163.5976 357.0295,188.7076" fill="none" id="QA-to-UC_RETRO" style="stroke:#181818;stroke-width:1;"/><polygon fill="#181818" points="351.2,190.1279,360.8911,191.8838,356.0579,188.9443,358.9973,184.1111,351.2,190.1279" style="stroke:#181818;stroke-width:1;"/></g><!--SRC=[XPJDZfim4CVlFCLeBqqEsTwhLIHleAke8H0WsKkabHTcKojWHyOasXVe0_GH-oGr7pQGHEq9ZUSt7_P_6CLKZX2B3tMX4i75C-RYL21Na20jO48EBCUlSIghOkeuD5L2maCeHLQb2e8BH_a0j8GmCBu61P-MgdF5ld5rsRjpRHd7XZGd6-8uNs0sc-bmng4g4L9QObaVETgg3LqyfnpAasHSDL7RnLku8kiUS2dBF-5TK9aPu3aWaTiJpzMXjAxjIznx5Y93a7XcU350vEsMtckFn4tf6oY90jFzagTvbM466IhTImcJaXMd7AVZY_ZqYA1eURIz92J-CMWcHWKdeOjP80oMw-IAoAX22xWayM9dS9-Vb1yGIaLLPQ4u8Sbsb0NX8nUNFPya0bm1VtxzrX-EKnFnVHMyEbUDIIOaKv-sjMZP0ucawH7UgyEUZqlhrpRbXmyXZtk-vHbAY4RFkbsxNdIZ0CaoI4LHJwbDl0Xytnkz3JcTf3YZ0KWOHi7E6vJTwK9xhaUGdVKz81S7oowIjrNmOlHahPvQyfmg9dWxaDtSmUFZt6e7t-3fgSFdyskaLU_VJ2FW5UAO2JPG-uAtYKPGhTczH7hURKFHyawI0T3BTITJAuj1XrBT9XspHgp_SPrcTslh_yrYhLpNM2iUQLPCFT75xL890_sPsnNIczt_7FiZVs-s2wMtErxlj570m6uZXWVruXdOtPGx6p8E6TXrH6zs0SE3kec_]--></g></svg>